<?xml version="1.0" encoding="utf-8"?>
<COLLADA xmlns="http://www.collada.org/2005/11/COLLADASchema" version="1.4.1">
  <asset>
    <contributor>
      <author>Blender User</author>
      <authoring_tool>Blender 2.79.0</authoring_tool>
    </contributor>
    <created>2021-01-10T22:52:39</created>
    <modified>2021-01-10T22:52:39</modified>
    <unit name="meter" meter="1"/>
    <up_axis>Z_UP</up_axis>
  </asset>
  <library_cameras>
    <camera id="Camera-camera" name="Camera">
      <optics>
        <technique_common>
          <perspective>
            <xfov sid="xfov">49.13434</xfov>
            <aspect_ratio>1.777778</aspect_ratio>
            <znear sid="znear">0.1</znear>
            <zfar sid="zfar">100</zfar>
          </perspective>
        </technique_common>
      </optics>
      <extra>
        <technique profile="blender">
          <shiftx sid="shiftx" type="float">0</shiftx>
          <shifty sid="shifty" type="float">0</shifty>
          <YF_dofdist sid="YF_dofdist" type="float">0</YF_dofdist>
        </technique>
      </extra>
    </camera>
  </library_cameras>
  <library_lights>
    <light id="Lamp-light" name="Lamp">
      <technique_common>
        <point>
          <color sid="color">1 1 1</color>
          <constant_attenuation>1</constant_attenuation>
          <linear_attenuation>0</linear_attenuation>
          <quadratic_attenuation>0.00111109</quadratic_attenuation>
        </point>
      </technique_common>
      <extra>
        <technique profile="blender">
          <type sid="type" type="int">0</type>
          <flag sid="flag" type="int">0</flag>
          <mode sid="mode" type="int">8192</mode>
          <gamma sid="blender_gamma" type="float">1</gamma>
          <red sid="red" type="float">1</red>
          <green sid="green" type="float">1</green>
          <blue sid="blue" type="float">1</blue>
          <shadow_r sid="blender_shadow_r" type="float">0</shadow_r>
          <shadow_g sid="blender_shadow_g" type="float">0</shadow_g>
          <shadow_b sid="blender_shadow_b" type="float">0</shadow_b>
          <energy sid="blender_energy" type="float">1</energy>
          <dist sid="blender_dist" type="float">29.99998</dist>
          <spotsize sid="spotsize" type="float">75</spotsize>
          <spotblend sid="spotblend" type="float">0.15</spotblend>
          <halo_intensity sid="blnder_halo_intensity" type="float">1</halo_intensity>
          <att1 sid="att1" type="float">0</att1>
          <att2 sid="att2" type="float">1</att2>
          <falloff_type sid="falloff_type" type="int">2</falloff_type>
          <clipsta sid="clipsta" type="float">1.000799</clipsta>
          <clipend sid="clipend" type="float">30.002</clipend>
          <bias sid="bias" type="float">1</bias>
          <soft sid="soft" type="float">3</soft>
          <compressthresh sid="compressthresh" type="float">0.04999995</compressthresh>
          <bufsize sid="bufsize" type="int">2880</bufsize>
          <samp sid="samp" type="int">3</samp>
          <buffers sid="buffers" type="int">1</buffers>
          <filtertype sid="filtertype" type="int">0</filtertype>
          <bufflag sid="bufflag" type="int">0</bufflag>
          <buftype sid="buftype" type="int">2</buftype>
          <ray_samp sid="ray_samp" type="int">1</ray_samp>
          <ray_sampy sid="ray_sampy" type="int">1</ray_sampy>
          <ray_sampz sid="ray_sampz" type="int">1</ray_sampz>
          <ray_samp_type sid="ray_samp_type" type="int">0</ray_samp_type>
          <area_shape sid="area_shape" type="int">1</area_shape>
          <area_size sid="area_size" type="float">0.1</area_size>
          <area_sizey sid="area_sizey" type="float">0.1</area_sizey>
          <area_sizez sid="area_sizez" type="float">1</area_sizez>
          <adapt_thresh sid="adapt_thresh" type="float">0.000999987</adapt_thresh>
          <ray_samp_method sid="ray_samp_method" type="int">1</ray_samp_method>
          <shadhalostep sid="shadhalostep" type="int">0</shadhalostep>
          <sun_effect_type sid="sun_effect_type" type="int">0</sun_effect_type>
          <skyblendtype sid="skyblendtype" type="int">1</skyblendtype>
          <horizon_brightness sid="horizon_brightness" type="float">1</horizon_brightness>
          <spread sid="spread" type="float">1</spread>
          <sun_brightness sid="sun_brightness" type="float">1</sun_brightness>
          <sun_size sid="sun_size" type="float">1</sun_size>
          <backscattered_light sid="backscattered_light" type="float">1</backscattered_light>
          <sun_intensity sid="sun_intensity" type="float">1</sun_intensity>
          <atm_turbidity sid="atm_turbidity" type="float">2</atm_turbidity>
          <atm_extinction_factor sid="atm_extinction_factor" type="float">1</atm_extinction_factor>
          <atm_distance_factor sid="atm_distance_factor" type="float">1</atm_distance_factor>
          <skyblendfac sid="skyblendfac" type="float">1</skyblendfac>
          <sky_exposure sid="sky_exposure" type="float">1</sky_exposure>
          <sky_colorspace sid="sky_colorspace" type="int">0</sky_colorspace>
        </technique>
      </extra>
    </light>
  </library_lights>
  <library_images/>
  <library_geometries>
    <geometry id="myntai_mount-mesh" name="myntai mount">
      <mesh>
        <source id="myntai_mount-mesh-positions">
          <float_array id="myntai_mount-mesh-positions-array" count="2430">-3.164885 -10.61779 -23.60885 -3.164885 -10.61779 -10.90885 -6.339884 -10.61779 -23.60885 -8.326602 -10.61779 -23.45249 -3.087074 -6.781992 -23.60885 -3.122813 -6.927337 -23.60885 -6.339884 16.36971 -23.60885 -3.004627 -6.446703 -23.60885 -3.01301 -6.480788 -23.60885 -3.164885 -7.878949 -23.60885 -3.164885 -7.442786 -23.60885 -3.13506 -7.077391 -23.60885 -3.158758 -7.367723 -23.60885 -3.164885 -3.951438 -10.90885 3.185116 -10.61779 -10.90885 3.185116 -7.878949 -23.60885 3.185116 -10.61779 -23.60885 6.360115 -10.61779 -23.60885 8.346833 -10.61779 -23.45249 3.113085 -6.769975 -23.60885 6.360115 16.36971 -23.60885 3.185116 -7.442786 -23.60885 3.182974 -7.367332 -23.60885 3.179998 -7.262559 -23.60885 3.154915 -7.077913 -23.60885 3.114466 -6.780147 -23.60885 8.346833 16.36971 -23.45249 -10.2644 -10.61779 -22.98727 -8.326602 16.36971 -23.45249 10.28463 -10.61779 -22.98727 10.28463 16.36971 -22.98727 -12.10556 -10.61779 -22.22463 -10.2644 16.36971 -22.98727 12.1258 -10.61779 -22.22463 12.1258 16.36971 -22.22463 -13.80476 -10.61779 -21.18337 -12.10556 16.36971 -22.22463 13.82499 -10.61779 -21.18337 13.82499 16.36971 -21.18337 -15.32014 -10.61779 -19.88911 -13.80476 16.36971 -21.18337 15.34037 -10.61779 -19.88911 15.34037 16.36971 -19.88911 -16.6144 -10.61779 -18.37372 -15.32014 16.36971 -19.88911 16.63463 -10.61779 -18.37372 16.63463 16.36971 -18.37372 -17.65567 -10.61779 -16.67453 -16.6144 16.36971 -18.37372 17.6759 -10.61779 -16.67453 17.6759 16.36971 -16.67453 -18.4183 -10.61779 -14.83337 -17.65567 16.36971 -16.67453 18.43853 -10.61779 -14.83337 18.43853 16.36971 -14.83337 -18.88353 -10.61779 -12.89557 -18.4183 16.36971 -14.83337 18.90376 -10.61779 -12.89557 18.90376 16.36971 -12.89557 -19.03989 -10.61779 -10.90885 -18.88353 16.36971 -12.89557 19.06012 -10.61779 -10.90885 19.06012 16.36971 -10.90885 -19.03989 -10.61779 1.791151 -19.03989 -0.8552847 1.791151 -19.03989 16.36971 -10.90885 19.06012 -10.61779 1.791151 19.06012 16.36971 1.791151 19.06012 -0.8552847 1.791151 -3.164885 -3.903094 -6.146349 -3.164882 -7.442786 -6.146349 -3.164885 -10.61779 1.791151 -16.96061 -10.61779 5.017576 -17.90536 -10.61779 3.343214 3.185114 -7.442786 -1.383848 3.185116 -7.442786 -6.146349 3.185116 -3.951438 -10.90885 3.185116 -10.61779 1.791151 3.185116 -5.855286 1.791151 -3.164885 -5.855286 1.791151 -3.164882 -7.442786 -1.383848 -16.21867 -10.61779 6.791151 -14.96444 -10.61779 13.12012 -15.21401 -10.61779 10.84304 -15.60945 -10.61779 8.818247 -0.8718071 -10.61779 18.40409 -1.43154 -10.61779 18.60185 -1.949797 -10.61779 18.89137 0.3069363 -10.61779 18.30376 -0.286705 -10.61779 18.30376 18.06464 -10.61779 2.856499 1.451771 -10.61779 18.60185 0.8920384 -10.61779 18.40409 1.970028 -10.61779 18.89137 18.54126 -1.368223 2.304089 2.431902 -10.61779 19.26431 17.24983 -10.61779 4.065638 17.63327 -2.509049 3.444914 18.06464 -1.920634 2.856499 -17.90536 -2.407349 3.343214 16.63612 -10.61779 5.388245 16.91675 -3.778909 4.714775 17.24983 -3.129774 4.065638 -16.96061 -4.081712 5.017576 16.2389 -10.61779 6.791151 16.4097 -5.145956 6.081821 16.63612 -4.45238 5.388245 -16.21867 -5.855286 6.791151 15.62968 -10.61779 8.818247 16.2389 -5.855286 6.791151 15.62968 -5.855286 8.818247 -15.60945 -5.855286 8.818247 15.23424 -10.61779 10.84304 2.824106 -10.61779 19.70993 15.23424 -5.855286 10.84304 -15.21401 -5.855286 10.84304 14.98467 -10.61779 13.12012 3.135357 -10.61779 20.21544 14.98467 -5.855286 13.12012 -2.411671 -10.61779 19.26431 -2.803875 -10.61779 19.70993 -3.115125 -10.61779 20.21544 -3.411327 -10.61779 22.52853 -3.237496 -10.61779 23.09615 -3.486731 -10.61779 21.9397 -1.43154 -10.61779 33.60185 -14.86098 -10.61779 15.72465 -2.970236 -10.61779 23.62623 -3.336468 -10.61779 20.76627 -3.461535 -10.61779 21.34659 -14.96444 -5.855286 13.12012 14.88121 -10.61779 15.72465 3.356699 -10.61779 20.76627 14.88121 -5.855286 15.72465 -1.949797 -10.61779 33.89136 -14.8909 -10.61779 18.85215 -14.86098 -5.855286 15.72465 2.431902 -10.61779 34.2643 1.970028 -10.61779 33.89136 3.431559 -10.61779 22.52853 3.506962 -10.61779 21.9397 0.8920384 -10.61779 33.40408 1.451771 -10.61779 33.60185 14.91113 -10.61779 18.85215 3.481768 -10.61779 21.34659 14.91113 -5.855286 18.85215 0.3069363 -5.855286 18.30376 -0.286705 -5.855286 18.30376 0.8920384 -5.855286 18.40409 -0.8718071 -5.855286 18.40409 1.451771 -5.855286 18.60185 -1.43154 -5.855286 18.60185 1.970028 -5.855286 18.89137 -2.411671 -10.61779 34.2643 -14.99904 -10.61779 23.66089 -14.8909 -5.855286 18.85215 15.01927 -10.61779 23.66089 15.01927 -5.855286 23.66089 -1.949797 -5.855286 18.89137 2.431902 -5.855286 19.26431 -2.411671 -5.855286 19.26431 2.824106 -5.855286 19.70993 -2.803875 -5.855286 19.70993 3.135357 -5.855286 20.21544 -3.115125 -5.855286 20.21544 3.356699 -5.855286 20.76627 -3.336468 -5.855286 20.76627 3.481768 -5.855286 21.34659 -3.461535 -5.855286 21.34659 3.506962 -5.855286 21.9397 -3.486731 -5.855286 21.9397 3.431559 -5.855286 22.52853 -3.411327 -5.855286 22.52853 3.257727 -10.61779 23.09615 3.257727 -5.855286 23.09615 -3.237496 -5.855286 23.09615 2.990467 -10.61779 23.62623 2.990467 -5.855286 23.62623 -2.617237 -10.61779 24.10351 -2.970236 -5.855286 23.62623 2.637468 -10.61779 24.10351 2.637468 -5.855286 24.10351 -14.93323 -10.61779 26.62363 -14.99904 -5.855286 23.66089 2.824106 -10.61779 34.70994 14.95346 -10.61779 26.62363 14.95346 -5.855286 26.62363 -2.188654 -10.61779 24.51428 -2.617237 -5.855286 24.10351 2.208885 -10.61779 24.51428 2.208885 -5.855286 24.51428 -1.696817 -10.61779 24.8467 -2.188654 -5.855286 24.51428 1.717049 -10.61779 24.8467 1.717049 -5.855286 24.8467 -1.155874 -10.61779 25.09122 -1.696817 -5.855286 24.8467 1.176105 -10.61779 25.09122 1.176105 -5.855286 25.09122 -0.5813866 -10.61779 25.24081 -1.155874 -5.855286 25.09122 0.3069363 -10.61779 33.30376 0.6016178 -10.61779 25.24081 0.6016178 -5.855286 25.24081 0.01011657 -10.61779 25.29115 -0.286705 -10.61779 33.30376 -0.8718071 -10.61779 33.40408 -0.5813866 -5.855286 25.24081 0.01011657 -5.855286 25.29115 -2.803875 -10.61779 34.70994 -14.73404 -10.61779 28.80865 -14.93323 -5.855286 26.62363 3.135357 -10.61779 35.21544 14.75427 -10.61779 28.80865 14.75427 -5.855286 28.80865 -3.115125 -10.61779 35.21544 -14.39572 -10.61779 30.75338 -14.73404 -5.855286 28.80865 14.41595 -10.61779 30.75338 14.41595 -5.855286 30.75338 -13.91249 -10.61779 32.51871 -14.39572 -5.855286 30.75338 3.356699 -10.61779 35.76627 13.93272 -10.61779 32.51871 13.93272 -5.855286 32.51871 -3.336468 -10.61779 35.76627 -13.27614 -10.61779 34.14532 -13.91249 -5.855286 32.51871 13.29637 -10.61779 34.14532 13.29637 -5.855286 34.14532 0.3069363 -5.855286 33.30376 -0.286705 -5.855286 33.30376 0.8920384 -5.855286 33.40408 -0.8718071 -5.855286 33.40408 1.451771 -5.855286 33.60185 -1.43154 -5.855286 33.60185 1.970028 -5.855286 33.89136 -1.949797 -5.855286 33.89136 2.431902 -5.855286 34.2643 -12.47474 -10.61779 35.6616 -13.27614 -5.855286 34.14532 12.49497 -10.61779 35.6616 3.481768 -10.61779 36.34659 12.49497 -5.855286 35.6616 -2.411671 -5.855286 34.2643 2.824106 -5.855286 34.70994 -2.803875 -5.855286 34.70994 3.135357 -5.855286 35.21544 -3.115125 -5.855286 35.21544 3.356699 -5.855286 35.76627 -3.461535 -10.61779 36.34659 -11.46795 -10.61779 37.11829 -12.47474 -5.855286 35.6616 11.48818 -10.61779 37.11829 3.506962 -10.61779 36.9397 11.48818 -5.855286 37.11829 -3.336468 -5.855286 35.76627 3.481768 -5.855286 36.34659 -3.486731 -10.61779 36.9397 -3.461535 -5.855286 36.34659 3.506962 -5.855286 36.9397 -3.411327 -10.61779 37.52853 -10.27235 -10.61779 38.47176 -3.486731 -5.855286 36.9397 3.431559 -10.61779 37.52853 3.431559 -5.855286 37.52853 -11.46795 -5.855286 37.11829 10.29258 -10.61779 38.47176 10.29258 -5.855286 38.47176 -3.237496 -10.61779 38.09614 -8.840222 -10.61779 39.76128 -3.411327 -5.855286 37.52853 3.257727 -10.61779 38.09614 3.257727 -5.855286 38.09614 -2.970236 -10.61779 38.62623 -7.135805 -10.61779 40.99139 -3.237496 -5.855286 38.09614 8.860453 -10.61779 39.76128 2.990467 -10.61779 38.62623 2.990467 -5.855286 38.62623 -10.27235 -5.855286 38.47176 8.860453 -5.855286 39.76128 -2.617237 -10.61779 39.10351 -5.117207 -10.61779 42.1623 -2.970236 -5.855286 38.62623 7.156036 -10.61779 40.99139 2.637468 -10.61779 39.10351 2.637468 -5.855286 39.10351 -2.188654 -10.61779 39.51427 -2.617237 -5.855286 39.10351 5.137438 -10.61779 42.1623 2.208885 -10.61779 39.51427 2.208885 -5.855286 39.51427 -2.736612 -10.61779 43.27016 -1.696817 -10.61779 39.8467 -2.188654 -5.855286 39.51427 1.717049 -10.61779 39.8467 1.717049 -5.855286 39.8467 -8.840222 -5.855286 39.76128 7.156036 -5.855286 40.99139 -1.155874 -10.61779 40.09122 -1.696817 -5.855286 39.8467 2.756844 -10.61779 43.27016 1.176105 -10.61779 40.09122 1.176105 -5.855286 40.09122 0.01011657 -10.61779 44.29115 -0.5813866 -10.61779 40.24081 -1.155874 -5.855286 40.09122 0.6016178 -10.61779 40.24081 0.6016178 -5.855286 40.24081 0.01011657 -10.61779 40.29115 -0.5813866 -5.855286 40.24081 0.01011657 -5.855286 40.29115 -7.135805 -5.855286 40.99139 5.137438 -5.855286 42.1623 -5.117207 -5.855286 42.1623 2.756844 -5.855286 43.27016 -2.736612 -5.855286 43.27016 0.01011657 -5.855286 44.29115 -3.163303 -3.217082 -10.90885 -3.10558 -1.165441 -6.146349 -14.27738 16.36971 -6.146349 -14.27738 -7.442786 -6.146349 -3.164148 -2.478622 -6.146349 -3.163736 -1.683098 -6.146349 -3.161249 -1.660952 -6.146349 -3.117722 -1.273516 -6.146349 -14.27738 -7.442786 -1.383848 -15.39992 -7.442786 -5.681381 -15.5617 -7.442786 -5.491959 -15.69186 -7.442786 -5.27956 -15.78719 -7.442786 -5.049414 -15.84534 -7.442786 -4.807188 -15.86489 -7.442786 -4.558849 -14.52572 -7.442786 -6.126804 -14.76795 -7.442786 -6.068651 -14.99809 -7.442786 -5.973322 -15.21049 -7.442786 -5.843164 3.185116 -4.90094 -6.146349 14.20872 -7.442786 -6.146349 3.143616 -1.273074 -6.146349 3.148483 -1.293522 -6.146349 3.170563 -1.661512 -6.146349 3.185116 -1.90406 -6.146349 3.185116 -2.478622 -6.146349 3.185116 -3.119297 -6.146349 14.20872 16.36971 -6.146349 3.032627 -0.8067608 -6.146349 3.057146 -0.909771 -6.146349 14.20872 -7.442786 -1.383848 15.77667 -7.442786 -4.807188 15.71852 -7.442786 -5.049414 15.62319 -7.442786 -5.27956 15.49303 -7.442786 -5.491959 15.79622 -7.442786 -2.97135 15.79622 -7.442786 -4.558849 14.69928 -7.442786 -6.068651 14.45706 -7.442786 -6.126804 14.92943 -7.442786 -5.973322 15.33125 -7.442786 -5.681381 15.14182 -7.442786 -5.843164 14.45706 16.36971 -6.126804 -14.52572 16.36971 -6.126804 14.69928 16.36971 -6.068651 -14.76795 16.36971 -6.068651 14.92943 16.36971 -5.973322 -14.99809 16.36971 -5.973322 15.14182 16.36971 -5.843164 -15.21049 16.36971 -5.843164 15.33125 16.36971 -5.681381 -15.39992 16.36971 -5.681381 15.49303 16.36971 -5.491959 -15.5617 16.36971 -5.491959 15.62319 16.36971 -5.27956 -15.69186 16.36971 -5.27956 15.71852 16.36971 -5.049414 -15.78719 16.36971 -5.049414 15.77667 16.36971 -4.807188 -15.84534 16.36971 -4.807188 15.79622 16.36971 -4.558849 -15.86489 -7.442786 -2.97135 -15.86489 16.36971 -2.97135 -15.86489 16.36971 -4.558849 -15.84534 -7.442786 -2.723009 15.77667 -7.442786 -2.723009 15.79622 16.36971 -2.97135 15.77667 16.36971 -2.723009 -15.78719 -7.442786 -2.480785 -15.84534 16.36971 -2.723009 15.71852 -7.442786 -2.480785 15.71852 16.36971 -2.480785 -15.69186 -7.442786 -2.250639 -15.5617 -7.442786 -2.03824 -15.39992 -7.442786 -1.848818 -15.21049 -7.442786 -1.687035 -14.99809 -7.442786 -1.556877 -14.76795 -7.442786 -1.461546 -14.52572 -7.442786 -1.403395 -15.78719 16.36971 -2.480785 15.62319 -7.442786 -2.250639 15.62319 16.36971 -2.250639 -15.69186 16.36971 -2.250639 15.49303 -7.442786 -2.03824 15.49303 16.36971 -2.03824 -15.5617 16.36971 -2.03824 14.45706 -7.442786 -1.403395 15.33125 -7.442786 -1.848818 15.33125 16.36971 -1.848818 -15.39992 16.36971 -1.848818 15.14182 -7.442786 -1.687035 15.14182 16.36971 -1.687035 -15.21049 16.36971 -1.687035 14.92943 -7.442786 -1.556877 14.92943 16.36971 -1.556877 -14.99809 16.36971 -1.556877 14.69928 -7.442786 -1.461546 14.69928 16.36971 -1.461546 -14.76795 16.36971 -1.461546 14.45706 16.36971 -1.403395 -14.52572 16.36971 -1.403395 14.20872 16.36971 -1.383848 -3.159568 -0.1047506 -1.383848 -3.164097 -0.1488819 -1.383848 -3.164584 -1.005807 -1.383848 -3.164885 -1.533965 -1.383848 -3.164885 -3.856183 -1.383848 -14.27738 16.36971 -1.383848 -3.113138 0.3476782 -1.383848 -3.117014 0.3099117 -1.383848 3.185116 -2.271016 -1.383848 3.138205 0.3208103 -1.383848 3.184187 -1.005807 -1.383848 3.183535 -0.1194972 -1.383848 3.181993 -0.1045246 -1.383848 3.139305 0.3101225 -1.383848 -3.130064 -2.855607 -10.90885 3.183535 -3.217082 -10.90885 3.150295 -2.855607 -10.90885 -3.057418 -2.509645 -10.90885 -2.982233 -4.32982 -17.25885 3.07765 -2.509645 -10.90885 3.002464 -4.32982 -17.25885 3.026497 -6.482962 -23.60885 2.967863 -6.288609 -23.60885 -2.854898 -4.022957 -17.25885 -2.891899 -6.184758 -23.60885 2.916765 -6.183105 -23.60885 -2.786346 -5.939486 -23.60885 2.875132 -4.022957 -17.25885 2.714687 -3.72721 -17.25885 2.772606 -5.885464 -23.60885 -2.694454 -3.72721 -17.25885 -2.752098 -5.886174 -23.60885 -2.568125 -5.599802 -23.60885 2.749449 -5.837652 -23.60885 -3.164885 -0.8552847 1.791151 3.185116 -5.855286 6.791151 -3.164885 -5.855286 6.791151 3.185116 -0.8552847 1.791151 2.585224 -5.602262 -23.60885 2.521524 -3.446176 -17.25885 2.460936 -5.424113 -23.60885 -2.501293 -3.446176 -17.25885 -2.518103 -5.521935 -23.60885 -2.275658 -3.183506 -17.25885 -2.345964 -5.330612 -23.60885 2.36836 -5.329103 -23.60885 -2.168737 -5.13363 -23.60885 2.295889 -3.183506 -17.25885 2.116966 -5.071101 -23.60885 -2.094377 -5.074569 -23.60885 -1.938272 -0.8167858 -10.90885 -1.655069 -0.6180639 -10.90885 -1.805498 -4.845123 -23.60885 1.958504 -0.8167858 -10.90885 2.094797 -5.048348 -23.60885 1.824049 -4.847708 -23.60885 1.675301 -0.6180639 -10.90885 1.690531 -4.748764 -23.60885 -1.744089 -4.79635 -23.60885 -1.350479 -0.450469 -10.90885 -1.484091 -4.651363 -23.60885 1.503992 -4.652665 -23.60885 1.37071 -0.450469 -10.90885 1.228001 -4.510482 -23.60885 -1.316009 -4.557637 -23.60885 -1.027363 -0.3169432 -10.90885 -1.136698 -4.493018 -23.60885 1.158813 -4.488333 -23.60885 -0.8175507 -4.378007 -23.60885 1.047594 -0.3169432 -10.90885 0.7881146 -4.369671 -23.60885 -0.6896572 -0.2196683 -10.90885 -0.7685833 -4.369066 -23.60885 0.7098885 -0.2196683 -10.90885 0.7284222 -4.350563 -23.60885 -0.342207 -0.1601886 -10.90885 -0.3821907 -4.298528 -23.60885 0.4021607 -4.301625 -23.60885 -2.948971 -2.179461 -10.90885 2.827147 -1.865883 -10.90885 2.969202 -2.179461 -10.90885 0.3624382 -0.1601886 -10.90885 0.2214984 -4.274526 -23.60885 -0.2919598 -4.282056 -23.60885 0.01011657 -0.1400213 -10.90885 0.01026725 -4.277623 -23.60885 -2.806915 -1.865883 -10.90885 2.653406 -1.570583 -10.90885 -2.633175 -1.570583 -10.90885 2.44972 -1.295743 -10.90885 -2.429489 -1.295743 -10.90885 2.217524 -1.043649 -10.90885 -2.197292 -1.043649 -10.90885 -3.031815 -0.9115887 -6.146349 -2.951519 -0.6352692 -6.146349 -2.919142 -0.5690823 -6.146349 2.935083 -0.5704804 -6.146349 2.840475 -0.3413134 -6.146349 -2.763819 -0.2515564 -6.146349 -2.71163 -0.1448678 -6.146349 2.60371 0.04459476 -6.146349 2.785431 -0.2515936 -6.146349 -2.578276 0.04045391 -6.146349 -2.397057 0.2922907 -6.146349 2.571197 0.09758663 -6.146349 -3.164885 -0.02392864 1.791151 -2.37384 0.3152666 -6.146349 2.229546 0.4936543 -6.146349 2.387835 0.310154 -6.146349 -2.131968 0.5546236 -6.146349 -2.018278 0.6671295 -6.146349 1.894981 0.7738342 -6.146349 2.154663 0.5563641 -6.146349 3.185116 -0.02392864 1.791151 -3.106963 1.363857 1.791151 -3.068989 1.5864 1.791151 -3.011259 1.757869 1.791151 -19.03989 16.36971 1.791151 -3.164885 0.8122149 1.791151 -3.159441 0.932992 1.791151 -3.151889 1.100583 1.791151 3.039427 1.760605 1.791151 3.132242 1.36444 1.791151 3.147959 1.297354 1.791151 3.175896 0.9326019 1.791151 3.185116 0.8122149 1.791151 -1.873051 0.7707386 -6.146349 -1.614887 0.9549189 -6.146349 1.834768 0.8242598 -6.146349 -1.596613 0.9639626 -6.146349 1.611973 0.9559565 -6.146349 1.379629 1.093295 -6.146349 -1.294542 1.113464 -6.146349 -1.146568 1.1867 -6.146349 1.317171 1.117281 -6.146349 1.002472 1.238131 -6.146349 -0.9823132 1.236392 -6.146349 0.8880997 1.282053 -6.146349 -0.6595268 1.334047 -6.146349 -0.6480103 1.337531 -6.146349 0.6779652 1.324778 -6.146349 0.3772373 1.385921 -6.146349 -0.3255158 1.379614 -6.146349 -0.137268 1.404179 -6.146349 0.009805679 1.398959 -6.146349 0.3469334 1.386996 -6.146349 3.042841 0.691452 -1.383848 -3.022367 0.6913424 -1.383848 -2.989952 0.8140698 -1.383848 3.014561 0.8013706 -1.383848 3.037464 1.768977 1.791151 2.908335 1.041214 -1.383848 -2.890114 1.04215 -1.383848 -2.910088 2.058374 1.791151 2.896229 2.118649 1.791151 2.790451 1.307383 -1.383848 -2.78982 1.271273 -1.383848 -2.878349 2.119112 1.791151 -2.729097 1.365978 -1.383848 -2.707338 2.446376 1.791151 2.852497 2.226921 1.791151 2.750729 1.366753 -1.383848 -2.538797 1.662782 -1.383848 -2.680046 2.498608 1.791151 2.722807 2.443242 1.791151 2.596931 2.653203 1.791151 2.554659 1.659789 -1.383848 2.525606 2.738276 1.791151 2.486023 1.762372 -1.383848 -2.517227 1.696422 -1.383848 -2.501177 2.735545 1.791151 -2.31444 1.923345 -1.383848 -2.349155 2.93692 1.791151 2.333992 1.922279 -1.383848 2.303629 3.003042 1.791151 2.113476 2.154217 -1.383848 -2.176889 2.077266 -1.383848 -2.2815 3.00046 1.791151 -2.074623 2.159789 -1.383848 -2.035912 3.231111 1.791151 2.274757 3.037478 1.791151 2.099113 2.164985 -1.383848 -1.815235 2.369108 -1.383848 -1.962664 3.299902 1.791151 2.054781 3.229163 1.791151 1.904306 3.360283 1.791151 1.832487 2.364862 -1.383848 1.794117 3.429155 1.791151 1.691084 2.470867 -1.383848 -1.766512 2.408424 -1.383848 -1.771864 3.426493 1.791151 -1.534359 2.539626 -1.383848 -1.514397 3.597315 1.791151 1.555668 2.540844 -1.383848 -1.313942 2.664195 -1.383848 -1.500607 3.603415 1.791151 1.519136 3.601027 1.791151 1.470179 3.631627 1.791151 1.265413 2.690832 -1.383848 -1.24514 2.68932 -1.383848 -1.208147 3.732804 1.791151 -0.9401322 2.800699 -1.383848 -1.026211 3.813297 1.791151 1.228619 3.732838 1.791151 1.221079 2.713741 -1.383848 0.9966297 3.830038 1.791151 0.9596691 2.797526 -1.383848 0.9337311 3.845046 1.791151 0.7202034 2.874278 -1.383848 -0.8254376 2.842583 -1.383848 -0.9126968 3.842173 1.791151 -0.6280842 2.87964 -1.383848 -0.6084118 3.919575 1.791151 0.649456 2.884585 -1.383848 -0.3138237 2.938647 -1.383848 -0.513258 3.94378 1.791151 0.6283493 3.917914 1.791151 0.4922047 3.950402 1.791151 0.3304558 2.93106 -1.383848 0.320673 3.963501 1.791151 0.2049064 2.94935 -1.383848 -0.3113613 2.938698 -1.383848 -0.3002167 3.961462 1.791151 0.01032257 2.945335 -1.383848 0.01011657 3.987218 1.791151 3.218018 10.01972 -20.43385 -3.197786 16.36971 -20.43385 -3.197786 10.01972 -20.43385 -6.405689 16.36971 -14.8776 -6.405689 10.01972 -14.8776 -3.197786 10.01972 -9.32135 3.218018 10.01972 -9.32135 3.218018 16.36971 -20.43385 6.42592 10.01972 -14.8776 -3.197786 16.36971 -9.32135 6.42592 16.36971 -14.8776 3.218018 16.36971 -9.32135 11.38111 16.36971 -15.74588 11.54215 16.36971 -15.95278 11.73505 16.36971 -16.13036 -12.17442 16.36971 -16.37908 11.95455 16.36971 -16.27376 -12.42859 16.36971 -16.44345 12.19466 16.36971 -16.37908 -12.95118 16.36971 -16.44345 -12.68988 16.36971 -16.4651 12.71012 16.36971 -16.4651 12.44882 16.36971 -16.44345 -13.44545 16.36971 -16.27376 -13.20534 16.36971 -16.37908 12.97141 16.36971 -16.44345 13.22558 16.36971 -16.37908 11.12804 16.36971 -15.00869 11.17119 16.36971 -15.26731 11.25632 16.36971 -15.51529 -13.85785 16.36971 -15.95278 -13.66495 16.36971 -16.13036 13.68518 16.36971 -16.13036 13.46568 16.36971 -16.27376 -14.14367 16.36971 -15.51529 -14.01889 16.36971 -15.74588 13.87808 16.36971 -15.95278 14.03912 16.36971 -15.74588 -14.27196 16.36971 -15.00869 -14.22881 16.36971 -15.26731 14.1639 16.36971 -15.51529 14.24904 16.36971 -15.26731 -12.42859 19.54472 -16.44345 -12.68988 19.54472 -16.4651 12.97141 19.54472 -16.44345 12.71012 19.54472 -16.4651 -12.95118 19.54472 -16.44345 -12.17442 19.54472 -16.37908 12.44882 19.54472 -16.44345 13.22558 19.54472 -16.37908 -13.20534 19.54472 -16.37908 -11.93432 19.54472 -16.27376 -11.93432 16.36971 -16.27376 12.19466 19.54472 -16.37908 13.46568 19.54472 -16.27376 -13.44545 19.54472 -16.27376 -11.71482 19.54472 -16.13036 -11.71482 16.36971 -16.13036 11.95455 19.54472 -16.27376 13.68518 19.54472 -16.13036 -13.66495 19.54472 -16.13036 -11.52192 19.54472 -15.95278 -11.52192 16.36971 -15.95278 11.73505 19.54472 -16.13036 13.87808 19.54472 -15.95278 -13.85785 19.54472 -15.95278 -11.36088 19.54472 -15.74588 -11.36088 16.36971 -15.74588 11.54215 19.54472 -15.95278 14.03912 19.54472 -15.74588 -14.01889 19.54472 -15.74588 -11.23609 19.54472 -15.51529 -11.23609 16.36971 -15.51529 11.38111 19.54472 -15.74588 14.1639 19.54472 -15.51529 -14.14367 19.54472 -15.51529 -11.15096 19.54472 -15.26731 -11.15096 16.36971 -15.26731 11.25632 19.54472 -15.51529 14.24904 19.54472 -15.26731 -14.22881 19.54472 -15.26731 -11.10781 19.54472 -15.00869 -11.10781 16.36971 -15.00869 11.17119 19.54472 -15.26731 14.29219 19.54472 -15.00869 14.29219 16.36971 -15.00869 -14.27196 16.36971 -14.7465 -14.27196 19.54472 -15.00869 -11.10781 19.54472 -14.7465 -11.10781 16.36971 -14.7465 11.12804 16.36971 -14.7465 11.12804 19.54472 -15.00869 14.29219 19.54472 -14.7465 14.29219 16.36971 -14.7465 11.17119 16.36971 -14.48789 -14.22881 16.36971 -14.48789 -14.27196 19.54472 -14.7465 -11.15096 19.54472 -14.48789 -11.15096 16.36971 -14.48789 11.12804 19.54472 -14.7465 14.24904 19.54472 -14.48789 14.24904 16.36971 -14.48789 -14.14367 16.36971 -14.23991 -14.22881 19.54472 -14.48789 -11.23609 19.54472 -14.23991 -11.23609 16.36971 -14.23991 11.25632 16.36971 -14.23991 11.17119 19.54472 -14.48789 14.1639 19.54472 -14.23991 14.1639 16.36971 -14.23991 -14.01889 16.36971 -14.00932 -14.14367 19.54472 -14.23991 -11.36088 19.54472 -14.00932 -11.36088 16.36971 -14.00932 11.38111 16.36971 -14.00932 11.25632 19.54472 -14.23991 14.03912 19.54472 -14.00932 14.03912 16.36971 -14.00932 -13.85785 16.36971 -13.80241 -14.01889 19.54472 -14.00932 -11.52192 19.54472 -13.80241 -11.52192 16.36971 -13.80241 11.54215 16.36971 -13.80241 11.38111 19.54472 -14.00932 13.87808 19.54472 -13.80241 13.87808 16.36971 -13.80241 -13.66495 16.36971 -13.62484 -13.85785 19.54472 -13.80241 -11.71482 19.54472 -13.62484 -11.71482 16.36971 -13.62484 11.73505 16.36971 -13.62484 11.54215 19.54472 -13.80241 13.68518 19.54472 -13.62484 13.68518 16.36971 -13.62484 -13.44545 16.36971 -13.48143 -13.66495 19.54472 -13.62484 -11.93432 19.54472 -13.48143 -11.93432 16.36971 -13.48143 11.95455 16.36971 -13.48143 11.73505 19.54472 -13.62484 13.46568 19.54472 -13.48143 13.46568 16.36971 -13.48143 -13.20534 16.36971 -13.37611 -13.44545 19.54472 -13.48143 -12.17442 19.54472 -13.37611 -12.17442 16.36971 -13.37611 12.19466 16.36971 -13.37611 11.95455 19.54472 -13.48143 13.22558 19.54472 -13.37611 13.22558 16.36971 -13.37611 -12.95118 16.36971 -13.31175 -13.20534 19.54472 -13.37611 -12.42859 19.54472 -13.31175 -12.42859 16.36971 -13.31175 12.44882 16.36971 -13.31175 12.19466 19.54472 -13.37611 12.97141 19.54472 -13.31175 12.97141 16.36971 -13.31175 -12.68988 16.36971 -13.2901 -12.95118 19.54472 -13.31175 -12.68988 19.54472 -13.2901 12.71012 16.36971 -13.2901 12.44882 19.54472 -13.31175 12.71012 19.54472 -13.2901</float_array>
          <technique_common>
            <accessor source="#myntai_mount-mesh-positions-array" count="810" stride="3">
              <param name="X" type="float"/>
              <param name="Y" type="float"/>
              <param name="Z" type="float"/>
            </accessor>
          </technique_common>
        </source>
        <source id="myntai_mount-mesh-normals">
          <float_array id="myntai_mount-mesh-normals-array" count="3243">0 -1 0 0 -1 1.48272e-7 0 0 -1 5.08568e-7 0 -1 -1.93855e-4 0 -1 -0.07845932 0 -0.9969174 1 0 0 -1 0 0 -1.39303e-6 0 -1 6.55533e-5 0 -1 -4.72099e-5 0 -1 -5.50433e-4 0 -0.9999999 0.07845932 0 -0.9969174 0.07845705 0 -0.9969176 0 -1 -1.42828e-7 -0.2334465 0 -0.9723697 -0.07845705 0 -0.9969176 0 -1 2.85655e-7 0.2334463 0 -0.9723697 0 -1 -1.3795e-7 -0.3826822 0 -0.9238802 0 -1 -5.51801e-7 0.3826824 0 -0.9238801 0.3826843 0 -0.9238792 0 -1 5.34695e-7 -0.5224985 0 -0.8526403 -0.3826841 0 -0.9238793 0.5224989 0 -0.85264 0 -1 -6.50072e-7 -0.6494483 0 -0.7604059 -0.5224985 0 -0.8526402 0 -1 -5.20057e-7 0.6494477 0 -0.7604063 0 -1 2.53952e-7 -0.7604065 0 -0.6494475 -0.6494482 0 -0.7604058 0.7604069 0 -0.6494469 0.7604056 0 -0.6494486 0 -1 -2.49113e-7 -0.8526409 0 -0.5224974 -0.7604051 0 -0.6494491 0.8526405 0 -0.5224981 0.8526399 0 -0.5224991 0 -1 0 -0.9238798 0 -0.3826831 -0.8526404 0 -0.5224984 0.9238797 0 -0.382683 0.9238796 0 -0.3826835 0 -1 6.68524e-7 -0.9723699 0 -0.2334458 -0.9238796 0 -0.3826835 0 -1 9.72398e-7 0.9723699 0 -0.2334458 0 -1 -2.11665e-7 -0.9969174 0 -0.07845944 0.9969173 0 -0.07846039 0.9969173 0 -0.07846027 -0.9969174 0 -0.07845938 1 9.05148e-7 -1.13959e-6 1 -9.46047e-7 0 -1 6.30698e-7 -4.00493e-7 -1 -5.67628e-7 0 -0.8073111 0 0.5901263 1 -7.56837e-7 0 1 0 9.0111e-7 0 -1 5.13834e-7 0 -1 0 0 -1 3.83374e-7 -1 0 6.0074e-7 0 -1 3.83375e-7 0 -1 0 0.7306577 0.00312519 0.6827368 0.7030366 0 0.7111538 0.829276 0.003564894 0.558828 0.8064879 0 0.5912506 0.7571389 0 0.6532541 -0.807311 0 0.5901262 -0.8709251 0 0.4914159 0.9070939 0.004226863 0.4209072 0.889712 0 0.4565222 0.8507722 0 0.5255349 -0.8709251 0 0.4914157 -0.9225305 0 0.3859242 0 -1 -2.11703e-6 0.9621611 0.005282342 0.2724302 0.9506253 0 0.3103414 0.9230676 0 0.3846378 -0.957685 0 0.2878186 -0.9225305 0 0.3859243 0 -1 1.49675e-6 0.957685 0 0.2878186 0.957685 0 0.2878186 0.9722128 0 0.2340989 -0.9814575 0 0.1916801 -0.957685 0 0.2878186 0.9814577 0 0.1916792 -0.9940475 0 0.1089487 0.9940474 0 0.1089495 0.9940474 0 0.1089494 0 -1 -5.46967e-7 0 -1 2.94902e-7 -0.9992122 0 0.03968983 -0.9940475 0 0.1089486 0 -1 -1.88438e-6 0.9992122 0 0.03968983 0 -1 0 -0.9999543 0 -0.009566426 0 -1 -7.72792e-7 0 -1 -2.21054e-6 0 -1 2.08499e-6 0.9999543 0 -0.009567022 0.9999542 0 -0.009567081 0 0 1 0.1690049 0 0.9856153 -0.1689996 0 0.9856162 -0.1690049 0 0.9856153 0.1689996 0 0.9856162 0.3331407 0 0.9428772 -0.3331359 0 0.9428789 -0.3331408 0 0.9428772 0.333136 0 0.9428789 0.4876978 0 0.8730127 -0.4876936 0 0.8730149 -0.4876978 0 0.8730125 0 -1 0 -0.9997473 0 -0.02248191 -0.9999544 0 -0.009566426 0 -1 4.94805e-7 0.9997473 0 -0.0224815 0.4876937 0 0.8730148 0.6282253 0 0.7780315 -0.6282221 0 0.7780342 -0.6282253 0 0.7780315 0.6282221 0 0.7780342 0.7506673 0 0.6606805 -0.7506697 0 0.6606779 -0.7506673 0 0.6606804 0.7506697 0 0.6606777 0.8515309 0 0.5243043 -0.8515288 0 0.524308 -0.8515303 0 0.5243055 0.8515295 0 0.5243068 0.9278894 0 0.3728556 -0.92789 0 0.3728541 -0.92789 0 0.3728542 0.9775552 0 0.2106799 -0.9775548 0 0.2106814 -0.9775548 0 0.2106814 0.9775552 0 0.2106798 0.999099 0 0.0424413 -0.9990991 0 0.04243993 -0.9990991 0 0.04243969 0.999099 0 0.04244154 0.9919004 0 -0.1270179 -0.9919004 0 -0.1270186 -0.9919004 0 -0.1270179 0.9919004 0 -0.1270186 0.9561672 0 -0.2928215 0 -1 -1.59287e-6 -0.9561668 0 -0.292823 -0.9561666 0 -0.292823 0.8929249 0 -0.4502058 0 -1 -3.17702e-7 -0.8929266 0 -0.4502024 -0.8929255 0 -0.4502044 0.8929259 0 -0.4502035 0.8039967 0 -0.5946337 0 -1 -5.83876e-7 -0.8039948 0 -0.5946363 -0.8039969 0 -0.5946336 0 -1 -4.26734e-7 -0.9997534 0 0.02220749 -0.9997473 0 -0.02248191 0 -1 -8.61984e-7 0.9997534 0 0.02220749 0.9997534 0 0.02220743 0.8039949 0 -0.5946362 0.6919428 0 -0.7219524 0 -1 2.91723e-7 -0.69194 0 -0.7219551 -0.6919428 0 -0.7219524 0.69194 0 -0.7219551 0.5599771 0 -0.8285081 0 -1 -2.42383e-7 -0.5599734 0 -0.8285107 -0.5599768 0 -0.8285083 0 -1 0 0.5599731 0 -0.8285108 0.411897 0 -0.9112305 0 -1 2.15406e-7 -0.411897 0 -0.9112305 0 -1 0 0.2519793 0 -0.9677326 0 -1 2.07863e-7 -0.2519793 0 -0.9677326 0 -1 0 0.08481001 0 -0.9963972 -0.08481025 0 -0.9963971 -0.08481025 0 -0.9963971 0.08481001 0 -0.9963971 0 -1 3.06497e-7 -0.9958707 0 0.09078365 -0.9997534 0 0.02220743 0 -1 3.52875e-6 0 -1 -6.32844e-7 0.9958707 0 0.09078276 0.9958708 0 0.09078234 0 -1 -3.2679e-7 -0.9852028 0 0.1713927 -0.9958707 0 0.09078323 0 -1 7.4695e-7 0.9852026 0 0.1713941 0.9852026 0 0.1713942 -0.9645169 0 0.2640212 -0.9852029 0 0.1713927 0 -1 -2.11887e-6 0 -1 8.92283e-7 0.9645172 0 0.2640202 0.9645167 0 0.2640221 0 -1 0 -0.9312727 0 0.3643229 -0.9645165 0 0.264023 0.9312722 0 0.3643243 -0.1690049 0 0.9856153 0.1690049 0 0.9856153 -0.3331503 0 0.9428738 0.3331504 0 0.9428737 0.4876854 0 0.8730195 -0.4876856 0 0.8730194 0 -1 1.38491e-7 -0.8841111 0 0.4672769 -0.9312727 0 0.364323 0.8841118 0 0.4672756 0.884111 0 0.4672771 0.7506768 0 0.6606698 -0.7506721 0 0.6606752 -0.7506768 0 0.6606697 0.7506721 0 0.6606751 0.851528 0 0.5243092 -0.8515273 0 0.5243104 -0.8515273 0 0.5243104 -0.8226376 0 0.5685662 -0.8841103 0 0.4672785 0.8226373 0 0.5685666 0.8226384 0 0.568565 0.9775553 0 0.2106788 -0.9775546 0 0.2106825 -0.9775551 0 0.2106803 0.977555 0 0.2106809 0.999099 0 0.04244107 -0.999099 0 0.04243946 0 -1 -3.71157e-6 0 -1 7.58795e-7 -0.9919006 0 -0.1270166 -0.7494631 0 0.6620462 -0.8226388 0 0.5685645 0 -1 -1.46523e-6 0.7494631 0 0.6620462 0.9919006 0 -0.1270166 0.9561659 0 -0.2928261 0 -1 -1.76243e-7 -0.9561654 0 -0.2928275 -0.9561654 0 -0.2928276 0 -1 -7.84103e-7 0.8929259 0 -0.4502037 0 -1 9.77432e-7 0 -1 7.93945e-7 -0.8929288 0 -0.4501981 -0.8929266 0 -0.4502023 -0.6691348 0 0.7431411 0.6691348 0 0.7431411 0.6691366 0 0.7431395 0 -1 1.6783e-6 0.8929282 0 -0.4501993 0 -1 -5.06721e-7 -0.8040006 0 -0.5946286 0.8040007 0 -0.5946285 0.6919344 0 -0.7219604 0 -1 4.07932e-7 0 -1 4.1912e-7 -0.6919344 0 -0.7219604 0 -1 -4.6992e-7 0.5599808 0 -0.8285056 0 -1 -2.09513e-6 -0.5599808 0 -0.8285056 -0.5599805 0 -0.8285058 -0.5852245 0 0.8108714 -0.6691366 0 0.7431395 0.5852243 0 0.8108714 0.5852245 0 0.8108714 0.5599805 0 -0.8285058 0.411888 0 -0.9112345 0 -1 2.05051e-7 -0.411888 0 -0.9112345 0.2519894 0 -0.96773 0 -1 9.24673e-7 -0.2519894 0 -0.96773 -0.5017566 0 0.8650089 -0.5852243 0 0.8108714 0.5017567 0 0.8650088 0.5017566 0 0.8650089 -0.4219228 0 0.9066318 -0.5017567 0 0.8650088 0.4219228 0 0.9066319 0.4219208 0 0.9066327 -0.3484188 0 0.937339 -0.4219207 0 0.9066327 0.348419 0 0.9373389 0.3484191 0 0.937339 0.9999976 -0.002153098 5.91924e-4 0.9963245 -0.08131533 0.02693247 -0.999567 -0.02837121 0.007800638 0 0 1 2.41027e-7 0 1 1.88142e-6 0 1 -6.74468e-6 0 1 0 1 0 0 1 1.01664e-5 0 1 -2.03923e-5 0.07846117 0 0.9969173 -5.40132e-7 0 1 0 0 1 0 1 6.31728e-6 0 1 2.45599e-5 -0.07846117 0 0.9969173 -0.07845604 0 0.9969177 0.2334449 0 0.9723701 0.07845604 0 0.9969176 -0.233444 0 0.9723703 -0.2334489 0 0.9723691 0.3826819 0 0.9238802 0.2334498 0 0.972369 -0.3826832 0 0.9238796 -0.3826832 0 0.9238797 0.5224942 0 0.8526429 0.3826819 0 0.9238803 -0.5224959 0 0.8526418 -0.5224997 0 0.8526396 0.649449 0 0.7604053 0.522498 0 0.8526406 -0.649449 0 0.7604052 -0.6494519 0 0.7604027 0.7604055 0 0.6494487 0.649452 0 0.7604027 -0.7604074 0 0.6494465 -0.7604073 0 0.6494465 0.8526411 0 0.5224971 -0.8526343 0 0.5225083 -0.8526343 0 0.5225082 0.9238789 0 0.382685 -0.9238802 0 0.3826817 0.9723701 0 0.2334448 -0.9723719 0 0.2334375 -0.9723718 0 0.2334381 0.9969171 0 0.07846248 0.9723699 0 0.2334454 -0.9969168 0 0.07846623 -0.9969168 0 0.07846647 0.9969171 0 0.07846266 0.9969172 0 -0.07846206 0 1 1.80515e-6 -0.9969169 0 -0.07846587 -0.9969169 0 -0.07846564 0.9723696 0 -0.2334471 0.9969172 0 -0.07846182 0 1 -4.14578e-6 -0.9723712 0 -0.2334399 -0.9723714 0 -0.2334393 0 1 -2.45604e-5 0.9238788 0 -0.3826855 0.9723697 0 -0.2334465 0 1 -4.90763e-7 -0.9238801 0 -0.3826822 -0.9238802 0 -0.3826817 0.8526415 0 -0.5224966 0.9238789 0 -0.382685 0 1 2.54166e-6 -0.8526346 0 -0.5225077 -0.8526343 0 -0.5225082 0.7604055 0 -0.6494487 0.8526411 0 -0.5224971 0 1 -5.09819e-6 -0.7604074 0 -0.6494465 -0.7604079 0 -0.6494458 0.6494505 0 -0.760404 0.760406 0 -0.6494481 -0.6494505 0 -0.7604039 -0.6494505 0 -0.760404 0.5224952 0 -0.8526423 0.6494505 0 -0.7604039 0 1 8.25471e-6 -0.5224968 0 -0.8526412 -0.5224978 0 -0.8526407 0.3826895 0 -0.923877 0.5224961 0 -0.8526417 0 1 2.45568e-5 -0.382691 0 -0.9238765 -0.3826909 0 -0.9238765 0.2334389 0 -0.9723715 0.3826895 0 -0.923877 -0.233438 0 -0.9723717 0.07846498 0 -0.9969169 -0.07846498 0 -0.9969169 -0.07846623 0 -0.9969168 -4.16986e-6 0 -1 3.25076e-7 0 -1 0 0 -1 0 0 -1 0.07846629 0 -0.9969168 1 6.69982e-7 5.02261e-7 -1 3.48473e-7 4.1634e-7 0 0 -1 0.9953424 -0.09152704 0.03026914 0.9963316 -0.08132439 0.02664208 -0.9995537 -0.02838611 0.009320437 -0.9999974 -0.002153098 7.47789e-4 -0.989977 -0.1344872 0.04311478 -0.9953485 -0.09152758 0.0300675 -0.9899245 -0.1344726 0.04434746 0.9963321 -0.08131974 0.02664023 0.9765041 -0.2050476 0.066298 0.9681286 -0.2380566 0.0778222 0.9682685 -0.2380899 0.0759567 0.9578787 -0.2728531 0.0895524 -0.976516 -0.2050484 0.06611889 -0.9900185 -0.1344311 0.04232776 -0.9537349 -0.2858303 0.09322351 -0.9531506 -0.2875545 0.09389555 4.15834e-5 0 -1 -0.9531515 -0.2875514 0.09389549 0.9164648 -0.3802928 0.1243765 0.9688053 -0.2382826 0.06810122 0.9109786 -0.3920376 0.1281582 1.63295e-5 0 -1 -0.8913822 -0.431724 0.1380301 0.9109773 -0.3920409 0.1281583 -2.68984e-5 0 -1 -0.9165836 -0.3803335 0.1233731 -0.8684186 -0.4711225 0.1545729 -0.8913076 -0.4316965 0.1385962 0.8688184 -0.4713394 0.151637 0.8285961 -0.5322982 0.1734573 2.87551e-5 0 -1 0.8285899 -0.5323069 0.17346 2.97911e-6 0 -1 -0.8913129 -0.4316871 0.1385922 1.77715e-4 0 -1 0 0.7071072 0.7071064 0 1 0 0 1 -7.48373e-7 0 0.7071067 0.7071069 0 1 -2.96523e-7 0 1 3.18384e-7 0 0.7071067 0.7071068 2.66715e-7 0.7071071 0.7071065 0 1 1.5292e-6 0 1 6.05241e-7 0 1 5.72848e-6 0 1 2.38198e-6 0 1 -5.52166e-7 0 1 4.43494e-7 0 1 0 0 1 -3.02178e-7 0 1 -5.8111e-7 0 1 2.81567e-7 0 1 -3.04273e-7 0 1 3.42163e-7 0 1 6.19502e-7 0 1 2.70386e-6 0 1 -1.27043e-7 0 1 1.59082e-6 0 1 -2.11863e-7 0 1 2.91125e-7 0 1 -5.64986e-7 0 1 1.17035e-6 0 1 2.73486e-7 0 1 -6.04404e-7 0 1 -2.95307e-7 0 1 2.99683e-7 0 1 5.09367e-7 0 1 -7.81674e-7 0 1 5.88454e-7 0 1 5.3637e-7 0 1 -2.1008e-7 0 1 0 0 1 2.5202e-7 0 1 -4.84718e-7 0 1 2.2999e-7 0 1 1.33833e-6 0 1 -1.61324e-6 0 1 -9.27891e-7 0 1 -1.85578e-6 0 1 6.92582e-7 0 1 0 0 1 -1.60578e-6 0 1 7.93945e-7 0 1 1.3431e-6 0 1 -3.37814e-7 0 1 2.0956e-7 0 1 -6.28539e-7 0 1 2.3496e-7 0 1 -4.52806e-7 0 1 0 0 1 -4.52806e-7 -0.8063471 -0.5625635 0.1825561 -2.71454e-5 0 -1 -0.810492 -0.5570768 0.1810199 -0.8062944 -0.5625237 0.1829116 -3.58676e-5 0 -1 0.810586 -0.5571339 0.1804226 0.8288288 -0.5324535 0.1718605 -1.52365e-5 0 -1 0.7422155 -0.637569 0.206451 0.7263513 -0.6535103 0.2129276 -1.1869e-5 0 -1 -0.6988763 -0.680961 0.2187788 0.7263516 -0.65351 0.2129269 2.49092e-5 0 -1 -0.6983547 -0.6804687 0.2219528 -0.7421379 -0.6375022 0.2069354 2.65917e-7 0.7071071 0.7071065 0.6032454 -0.7595054 0.2434062 -4.9613e-5 0 -1 0.6574068 -0.7168517 0.2322499 0.5549009 -0.7908005 0.2583019 0.6029168 -0.7590882 0.2455131 1.99543e-6 0 -1 -0.6987839 -0.6808682 0.2193621 -0.661875 -0.713242 0.2306673 -0.5760488 -0.7773348 0.252821 9.17174e-6 0 -1 -0.5761487 -0.7774682 0.2521826 -0.5551055 -0.791092 0.2569659 -1.85985e-5 0 -1 0.6028993 -0.7591008 0.2455167 5.06894e-5 0 -1 0.4636283 -0.8426094 0.2739679 0.4685355 -0.8402076 0.2729936 -1.77767e-5 0 -1 -0.4400112 -0.8541131 0.2772744 -0.4636318 -0.8426164 0.2739405 -0.4399278 -0.8539409 0.2779363 9.40094e-6 0 -1 0.4685282 -0.8402112 0.2729951 1.62597e-5 0 -1 0.3658179 -0.8852393 0.2872783 0.3241527 -0.8994917 0.2929844 -3.91794e-6 0 -1 -0.2913944 -0.91022 0.2942601 -3.91674e-5 0 -1 0.3241516 -0.899492 0.2929847 8.41087e-6 0 -1 -0.291182 -0.9096489 0.2962296 -0.3657884 -0.885168 0.2875352 -2.6791e-7 0.7071063 0.7071074 0.26424 -0.9173588 0.2977083 0.1710683 -0.9368529 0.3050286 -3.75141e-5 0 -1 -0.291279 -0.9098489 0.2955191 -0.264206 -0.917241 0.2981011 4.53978e-5 0 -1 0.1606593 -0.9384977 0.3056315 0.1710457 -0.936942 0.3047673 2.60929e-6 0 -1 -0.1412168 -0.9414901 0.3060297 -8.67491e-6 0 -1 0.9452872 -0.310475 0.1001871 0.9165105 -0.3803103 0.1239871 -0.9167066 -0.3803873 0.1222889 -0.9027065 -0.4089389 0.133754 -0.9452866 -0.3104766 0.100188 -0.1606639 -0.9385242 0.3055478 -0.1412039 -0.9413313 0.306524 1.56662e-5 0 -1 0.1710331 -0.9369441 0.3047679 -4.68508e-5 0 -1 0.05436295 -0.9496883 0.3084427 0.01394259 -0.9507191 0.3097401 1.40778e-5 0 -1 -0.05434387 -0.9494067 0.3093117 0.01394915 -0.9512764 0.3080241 -4.19061e-6 0 -1 0 0.7071065 0.7071072 0.902906 -0.4090284 0.1321232 0.8685657 -0.4712014 0.1535022 -0.8688125 -0.4713323 0.1516927 -0.8502895 -0.5002707 0.1635147 1 -5.17039e-4 5.24655e-6 0.9999999 -5.17529e-4 5.56578e-6 0.9999974 -0.002153098 7.84437e-4 -0.9999973 -0.002153038 9.25634e-4 4.09213e-7 0.7071078 0.7071059 0.8505406 -0.5004184 0.161747 0.810443 -0.5570367 0.181363 -0.8107169 -0.5572288 0.1795387 -0.7886432 -0.5844683 0.1908894 0.7889247 -0.5846765 0.1890803 0.7420509 -0.6374284 0.2074745 -0.7423319 -0.6376685 0.2057239 -0.7181912 -0.6615055 0.215898 0.9931064 -0.1115464 0.03601491 0.9953661 -0.09152877 0.02947735 -0.9980633 -0.05988478 0.01684153 -0.9980633 -0.05988299 0.01684129 -0.9953613 -0.09152841 0.02964234 0.7184773 -0.6617666 0.214139 0.6398858 -0.7305882 0.2383005 -0.6398867 -0.7305874 0.2383002 0 0.7071065 0.7071071 0.993157 -0.111577 0.03449183 0.9764088 -0.2050289 0.06774342 0.9931565 -0.1115812 0.03449344 -0.9766077 -0.2050692 0.06468439 -0.9700496 -0.2309181 0.07537072 -0.9700586 -0.2308837 0.07535988 0.9565424 -0.2779575 0.08812588 0.9565416 -0.2779601 0.08812743 0.9451934 -0.3104438 0.1011639 -0.945106 -0.3104173 0.1020585 -0.9701975 -0.2309315 0.07340008 1.46361e-7 0.7071068 0.7071068 0 0.7071066 0.707107 -0.9999998 -7.34063e-4 3.27366e-4 0.8892401 -0.4349993 0.1415189 0.9028426 -0.4089999 0.1326435 -0.9174954 -0.3787696 0.121392 -0.9174939 -0.3787727 0.1213933 -0.9027447 -0.4089565 0.1334412 0 0.7071063 0.7071074 0.8895104 -0.4351178 0.139441 0.889508 -0.4351224 0.139442 0.8502542 -0.5002494 0.1637628 -0.8506653 -0.5004916 0.1608627 -0.840343 -0.5155613 0.167393 -0.8403362 -0.5155712 0.1673967 0.797688 -0.5740018 0.1849755 0.7976849 -0.5740056 0.1849767 0.7888491 -0.5846208 0.1895672 -0.8405134 -0.515694 0.1661235 -0.7886105 -0.5844432 0.1911014 0.9999998 -5.68712e-4 2.70514e-4 0 0.7071061 0.7071075 0.6851874 -0.6923535 0.2261965 0.7182714 -0.6615808 0.2153996 -0.7182771 -0.6615849 0.2153683 -0.7409822 -0.6391796 0.2059003 -0.7409834 -0.6391783 0.2058999 0.6856688 -0.6928748 0.2231206 0.6856641 -0.6928791 0.2231217 0.6398738 -0.7305717 0.2383832 -0.640316 -0.731077 0.2356308 -0.6230052 -0.7439361 0.2417099 -0.6230071 -0.7439346 0.2417096 0.9999998 -5.68544e-4 2.70487e-4 -1 0 2.9256e-4 -0.9999996 -7.3609e-4 5.20167e-4 2.49881e-7 0 1 0 0 1 0 0 1 0.5616178 -0.7872132 0.2547175 0.5616179 -0.7872132 0.2547171 0.5551558 -0.7911668 0.2566266 -0.5549329 -0.7908472 0.2580896 -0.6232383 -0.7442151 0.2402454 3.86671e-7 0 1 0.4257253 -0.8602645 0.2805406 0.4635981 -0.842553 0.2741922 -0.4902971 -0.8294516 0.2676168 -0.4902918 -0.8294545 0.2676177 -0.4636256 -0.8426013 0.2739976 2.96155e-6 0 1 -2.4463e-6 0 1 0.4261205 -0.8609811 0.2777284 0.3656746 -0.8848896 0.2885351 0.4261178 -0.8609822 0.2777287 -0.3430697 -0.8933503 0.2902216 -0.3430651 -0.8933517 0.2902225 -0.3659971 -0.8856678 0.2857249 -1.19837e-5 0 1 0.2766283 -0.9143784 0.2956164 0.2643198 -0.9176319 0.2967942 -0.3432413 -0.8938098 0.2885991 -0.2641279 -0.9169635 0.2990223 -1.34029e-6 0 1 0.2765577 -0.9141223 0.2964732 0.2765045 -0.9141368 0.2964779 0.1606701 -0.9385476 0.3054729 -0.1899607 -0.9342842 0.3017085 -0.1899554 -0.9342851 0.3017089 -0.1606827 -0.9386284 0.3052178 0.1232327 -0.9443772 0.3049023 0.1232329 -0.9443773 0.3049024 0.05434113 -0.9493458 0.3094989 -0.05438762 -0.9501442 0.3070313 -0.03372997 -0.950562 0.3086976 -0.03374284 -0.9505617 0.3086973 1 0 2.48106e-4 0.994293 -0.1020394 0.03113496 -0.03375118 -0.95101 0.3073124 -1 0 4.98013e-4 -0.9942785 -0.102365 0.03052741 0.9941189 -0.1020197 0.03632557 0.9988784 -0.04501843 0.01467502 0.9988787 -0.0450145 0.01467227 -0.9968158 -0.07634371 0.02302342 -0.9968155 -0.07634735 0.02302479 -0.994149 -0.1023492 0.03453379 2.58387e-6 0 1 2.6583e-5 0 1 -7.42676e-7 0 1 0.9943068 -0.1020299 0.03072452 0.9843842 -0.1679776 0.05264419 -0.9710133 -0.2274831 0.07337993 -0.9942376 -0.1023793 0.03178477 -1.4676e-6 0 1 -2.26649e-6 0 1 -0.9653672 -0.2483815 0.079831 6.77123e-7 0 -1 0.9632728 -0.2544252 0.08586919 0.9844257 -0.1679818 0.05184876 -1.0026e-6 0 -1 6.75912e-7 0 1 -1.41751e-7 0 1 0.9635785 -0.2545047 0.08212059 0.9426566 -0.3173726 0.1033114 0 0 -1 -0.9708532 -0.2274564 0.07554984 -0.9651519 -0.2483193 0.08258092 -5.11981e-6 0 1 -0.9707648 -0.2275645 0.07635653 -0.9067054 -0.4015768 0.1289246 0.9079493 -0.3974422 0.1329209 0.9429136 -0.3174506 0.1006932 0 0 -1 7.7241e-7 0 1 0 0 1 -0.9202245 -0.3716863 0.122623 -0.9062458 -0.4013684 0.1327486 7.92288e-7 0 -1 0.908129 -0.3975132 0.1314727 0.8759896 -0.4577462 0.152022 1.43752e-7 0 -1 7.81764e-6 0 1 4.75602e-6 0 1 -2.24998e-6 0 1 -2.4678e-6 0 1 1.57353e-6 0 1 0.8288118 -0.5314075 0.1751492 0.8766914 -0.4581143 0.1467778 -4.01379e-7 0 -1 1.81704e-6 0 1 -0.9198817 -0.3715468 0.1255823 -0.8183687 -0.5475378 0.1745709 -1.73744e-6 0 1 6.91659e-5 0 1 -2.81458e-6 0 1 0.8285773 -0.5312547 0.1767156 0.876299 -0.4578847 0.149805 4.17428e-7 0 -1 -0.8459847 -0.5071901 0.164524 -0.8459879 -0.5071852 0.1645224 -0.8172401 -0.5468137 0.1819711 4.82176e-6 0 1 1.18702e-5 0 1 1.53384e-6 0 1 -5.84025e-6 0 1 -0.7497669 -0.6286015 0.2066635 -0.8177954 -0.5471669 0.1783796 0.8295679 -0.5319326 0.1698967 0.7834857 -0.5914698 0.1905615 3.76636e-7 0 -1 0.7280993 -0.650658 0.2156749 0.7836279 -0.5915741 0.1896507 -3.90734e-7 0 -1 -1.73978e-5 0 1 -0.7076809 -0.6728238 0.2156295 0 0 1 -0.7497469 -0.6285812 0.2067977 -0.7066513 -0.6718533 0.2219398 0.7284876 -0.6510077 0.2132955 0.6656537 -0.7087751 0.2335449 -1.63472e-7 0 -1 0.6085219 -0.7541058 0.2470339 0.6665103 -0.7096744 0.2283122 6.60201e-7 0 -1 7.65983e-7 0 1 -0.7487744 -0.6277775 0.212679 -0.5815297 -0.7756555 0.2453195 0.6081881 -0.7536662 0.249188 0.6660401 -0.7091883 0.2311764 -2.1014e-7 0 -1 -0.6383067 -0.7325169 0.2366085 -0.6383009 -0.7325215 0.2366099 -0.5798926 -0.7735463 0.2556382 -3.57167e-7 0 1 -0.5106757 -0.8170335 0.2677063 -0.5803897 -0.7742019 0.2525061 0.6091411 -0.7548894 0.2430828 0.5337507 -0.8044772 0.2606279 2.39641e-6 0 -1 0.4729319 -0.8368221 0.2757974 0.5339943 -0.8048488 0.2589761 -3.60121e-7 0 -1 0 0 1 -3.09368e-6 0 1 -0.4417296 -0.8548142 0.2723379 0.4729896 -0.8369253 0.2753854 0.3872804 -0.8754317 0.2891946 0 0 -1 -0.5107761 -0.817202 0.2669997 -0.5107807 -0.8171995 0.2669985 -0.4405727 -0.8525891 0.2810474 6.4528e-7 0 -1 1.14001e-6 0 1 0.3281217 -0.8985383 0.2914879 0.3881281 -0.8772926 0.2823371 7.81081e-7 0 -1 0.3277368 -0.8974921 0.2951213 0.3879731 -0.8769257 0.2836872 1.27176e-7 0 -1 -0.3703222 -0.8838503 0.28578 -0.4413429 -0.8540992 0.2751926 -4.22461e-6 0 -1 -0.3704495 -0.8841546 0.2846714 -0.2912637 -0.9087439 0.2989149 0 0 1 -0.2211111 -0.9266802 0.3039308 -0.2913917 -0.9091438 0.2975709 0.3280825 -0.8984284 0.2918704 0.2350842 -0.924157 0.3011134 1.40915e-7 0 -1 0.1757251 -0.9358564 0.3054401 0.2353421 -0.9251823 0.2977447 0 0 -1 -0.1376167 -0.9445741 0.2980627 0.1756222 -0.9353214 0.3071331 0.2350777 -0.9241211 0.3012288 0 0 -1 -0.221373 -0.9277455 0.3004706 -0.221385 -0.927743 0.3004693 -0.1371049 -0.9410872 0.3091235 -0.07243442 -0.9485518 0.3082253 -0.1372501 -0.9421089 0.3059304 0.01953536 -0.9516724 0.3064933 0.078763 -0.9489709 0.30537 3.70807e-5 0 -1 0.01963657 -0.9516704 0.3064931 -6.84153e-7 0 -1 0.0196557 -0.9526085 0.3035632 -0.07237195 -0.9476597 0.3109717 0.0786128 -0.9472079 0.3108333 0 0 -1 5.33622e-7 0 1 -2.63063e-6 0 1 0 0 1 -1.9835e-7 0 1 -1.78919e-6 0 1 9.8009e-7 0 1 -2.19204e-7 0 1 1.09014e-6 0 1 6.35466e-7 0 1 -2.02473e-7 0 1 -1.21386e-7 0 1 2.41827e-6 0 1 -6.42887e-7 0 1 1.12374e-6 0 1 -2.33916e-6 0 1 -4.34755e-7 0 1 0 0 1 0.8660253 0 0.5000002 0.8660254 0 0.5 -0.8660256 0 0.4999998 0.8660254 0 -0.5000001 0.8660254 0 -0.5 -0.8660251 0 0.5000005 -0.8660256 0 -0.4999998 -0.8660252 0 -0.5000004 0 1 7.56838e-7 0 1 1.23774e-7 0 1 -6.61949e-6 0 1 5.44287e-7 0 1 6.40226e-7 0 1 -3.11848e-7 0 1 -2.11631e-6 0 1 2.13371e-6 0 1 6.28419e-7 0 1 4.15629e-7 0 1 1.25684e-6 0 1 2.41285e-7 0 1 -1.51416e-6 0 1 -1.51738e-6 0 1 -1.33863e-5 0 1 5.3378e-7 0 1 1.0172e-6 0 1 -1.03343e-6 0.08257645 0 -0.9965847 0.08258563 0 -0.996584 -0.08258551 0 -0.9965841 0.08257597 0 -0.9965848 0.08258497 0 -0.9965841 -0.08257651 0 -0.9965848 -0.2454826 0 -0.969401 0.2454923 0 -0.9693986 0.2454835 0 -0.9694008 -0.2454845 0 -0.9694006 0.2454932 0 -0.9693984 0.2454842 0 -0.9694006 -0.2454912 0 -0.9693988 -0.401691 0 -0.9157754 0.4016925 0 -0.9157747 0.4016927 0 -0.9157747 -0.2454929 0 -0.9693984 0.4016937 0 -0.9157741 0.4016939 0 -0.915774 -0.4016914 0 -0.9157752 -0.5469542 0 -0.8371625 0.5469463 0 -0.8371678 0.5469524 0 -0.8371638 0.5469444 0 -0.8371689 0.5469508 0 -0.8371647 -0.5469481 0 -0.8371666 -0.6772791 0 -0.7357263 0.6772872 0 -0.7357187 0.677277 0 -0.7357282 0 1 -5.9885e-7 -0.6772753 0 -0.7357297 0.677289 0 -0.7357171 0.6772791 0 -0.7357263 -0.677289 0 -0.7357171 -0.7891383 0 -0.6142156 0.7891383 0 -0.6142156 0.789138 0 -0.614216 -0.6772853 0 -0.7357206 -0.789138 0 -0.614216 -0.8794746 0 -0.475946 0.8794766 0 -0.4759421 0.8794746 0 -0.475946 -0.8794732 0 -0.4759486 0.8794784 0 -0.475939 0.879476 0 -0.4759433 -0.8794766 0 -0.4759421 -0.9458161 0 -0.324703 0.9458161 0 -0.324703 0.9458161 0 -0.3247027 -0.8794752 0 -0.4759448 -0.9458172 0 -0.3246996 0.9458172 0 -0.3246996 -0.9458161 0 -0.3247027 -0.986362 0 -0.1645902 0.986362 0 -0.1645902 0 1 -1.69522e-5 0.9863609 0 -0.1645973 0 1 1.43311e-5 0 1 5.52533e-7 0 1 -1.42799e-5 0 1 -1.18099e-6 -0.986362 0 0.1645902 0.986362 0 0.1645902 0 1 1.33863e-5 0.9863609 0 0.1645973 0 1 5.73006e-6 -0.945817 0 0.3247001 0.9458161 0 0.324703 0.9458171 0 0.3246999 0 1 -3.55834e-6 -0.9458183 0 0.3246968 0.9458172 0 0.3246996 0.9458183 0 0.3246968 0 1 -1.18298e-5 0 1 -1.13469e-5 -0.9458161 0 0.3247027 -0.8794766 0 0.4759421 0.8794726 0 0.4759498 0.8794766 0 0.4759421 0 1 -5.41132e-6 -0.9458172 0 0.3246996 -0.8794752 0 0.4759448 0.8794742 0 0.4759467 0.8794782 0 0.4759395 0 1 8.99007e-6 -0.8794726 0 0.4759498 -0.7891418 0 0.6142112 0.7891383 0 0.6142156 0.7891414 0 0.6142115 0 1 -5.85331e-7 -0.8794711 0 0.4759525 0 1 -3.87055e-6 -0.789138 0 0.614216 -0.677284 0 0.7357217 0.6772823 0 0.7357233 0.677282 0 0.7357236 0 1 -1.83199e-6 -0.6772803 0 0.7357252 0.677284 0 0.7357217 0 1 3.88443e-6 0 1 -1.72162e-6 -0.5469478 0 0.8371668 0.5469463 0 0.8371678 0.546946 0 0.837168 0 1 3.74253e-6 0.5469444 0 0.8371689 0 1 -1.25968e-6 0 1 6.68775e-7 -0.5469481 0 0.8371666 -0.4016987 0 0.915772 0.4016925 0 0.9157747 0.4017003 0 0.9157712 0 1 1.04362e-5 0.4016937 0 0.9157741 0.4017016 0 0.9157707 0 1 1.25344e-6 -0.4016914 0 0.9157752 -0.2454912 0 0.9693988 0.2454837 0 0.9694007 0.2454921 0 0.9693986 0 1 -1.3045e-5 -0.2454932 0 0.9693984 0.2454845 0 0.9694006 0.2454929 0 0.9693984 -0.2454826 0 0.969401 -0.08257645 0 0.9965847 0.08257645 0 0.9965847 0.08257651 0 0.9965848 -0.2454842 0 0.9694006 0.08257597 0 0.9965848 0.08257585 0 0.9965848 0 1 2.17327e-6 0 1 7.17329e-6 0 1 1.73049e-6 0 1 -1.88374e-5 0 1 7.60803e-6 -0.08257651 0 0.9965848 0 1 1.5516e-7 0 1 -7.44492e-7 0 1 -3.37422e-7 0 1 -1.83353e-6 0 1 -3.58873e-6 0 1 2.70445e-6 0 1 6.90207e-7 0 1 1.44392e-6 0 1 -2.31252e-6 0 1 3.72999e-6 0 1 -5.89046e-6 0 1 -3.35702e-6 0 1 -5.90165e-6 0 1 1.9271e-6 0 1 1.22192e-5 0 1 -4.95057e-6 0 1 -4.60132e-7 0 1 5.40894e-6 0 1 -2.52279e-7 0 1 2.87452e-5 0 1 -3.51337e-5 0 1 -6.24745e-6 0 1 2.72814e-5 0 1 -3.52066e-5 0 1 -4.99795e-6 0 1 1.05813e-5 0 1 2.72815e-5 0 1 1.19812e-6 0 1 5.24449e-6 0 1 5.82722e-6 0 1 -2.29909e-6 0 1 -2.29909e-6 0 1 -3.44865e-6 0 1 -2.2991e-6 0 1 2.91361e-6 0 1 4.07906e-6 0 1 -3.8939e-6 0 1 -5.99062e-6 0 1 4.29862e-6 0 1 6.61326e-6 0 1 -3.55606e-6 0 1 -4.97849e-6 0 1 4.66798e-6 0 1 3.11199e-6 0 1 -1.57856e-5 0 1 2.20315e-5 0 1 -1.57856e-5 0 1 -2.87455e-5 0 1 5.67054e-5</float_array>
          <technique_common>
            <accessor source="#myntai_mount-mesh-normals-array" count="1081" stride="3">
              <param name="X" type="float"/>
              <param name="Y" type="float"/>
              <param name="Z" type="float"/>
            </accessor>
          </technique_common>
        </source>
        <vertices id="myntai_mount-mesh-vertices">
          <input semantic="POSITION" source="#myntai_mount-mesh-positions"/>
        </vertices>
        <triangles count="1632">
          <input semantic="VERTEX" source="#myntai_mount-mesh-vertices" offset="0"/>
          <input semantic="NORMAL" source="#myntai_mount-mesh-normals" offset="1"/>
          <p>0 0 1 0 2 0 1 1 3 1 2 1 4 2 5 2 2 2 6 3 7 3 2 3 7 4 8 4 2 4 8 2 4 2 2 2 9 2 0 2 2 2 10 2 9 2 2 2 5 2 11 2 2 2 11 2 12 2 2 2 12 2 10 2 2 2 3 5 6 5 2 5 13 6 1 6 0 6 9 6 13 6 0 6 14 7 15 7 16 7 17 0 14 0 16 0 15 2 17 2 16 2 18 0 14 0 17 0 19 8 20 8 17 8 15 2 21 2 17 2 21 9 22 9 17 9 22 10 23 10 17 10 23 2 24 2 17 2 24 2 25 2 17 2 25 11 19 11 17 11 20 12 26 12 17 12 26 13 18 13 17 13 1 14 27 14 3 14 27 15 28 15 3 15 28 16 6 16 3 16 29 17 14 17 18 17 26 18 30 18 18 18 30 18 29 18 18 18 1 19 31 19 27 19 31 20 32 20 27 20 32 15 28 15 27 15 33 21 14 21 29 21 30 22 34 22 29 22 34 23 33 23 29 23 1 24 35 24 31 24 35 25 36 25 31 25 36 26 32 26 31 26 37 0 14 0 33 0 34 27 38 27 33 27 38 27 37 27 33 27 1 28 39 28 35 28 39 29 40 29 35 29 40 30 36 30 35 30 41 31 14 31 37 31 38 32 42 32 37 32 42 32 41 32 37 32 1 33 43 33 39 33 43 34 44 34 39 34 44 35 40 35 39 35 45 0 14 0 41 0 42 36 46 36 41 36 46 37 45 37 41 37 1 38 47 38 43 38 47 39 48 39 43 39 48 40 44 40 43 40 49 0 14 0 45 0 46 41 50 41 45 41 50 42 49 42 45 42 1 43 51 43 47 43 51 44 52 44 47 44 52 45 48 45 47 45 53 0 14 0 49 0 50 46 54 46 49 46 54 47 53 47 49 47 1 48 55 48 51 48 55 49 56 49 51 49 56 50 52 50 51 50 57 51 14 51 53 51 54 52 58 52 53 52 58 52 57 52 53 52 1 53 59 53 55 53 59 54 60 54 55 54 60 49 56 49 55 49 61 0 14 0 57 0 58 55 62 55 57 55 62 56 61 56 57 56 1 0 63 0 59 0 64 7 65 7 59 7 63 7 64 7 59 7 65 57 60 57 59 57 66 0 14 0 61 0 62 6 67 6 61 6 67 6 68 6 61 6 68 6 66 6 61 6 13 6 69 6 1 6 69 58 70 58 1 58 70 59 71 59 1 59 72 0 73 0 1 0 71 0 72 0 1 0 73 0 63 0 1 0 74 60 75 60 14 60 75 7 76 7 14 7 77 61 74 61 14 61 76 7 15 7 14 7 66 0 77 0 14 0 73 62 64 62 63 62 78 2 77 2 71 2 79 2 78 2 71 2 70 63 80 63 71 63 80 64 79 64 71 64 81 0 72 0 71 0 82 65 83 65 71 65 83 0 84 0 71 0 84 0 81 0 71 0 85 0 86 0 71 0 86 0 87 0 71 0 87 66 82 66 71 66 77 0 88 0 71 0 88 0 89 0 71 0 89 67 85 67 71 67 78 68 74 68 77 68 66 0 90 0 77 0 91 0 92 0 77 0 92 69 88 69 77 69 93 0 91 0 77 0 90 70 93 70 77 70 94 71 90 71 66 71 68 72 94 72 66 72 95 0 93 0 90 0 96 0 95 0 90 0 97 73 96 73 90 73 98 74 97 74 90 74 94 75 98 75 90 75 99 76 64 76 73 76 72 77 99 77 73 77 100 0 95 0 96 0 101 78 100 78 96 78 102 79 101 79 96 79 97 80 102 80 96 80 103 81 99 81 72 81 81 82 103 82 72 82 104 83 95 83 100 83 105 84 104 84 100 84 106 85 105 85 100 85 101 86 106 86 100 86 84 87 107 87 81 87 107 88 103 88 81 88 108 89 95 89 104 89 109 90 110 90 104 90 110 91 108 91 104 91 105 92 109 92 104 92 83 93 111 93 84 93 111 94 107 94 84 94 112 0 113 0 108 0 113 0 95 0 108 0 110 95 114 95 108 95 114 95 112 95 108 95 82 96 115 96 83 96 115 93 111 93 83 93 116 0 117 0 112 0 117 0 113 0 112 0 114 97 118 97 112 97 118 98 116 98 112 98 87 0 119 0 82 0 119 0 120 0 82 0 120 0 121 0 82 0 122 0 123 0 82 0 124 0 122 0 82 0 125 99 126 99 82 99 127 100 125 100 82 100 123 0 127 0 82 0 121 0 128 0 82 0 128 0 129 0 82 0 129 0 124 0 82 0 126 101 130 101 82 101 130 102 115 102 82 102 131 0 132 0 116 0 132 103 117 103 116 103 118 104 133 104 116 104 133 104 131 104 116 104 134 105 135 105 126 105 125 0 134 0 126 0 135 106 136 106 126 106 136 101 130 101 126 101 137 0 138 0 131 0 139 0 140 0 131 0 141 0 139 0 131 0 142 0 141 0 131 0 138 0 142 0 131 0 143 107 137 107 131 107 140 108 144 108 131 108 144 109 132 109 131 109 133 110 145 110 131 110 145 111 143 111 131 111 88 112 146 112 89 112 146 112 147 112 89 112 147 113 85 113 89 113 92 114 148 114 88 114 148 115 146 115 88 115 147 116 149 116 85 116 149 117 86 117 85 117 91 118 150 118 92 118 150 119 148 119 92 119 149 120 151 120 86 120 151 121 87 121 86 121 93 122 152 122 91 122 152 123 150 123 91 123 134 0 153 0 135 0 153 124 154 124 135 124 154 125 155 125 135 125 155 126 136 126 135 126 156 127 137 127 143 127 145 128 157 128 143 128 157 128 156 128 143 128 151 129 158 129 87 129 158 130 119 130 87 130 95 131 159 131 93 131 159 132 152 132 93 132 158 133 160 133 119 133 160 134 120 134 119 134 113 135 161 135 95 135 161 136 159 136 95 136 160 137 162 137 120 137 162 138 121 138 120 138 117 139 163 139 113 139 163 140 161 140 113 140 162 141 164 141 121 141 164 142 128 142 121 142 132 143 165 143 117 143 165 144 163 144 117 144 164 142 166 142 128 142 166 145 129 145 128 145 144 146 167 146 132 146 167 147 165 147 132 147 166 148 168 148 129 148 168 149 124 149 129 149 140 150 169 150 144 150 169 151 167 151 144 151 168 152 170 152 124 152 170 153 122 153 124 153 139 154 171 154 140 154 171 155 169 155 140 155 170 156 172 156 122 156 172 157 123 157 122 157 141 158 173 158 139 158 173 159 174 159 139 159 174 160 171 160 139 160 172 157 175 157 123 157 175 161 127 161 123 161 141 162 176 162 173 162 176 163 177 163 173 163 177 164 174 164 173 164 178 0 125 0 127 0 175 165 179 165 127 165 179 166 178 166 127 166 141 167 180 167 176 167 180 168 181 168 176 168 181 169 177 169 176 169 153 170 182 170 154 170 182 171 183 171 154 171 183 172 155 172 154 172 184 0 137 0 156 0 185 173 184 173 156 173 157 174 186 174 156 174 186 175 185 175 156 175 187 0 125 0 178 0 179 176 188 176 178 176 188 177 187 177 178 177 141 178 189 178 180 178 189 179 190 179 180 179 190 180 181 180 180 180 191 0 125 0 187 0 188 181 192 181 187 181 192 182 191 182 187 182 141 183 193 183 189 183 193 184 194 184 189 184 194 185 190 185 189 185 195 186 125 186 191 186 192 187 196 187 191 187 196 188 195 188 191 188 141 189 197 189 193 189 197 190 198 190 193 190 198 190 194 190 193 190 199 191 125 191 195 191 196 188 200 188 195 188 200 192 199 192 195 192 201 193 202 193 197 193 141 0 201 0 197 0 202 194 203 194 197 194 203 194 198 194 197 194 204 0 201 0 199 0 201 0 205 0 199 0 206 0 125 0 199 0 205 195 206 195 199 195 200 192 207 192 199 192 207 196 204 196 199 196 201 0 204 0 202 0 204 197 208 197 202 197 208 198 203 198 202 198 207 199 208 199 204 199 209 200 210 200 182 200 153 0 209 0 182 0 210 201 211 201 182 201 211 202 183 202 182 202 212 203 184 203 185 203 213 204 212 204 185 204 186 205 214 205 185 205 214 206 213 206 185 206 215 207 216 207 210 207 209 0 215 0 210 0 216 208 217 208 210 208 217 209 211 209 210 209 218 210 212 210 213 210 214 211 219 211 213 211 219 212 218 212 213 212 215 0 220 0 216 0 220 213 221 213 216 213 221 214 217 214 216 214 222 215 212 215 218 215 223 216 222 216 218 216 219 217 224 217 218 217 224 218 223 218 218 218 215 0 225 0 220 0 225 219 226 219 220 219 226 220 227 220 220 220 227 221 221 221 220 221 228 0 222 0 223 0 224 222 229 222 223 222 229 222 228 222 223 222 201 112 230 112 205 112 230 112 231 112 205 112 231 113 206 113 205 113 141 223 232 223 201 223 232 115 230 115 201 115 231 224 233 224 206 224 233 117 125 117 206 117 142 225 234 225 141 225 234 119 232 119 141 119 233 226 235 226 125 226 235 227 134 227 125 227 138 122 236 122 142 122 236 228 234 228 142 228 235 129 237 129 134 129 237 133 153 133 134 133 137 131 238 131 138 131 238 131 236 131 138 131 225 229 239 229 226 229 239 230 240 230 226 230 240 231 227 231 226 231 241 0 242 0 228 0 242 0 222 0 228 0 229 232 243 232 228 232 243 233 241 233 228 233 237 133 244 133 153 133 244 234 209 234 153 234 184 235 245 235 137 235 245 236 238 236 137 236 244 237 246 237 209 237 246 238 215 238 209 238 212 239 247 239 184 239 247 240 245 240 184 240 246 238 248 238 215 238 248 142 225 142 215 142 222 143 249 143 212 143 249 144 247 144 212 144 250 0 251 0 239 0 225 0 250 0 239 0 251 241 252 241 239 241 252 242 240 242 239 242 253 0 254 0 241 0 254 0 242 0 241 0 243 243 255 243 241 243 255 244 253 244 241 244 248 142 256 142 225 142 256 245 250 245 225 245 242 246 257 246 222 246 257 247 249 247 222 247 258 0 251 0 250 0 256 248 259 248 250 248 259 249 258 249 250 249 254 150 260 150 242 150 260 250 257 250 242 250 261 251 262 251 258 251 262 0 251 0 258 0 259 152 263 152 258 152 263 153 261 153 258 153 253 252 264 252 254 252 264 253 265 253 254 253 265 155 260 155 254 155 262 254 266 254 251 254 266 255 252 255 251 255 267 256 264 256 253 256 255 257 268 257 253 257 268 257 267 257 253 257 269 0 270 0 261 0 270 0 262 0 261 0 263 258 271 258 261 258 271 259 269 259 261 259 267 260 272 260 264 260 272 261 273 261 264 261 273 262 265 262 264 262 274 0 275 0 269 0 275 263 270 263 269 263 271 259 276 259 269 259 276 264 274 264 269 264 277 265 278 265 272 265 267 266 277 266 272 266 278 267 279 267 272 267 279 268 273 268 272 268 270 269 280 269 262 269 280 254 266 254 262 254 268 270 281 270 267 270 281 271 277 271 267 271 282 272 283 272 274 272 283 0 275 0 274 0 276 273 284 273 274 273 284 166 282 166 274 166 285 274 286 274 278 274 277 0 285 0 278 0 286 275 287 275 278 275 287 169 279 169 278 169 288 0 283 0 282 0 284 276 289 276 282 276 289 277 288 277 282 277 290 278 291 278 286 278 285 279 290 279 286 279 291 280 292 280 286 280 292 280 287 280 286 280 293 0 283 0 288 0 294 281 293 281 288 281 289 277 295 277 288 277 295 282 294 282 288 282 290 283 296 283 291 283 296 284 297 284 291 284 297 285 292 285 291 285 275 286 298 286 270 286 298 287 280 287 270 287 281 288 299 288 277 288 299 289 285 289 277 289 300 0 293 0 294 0 295 290 301 290 294 290 301 291 300 291 294 291 302 0 303 0 296 0 290 292 302 292 296 292 303 293 304 293 296 293 304 293 297 293 296 293 305 0 293 0 300 0 306 0 305 0 300 0 301 291 307 291 300 291 307 294 306 294 300 294 302 295 308 295 303 295 308 194 309 194 303 194 309 296 304 296 303 296 310 0 305 0 306 0 307 192 311 192 306 192 311 196 310 196 306 196 305 0 310 0 308 0 302 0 305 0 308 0 310 197 312 197 308 197 312 198 309 198 308 198 311 199 312 199 310 199 283 297 313 297 275 297 313 298 298 298 275 298 299 299 314 299 285 299 314 300 290 300 285 300 293 301 315 301 283 301 315 302 313 302 283 302 314 303 316 303 290 303 316 304 302 304 290 304 305 305 317 305 293 305 317 306 315 306 293 306 316 307 318 307 302 307 318 308 305 308 302 308 318 305 317 305 305 305 10 6 13 6 9 6 76 7 21 7 15 7 319 309 13 309 10 309 12 310 319 310 10 310 76 311 22 311 21 311 320 312 321 312 322 312 70 112 69 112 322 112 69 313 323 313 322 313 323 112 324 112 322 112 324 112 325 112 322 112 325 314 326 314 322 314 326 315 320 315 322 315 327 316 70 316 322 316 328 316 329 316 322 316 329 317 330 317 322 317 330 316 331 316 322 316 331 316 332 316 322 316 332 316 333 316 322 316 333 316 327 316 322 316 334 316 335 316 322 316 335 316 336 316 322 316 336 316 337 316 322 316 337 318 328 318 322 318 321 319 334 319 322 319 327 316 80 316 70 316 338 7 76 7 75 7 339 112 338 112 75 112 74 316 339 316 75 316 340 112 341 112 339 112 341 112 342 112 339 112 342 112 343 112 339 112 343 112 344 112 339 112 344 320 345 320 339 320 345 112 338 112 339 112 346 321 347 321 339 321 347 112 348 112 339 112 348 112 340 112 339 112 74 316 349 316 339 316 350 322 351 322 339 322 351 316 352 316 339 316 352 316 353 316 339 316 349 316 354 316 339 316 354 316 355 316 339 316 355 316 350 316 339 316 356 323 357 323 339 323 358 316 356 316 339 316 353 316 359 316 339 316 359 316 360 316 339 316 360 316 358 316 339 316 361 324 346 324 339 324 357 325 361 325 339 325 362 326 335 326 334 326 321 327 362 327 334 327 363 328 361 328 357 328 356 329 363 329 357 329 364 330 336 330 335 330 362 331 364 331 335 331 365 332 363 332 356 332 358 333 365 333 356 333 366 334 337 334 336 334 364 335 366 335 336 335 367 336 365 336 358 336 360 337 367 337 358 337 368 338 328 338 337 338 366 339 368 339 337 339 369 340 367 340 360 340 359 341 369 341 360 341 370 342 329 342 328 342 368 343 370 343 328 343 371 344 369 344 359 344 353 345 371 345 359 345 372 346 330 346 329 346 370 342 372 342 329 342 373 347 371 347 353 347 352 348 373 348 353 348 374 349 331 349 330 349 372 346 374 346 330 346 375 350 373 350 352 350 351 350 375 350 352 350 376 351 332 351 331 351 374 349 376 349 331 349 377 352 375 352 351 352 350 353 377 353 351 353 378 354 333 354 332 354 376 355 378 355 332 355 379 356 377 356 350 356 355 357 379 357 350 357 380 316 327 316 333 316 381 6 380 6 333 6 382 6 381 6 333 6 378 358 382 358 333 358 354 7 379 7 355 7 383 316 327 316 380 316 381 359 383 359 380 359 349 360 384 360 354 360 385 7 379 7 354 7 386 361 385 361 354 361 384 362 386 362 354 362 387 316 327 316 383 316 388 363 387 363 383 363 381 364 388 364 383 364 349 365 389 365 384 365 390 366 386 366 384 366 389 367 390 367 384 367 391 368 392 368 387 368 392 316 393 316 387 316 393 316 394 316 387 316 394 316 395 316 387 316 395 316 396 316 387 316 396 316 397 316 387 316 397 316 327 316 387 316 398 369 391 369 387 369 388 370 398 370 387 370 349 371 399 371 389 371 400 372 390 372 389 372 399 373 400 373 389 373 401 374 392 374 391 374 398 375 401 375 391 375 349 376 402 376 399 376 403 377 400 377 399 377 402 378 403 378 399 378 404 379 393 379 392 379 401 380 404 380 392 380 405 381 406 381 402 381 349 316 405 316 402 316 407 382 403 382 402 382 406 383 407 383 402 383 408 384 394 384 393 384 404 385 408 385 393 385 405 316 409 316 406 316 410 386 407 386 406 386 409 387 410 387 406 387 411 388 395 388 394 388 408 389 411 389 394 389 405 390 412 390 409 390 413 391 410 391 409 391 412 392 413 392 409 392 414 393 396 393 395 393 411 394 414 394 395 394 405 395 415 395 412 395 416 396 413 396 412 396 415 397 416 397 412 397 417 398 397 398 396 398 414 399 417 399 396 399 418 400 416 400 415 400 405 400 418 400 415 400 419 401 327 401 397 401 417 398 419 398 397 398 420 402 418 402 405 402 349 403 420 403 405 403 421 404 422 404 327 404 422 2 423 2 327 2 423 405 424 405 327 405 424 406 425 406 327 406 425 2 80 2 327 2 426 407 427 407 327 407 427 2 428 2 327 2 428 2 421 2 327 2 419 408 426 408 327 408 425 409 79 409 80 409 78 410 429 410 74 410 429 2 349 2 74 2 430 411 420 411 349 411 429 2 431 2 349 2 431 2 432 2 349 2 432 2 433 2 349 2 433 2 434 2 349 2 434 2 430 2 349 2 435 412 319 412 12 412 11 413 435 413 12 413 436 414 23 414 22 414 76 415 436 415 22 415 436 416 24 416 23 416 436 417 437 417 24 417 437 418 25 418 24 418 5 419 435 419 11 419 438 420 435 420 5 420 4 421 438 421 5 421 8 422 439 422 4 422 439 423 438 423 4 423 437 424 440 424 25 424 440 425 19 425 25 425 440 426 441 426 19 426 441 427 442 427 19 427 442 428 20 428 19 428 441 429 443 429 442 429 443 2 20 2 442 2 444 430 439 430 8 430 7 431 444 431 8 431 445 432 444 432 7 432 6 433 445 433 7 433 441 434 446 434 443 434 446 2 20 2 443 2 447 435 444 435 445 435 6 436 447 436 445 436 441 437 448 437 446 437 448 438 449 438 446 438 449 439 450 439 446 439 450 2 20 2 446 2 451 440 444 440 447 440 452 441 451 441 447 441 6 442 452 442 447 442 453 443 451 443 452 443 6 444 453 444 452 444 449 445 454 445 450 445 454 446 20 446 450 446 425 6 455 6 79 6 456 316 78 316 79 316 457 316 456 316 79 316 455 6 457 6 79 6 458 7 429 7 78 7 456 7 458 7 78 7 457 447 103 447 107 447 158 448 457 448 107 448 160 316 158 316 107 316 111 449 160 449 107 449 455 450 103 450 457 450 118 316 114 316 457 316 114 451 456 451 457 451 157 316 145 316 457 316 145 316 133 316 457 316 133 452 118 452 457 452 146 316 148 316 457 316 151 316 149 316 457 316 149 316 147 316 457 316 147 316 146 316 457 316 148 316 150 316 457 316 150 316 152 316 457 316 152 316 157 316 457 316 158 316 151 316 457 316 109 453 458 453 456 453 114 316 110 316 456 316 110 316 109 316 456 316 105 454 458 454 109 454 162 455 160 455 111 455 115 316 162 316 111 316 164 316 162 316 115 316 130 456 164 456 115 456 166 316 164 316 130 316 136 316 166 316 130 316 168 316 166 316 136 316 155 316 168 316 136 316 170 316 168 316 155 316 183 316 170 316 155 316 159 457 157 457 152 457 161 316 157 316 159 316 163 316 157 316 161 316 165 316 157 316 163 316 167 458 157 458 165 458 169 316 157 316 167 316 183 459 172 459 170 459 171 316 157 316 169 316 183 460 211 460 172 460 211 461 175 461 172 461 174 316 232 316 171 316 236 316 157 316 171 316 234 462 236 462 171 462 232 316 234 316 171 316 211 463 217 463 175 463 217 464 179 464 175 464 177 316 235 316 174 316 235 316 233 316 174 316 233 316 231 316 174 316 231 316 230 316 174 316 230 465 232 465 174 465 227 466 188 466 179 466 217 467 221 467 179 467 221 316 227 316 179 316 181 468 235 468 177 468 238 469 186 469 157 469 236 470 238 470 157 470 227 316 240 316 188 316 240 316 252 316 188 316 252 471 192 471 188 471 190 316 235 316 181 316 252 472 266 472 192 472 266 473 196 473 192 473 194 474 235 474 190 474 266 475 280 475 196 475 280 476 200 476 196 476 198 316 235 316 194 316 256 477 207 477 200 477 280 316 259 316 200 316 259 316 256 316 200 316 203 316 235 316 198 316 256 478 208 478 207 478 208 316 237 316 203 316 237 479 235 479 203 479 248 316 246 316 208 316 246 480 244 480 208 480 244 481 237 481 208 481 256 316 248 316 208 316 245 482 214 482 186 482 238 316 245 316 186 316 247 483 219 483 214 483 245 316 247 316 214 316 247 484 224 484 219 484 247 316 249 316 224 316 249 485 229 485 224 485 249 486 243 486 229 486 257 487 255 487 243 487 249 316 257 316 243 316 280 488 263 488 259 488 260 489 255 489 257 489 280 490 271 490 263 490 265 491 268 491 260 491 268 492 255 492 260 492 280 493 276 493 271 493 273 316 281 316 265 316 281 316 268 316 265 316 298 494 284 494 276 494 280 495 298 495 276 495 279 496 299 496 273 496 299 316 281 316 273 316 313 497 289 497 284 497 298 316 313 316 284 316 287 316 314 316 279 316 314 316 299 316 279 316 315 316 295 316 289 316 313 498 315 498 289 498 292 316 314 316 287 316 315 499 301 499 295 499 316 316 314 316 292 316 297 500 316 500 292 500 317 501 307 501 301 501 315 502 317 502 301 502 304 503 316 503 297 503 317 316 311 316 307 316 318 316 316 316 304 316 309 316 318 316 304 316 318 316 312 316 311 316 317 316 318 316 311 316 312 316 318 316 309 316 449 504 459 504 454 504 459 505 20 505 454 505 449 506 460 506 459 506 460 507 461 507 459 507 461 508 20 508 459 508 462 509 451 509 453 509 463 510 462 510 453 510 6 511 463 511 453 511 464 512 462 512 463 512 465 513 464 513 463 513 6 514 465 514 463 514 460 515 466 515 461 515 466 2 20 2 461 2 467 516 464 516 465 516 6 517 467 517 465 517 468 518 469 518 466 518 460 519 468 519 466 519 469 2 20 2 466 2 106 520 458 520 105 520 470 521 464 521 467 521 6 522 470 522 467 522 471 523 464 523 470 523 472 524 471 524 470 524 473 525 472 525 470 525 6 526 473 526 470 526 474 527 475 527 469 527 468 528 474 528 469 528 475 2 20 2 469 2 474 529 476 529 475 529 476 530 20 530 475 530 345 7 76 7 338 7 477 531 478 531 476 531 474 532 477 532 476 532 478 533 20 533 476 533 479 534 472 534 473 534 6 535 479 535 473 535 480 536 472 536 479 536 481 537 480 537 479 537 6 538 481 538 479 538 477 539 482 539 478 539 482 2 20 2 478 2 477 540 483 540 482 540 483 541 484 541 482 541 484 542 20 542 482 542 485 543 480 543 481 543 6 544 485 544 481 544 486 545 480 545 485 545 487 546 486 546 485 546 6 547 487 547 485 547 483 548 488 548 484 548 488 549 20 549 484 549 489 550 486 550 487 550 6 551 489 551 487 551 490 552 491 552 488 552 483 553 490 553 488 553 491 2 20 2 488 2 101 554 458 554 106 554 492 555 486 555 489 555 493 556 492 556 489 556 6 557 493 557 489 557 494 558 495 558 491 558 490 559 494 559 491 559 495 560 20 560 491 560 496 561 492 561 493 561 497 562 496 562 493 562 6 563 497 563 493 563 494 564 498 564 495 564 498 565 20 565 495 565 499 566 438 566 439 566 444 567 499 567 439 567 500 568 448 568 441 568 501 569 500 569 441 569 440 570 501 570 441 570 494 571 502 571 498 571 502 572 503 572 498 572 503 573 20 573 498 573 504 574 496 574 497 574 6 575 504 575 497 575 505 576 496 576 504 576 506 577 505 577 504 577 6 578 506 578 504 578 502 579 505 579 506 579 503 580 502 580 506 580 20 581 503 581 506 581 6 2 20 2 506 2 455 582 99 582 103 582 507 583 499 583 444 583 451 584 507 584 444 584 508 585 449 585 448 585 500 586 508 586 448 586 323 587 69 587 13 587 324 588 323 588 13 588 319 589 324 589 13 589 345 7 344 7 76 7 343 590 436 590 76 590 344 7 343 7 76 7 424 6 455 6 425 6 102 591 458 591 101 591 509 592 507 592 451 592 462 593 509 593 451 593 510 594 460 594 449 594 508 595 510 595 449 595 511 596 509 596 462 596 464 597 511 597 462 597 512 598 468 598 460 598 510 599 512 599 460 599 325 600 324 600 319 600 435 601 325 601 319 601 343 602 342 602 436 602 342 603 341 603 436 603 341 604 437 604 436 604 513 605 511 605 464 605 471 606 513 606 464 606 512 607 474 607 468 607 97 608 458 608 102 608 326 609 325 609 435 609 438 610 320 610 435 610 320 611 326 611 435 611 348 612 440 612 437 612 341 613 340 613 437 613 340 614 348 614 437 614 514 615 320 615 438 615 515 616 514 616 438 616 499 617 515 617 438 617 347 618 501 618 440 618 348 619 347 619 440 619 98 620 458 620 97 620 455 621 64 621 99 621 458 622 431 622 429 622 516 623 515 623 499 623 507 624 516 624 499 624 347 625 517 625 501 625 517 626 518 626 501 626 518 627 500 627 501 627 94 628 458 628 98 628 519 629 516 629 507 629 520 630 519 630 507 630 509 631 520 631 507 631 521 632 508 632 500 632 518 633 522 633 500 633 522 634 521 634 500 634 523 635 520 635 509 635 524 636 523 636 509 636 511 637 524 637 509 637 521 638 525 638 508 638 525 639 510 639 508 639 526 6 455 6 424 6 423 640 526 640 424 640 68 641 458 641 94 641 527 642 524 642 511 642 513 643 527 643 511 643 528 644 512 644 510 644 525 645 529 645 510 645 529 646 528 646 510 646 514 112 321 112 320 112 530 647 527 647 513 647 531 648 530 648 513 648 471 649 531 649 513 649 532 650 474 650 512 650 528 651 533 651 512 651 533 652 532 652 512 652 422 653 526 653 423 653 458 654 534 654 431 654 534 655 432 655 431 655 515 112 321 112 514 112 535 112 536 112 64 112 536 112 537 112 64 112 537 112 538 112 64 112 526 112 539 112 64 112 455 112 526 112 64 112 539 656 540 656 64 656 540 112 541 112 64 112 541 112 535 112 64 112 538 7 65 7 64 7 68 112 534 112 458 112 67 112 542 112 68 112 542 657 543 657 68 657 543 112 544 112 68 112 544 112 545 112 68 112 545 112 546 112 68 112 546 658 534 658 68 658 547 659 531 659 471 659 548 660 547 660 471 660 472 661 548 661 471 661 549 662 477 662 474 662 532 663 549 663 474 663 346 664 517 664 347 664 516 112 321 112 515 112 550 665 548 665 472 665 480 666 550 666 472 666 549 667 551 667 477 667 551 668 552 668 477 668 552 669 483 669 477 669 346 670 518 670 517 670 519 671 321 671 516 671 553 672 550 672 480 672 486 673 554 673 480 673 554 674 553 674 480 674 552 675 555 675 483 675 555 676 556 676 483 676 556 677 490 677 483 677 346 678 522 678 518 678 557 679 554 679 486 679 492 680 557 680 486 680 556 681 558 681 490 681 558 682 494 682 490 682 346 683 521 683 522 683 520 112 321 112 519 112 559 684 557 684 492 684 560 685 559 685 492 685 496 686 560 686 492 686 558 687 561 687 494 687 561 688 562 688 494 688 562 689 502 689 494 689 563 690 560 690 496 690 564 691 563 691 496 691 505 692 564 692 496 692 565 693 505 693 502 693 566 694 565 694 502 694 562 695 566 695 502 695 539 696 526 696 422 696 421 697 539 697 422 697 523 112 321 112 520 112 565 698 564 698 505 698 534 699 546 699 432 699 546 700 433 700 432 700 428 701 541 701 421 701 540 702 539 702 421 702 541 703 540 703 421 703 546 704 545 704 433 704 545 705 544 705 433 705 544 706 434 706 433 706 524 707 321 707 523 707 346 708 525 708 521 708 346 709 529 709 525 709 527 112 321 112 524 112 427 710 535 710 428 710 535 711 541 711 428 711 544 712 543 712 434 712 543 713 430 713 434 713 346 714 528 714 529 714 530 715 321 715 527 715 543 716 567 716 430 716 567 717 420 717 430 717 568 718 536 718 427 718 536 719 535 719 427 719 426 720 568 720 427 720 346 721 533 721 528 721 531 112 321 112 530 112 346 722 532 722 533 722 547 112 321 112 531 112 569 723 537 723 568 723 537 724 536 724 568 724 426 725 569 725 568 725 543 726 542 726 567 726 542 727 570 727 567 727 570 2 420 2 567 2 548 112 321 112 547 112 346 728 549 728 532 728 542 729 571 729 570 729 571 730 572 730 570 730 572 2 420 2 570 2 573 731 574 731 569 731 574 732 537 732 569 732 426 733 573 733 569 733 346 734 551 734 549 734 550 112 321 112 548 112 346 735 552 735 551 735 553 112 321 112 550 112 571 736 575 736 572 736 575 737 576 737 572 737 576 738 420 738 572 738 577 739 578 739 573 739 578 740 574 740 573 740 426 741 577 741 573 741 346 742 555 742 552 742 554 743 321 743 553 743 346 744 556 744 555 744 557 112 321 112 554 112 559 745 321 745 557 745 346 746 558 746 556 746 579 747 580 747 577 747 580 748 578 748 577 748 426 749 579 749 577 749 346 750 561 750 558 750 575 751 581 751 576 751 581 752 582 752 576 752 582 2 420 2 576 2 346 753 562 753 561 753 560 754 321 754 559 754 563 755 321 755 560 755 583 756 584 756 579 756 584 757 580 757 579 757 426 758 583 758 579 758 581 759 585 759 582 759 585 760 586 760 582 760 586 761 587 761 582 761 587 2 420 2 582 2 564 762 321 762 563 762 346 763 566 763 562 763 346 764 565 764 566 764 346 765 564 765 565 765 346 112 321 112 564 112 586 766 588 766 587 766 588 767 589 767 587 767 589 2 420 2 587 2 590 768 591 768 583 768 591 769 584 769 583 769 426 770 590 770 583 770 592 771 593 771 590 771 593 772 591 772 590 772 426 773 592 773 590 773 574 112 538 112 537 112 67 774 571 774 542 774 588 775 594 775 589 775 594 2 420 2 589 2 67 776 575 776 571 776 588 777 595 777 594 777 595 778 596 778 594 778 596 2 420 2 594 2 597 779 598 779 592 779 598 780 593 780 592 780 426 781 597 781 592 781 578 112 538 112 574 112 599 782 600 782 597 782 600 783 598 783 597 783 426 784 599 784 597 784 67 785 581 785 575 785 580 112 538 112 578 112 595 786 601 786 596 786 601 787 602 787 596 787 602 2 420 2 596 2 603 788 604 788 599 788 604 789 600 789 599 789 426 790 603 790 599 790 601 791 605 791 602 791 605 792 606 792 602 792 606 793 607 793 602 793 607 2 420 2 602 2 67 794 585 794 581 794 606 795 608 795 607 795 608 796 609 796 607 796 609 2 420 2 607 2 610 797 611 797 603 797 611 798 604 798 603 798 426 799 610 799 603 799 612 800 613 800 610 800 613 801 611 801 610 801 426 802 612 802 610 802 67 803 586 803 585 803 584 804 538 804 580 804 608 805 614 805 609 805 614 2 420 2 609 2 591 112 538 112 584 112 615 806 616 806 612 806 616 807 613 807 612 807 426 808 615 808 612 808 608 809 617 809 614 809 617 810 618 810 614 810 618 811 619 811 614 811 619 812 420 812 614 812 67 813 588 813 586 813 620 814 621 814 615 814 621 815 616 815 615 815 426 816 620 816 615 816 622 817 623 817 620 817 623 818 621 818 620 818 426 819 622 819 620 819 618 820 624 820 619 820 624 821 625 821 619 821 625 822 420 822 619 822 624 823 626 823 625 823 626 824 627 824 625 824 627 2 420 2 625 2 593 112 538 112 591 112 67 825 595 825 588 825 626 826 628 826 627 826 628 827 629 827 627 827 629 2 420 2 627 2 630 828 631 828 622 828 631 829 623 829 622 829 426 830 630 830 622 830 632 831 633 831 630 831 633 832 631 832 630 832 426 833 632 833 630 833 628 834 634 834 629 834 634 2 420 2 629 2 635 835 636 835 632 835 636 836 633 836 632 836 426 837 635 837 632 837 628 838 637 838 634 838 637 839 638 839 634 839 638 840 639 840 634 840 639 2 420 2 634 2 638 841 640 841 639 841 640 842 641 842 639 842 641 2 420 2 639 2 598 112 538 112 593 112 642 843 643 843 635 843 643 844 636 844 635 844 426 845 642 845 635 845 644 846 643 846 642 846 426 847 644 847 642 847 641 848 640 848 644 848 640 849 645 849 644 849 645 850 643 850 644 850 426 851 641 851 644 851 426 2 420 2 641 2 600 852 538 852 598 852 67 853 601 853 595 853 67 854 605 854 601 854 67 855 606 855 605 855 604 856 538 856 600 856 611 112 538 112 604 112 67 857 608 857 606 857 613 112 538 112 611 112 67 858 617 858 608 858 616 112 538 112 613 112 67 859 618 859 617 859 621 860 538 860 616 860 67 861 624 861 618 861 623 112 538 112 621 112 67 862 626 862 624 862 631 112 538 112 623 112 67 863 628 863 626 863 633 112 538 112 631 112 67 864 637 864 628 864 67 865 638 865 637 865 636 866 538 866 633 866 643 112 538 112 636 112 67 867 640 867 638 867 645 112 538 112 643 112 67 868 645 868 640 868 67 112 538 112 645 112 646 112 647 112 648 112 649 869 650 869 648 869 647 870 649 870 648 870 650 316 651 316 648 316 651 316 652 316 648 316 652 316 646 316 648 316 653 112 647 112 646 112 654 871 653 871 646 871 652 316 654 316 646 316 655 872 651 872 650 872 649 873 655 873 650 873 656 874 653 874 654 874 652 875 656 875 654 875 657 2 652 2 651 2 655 2 657 2 651 2 657 876 656 876 652 876 647 877 20 877 6 877 649 316 647 316 6 316 28 878 649 878 6 878 653 316 658 316 20 316 647 316 653 316 20 316 658 879 659 879 20 879 659 316 660 316 20 316 660 880 26 880 20 880 661 316 649 316 28 316 32 881 661 881 28 881 660 316 662 316 26 316 662 882 30 882 26 882 663 883 661 883 32 883 36 316 663 316 32 316 662 884 664 884 30 884 664 316 34 316 30 316 40 316 665 316 36 316 666 885 663 885 36 885 665 316 666 316 36 316 667 886 38 886 34 886 664 316 668 316 34 316 668 887 667 887 34 887 44 888 669 888 40 888 669 316 670 316 40 316 670 889 665 889 40 889 667 890 671 890 38 890 671 316 672 316 38 316 672 316 42 316 38 316 656 316 673 316 653 316 673 891 674 891 653 891 674 316 675 316 653 316 675 316 658 316 653 316 48 316 676 316 44 316 676 316 677 316 44 316 677 316 669 316 44 316 678 316 46 316 42 316 672 316 679 316 42 316 679 316 678 316 42 316 52 316 680 316 48 316 680 316 681 316 48 316 681 316 676 316 48 316 678 316 682 316 46 316 682 316 683 316 46 316 683 892 50 892 46 892 56 893 684 893 52 893 684 316 685 316 52 316 685 316 680 316 52 316 683 316 686 316 50 316 686 316 687 316 50 316 687 894 54 894 50 894 688 895 663 895 666 895 689 896 688 896 666 896 665 897 689 897 666 897 690 898 671 898 667 898 691 899 690 899 667 899 668 897 691 897 667 897 692 900 689 900 665 900 670 901 692 901 665 901 693 902 661 902 663 902 688 903 693 903 663 903 694 900 691 900 668 900 664 904 694 904 668 904 695 905 672 905 671 905 690 906 695 906 671 906 696 907 692 907 670 907 669 908 696 908 670 908 697 909 698 909 661 909 693 910 697 910 661 910 698 316 649 316 661 316 699 911 694 911 664 911 662 908 699 908 664 908 700 912 679 912 672 912 695 913 700 913 672 913 701 914 696 914 669 914 677 915 701 915 669 915 702 916 703 916 698 916 697 917 702 917 698 917 703 316 649 316 698 316 704 914 699 914 662 914 660 915 704 915 662 915 705 918 678 918 679 918 700 919 705 919 679 919 706 920 701 920 677 920 676 921 706 921 677 921 707 922 708 922 703 922 702 923 707 923 703 923 655 924 649 924 703 924 708 316 655 316 703 316 709 920 704 920 660 920 659 925 709 925 660 925 710 926 682 926 678 926 705 927 710 927 678 927 711 928 706 928 676 928 681 929 711 929 676 929 712 930 713 930 708 930 707 931 712 931 708 931 713 316 655 316 708 316 714 932 709 932 659 932 658 929 714 929 659 929 715 930 683 930 682 930 710 931 715 931 682 931 716 933 711 933 681 933 680 934 716 934 681 934 717 935 718 935 713 935 712 936 717 936 713 936 718 316 655 316 713 316 719 933 714 933 658 933 675 937 719 937 658 937 720 938 686 938 683 938 715 939 720 939 683 939 721 940 716 940 680 940 685 941 721 941 680 941 722 942 723 942 718 942 717 943 722 943 718 943 723 316 655 316 718 316 724 944 719 944 675 944 674 945 724 945 675 945 725 946 687 946 686 946 720 946 725 946 686 946 726 947 721 947 685 947 684 948 726 948 685 948 727 949 728 949 723 949 722 949 727 949 723 949 728 950 655 950 723 950 729 945 724 945 674 945 673 948 729 948 674 948 730 951 731 951 687 951 725 951 730 951 687 951 731 952 54 952 687 952 56 316 732 316 684 316 733 948 726 948 684 948 732 7 733 7 684 7 734 6 735 6 728 6 727 6 734 6 728 6 735 316 655 316 728 316 656 316 736 316 673 316 737 948 729 948 673 948 736 7 737 7 673 7 738 6 739 6 731 6 730 6 738 6 731 6 739 316 54 316 731 316 657 953 740 953 656 953 740 316 736 316 656 316 60 316 741 316 56 316 741 954 732 954 56 954 739 955 58 955 54 955 742 7 733 7 732 7 741 956 742 956 732 956 743 957 744 957 735 957 734 957 743 957 735 957 744 958 655 958 735 958 745 7 737 7 736 7 740 956 745 956 736 956 746 959 747 959 739 959 738 959 746 959 739 959 747 316 58 316 739 316 60 960 748 960 741 960 749 956 742 956 741 956 748 961 749 961 741 961 750 962 751 962 744 962 743 963 750 963 744 963 751 316 655 316 744 316 657 964 752 964 740 964 753 956 745 956 740 956 752 965 753 965 740 965 754 966 755 966 747 966 746 967 754 967 747 967 755 968 58 968 747 968 60 969 756 969 748 969 757 970 749 970 748 970 756 971 757 971 748 971 758 972 759 972 751 972 750 973 758 973 751 973 759 316 655 316 751 316 657 974 760 974 752 974 761 975 753 975 752 975 760 976 761 976 752 976 762 977 763 977 755 977 754 978 762 978 755 978 62 316 58 316 755 316 763 316 62 316 755 316 60 316 65 316 756 316 65 979 764 979 756 979 765 980 757 980 756 980 764 981 765 981 756 981 766 982 767 982 759 982 758 983 766 983 759 983 767 316 655 316 759 316 657 984 768 984 760 984 769 985 761 985 760 985 768 981 769 981 760 981 770 982 771 982 763 982 762 983 770 983 763 983 771 316 62 316 763 316 65 986 772 986 764 986 773 987 765 987 764 987 772 988 773 988 764 988 774 989 775 989 767 989 766 990 774 990 767 990 775 316 655 316 767 316 657 991 776 991 768 991 777 987 769 987 768 987 776 992 777 992 768 992 778 993 779 993 771 993 770 993 778 993 771 993 67 316 62 316 771 316 779 994 67 994 771 994 538 995 780 995 772 995 65 316 538 316 772 316 781 988 773 988 772 988 780 996 781 996 772 996 782 997 783 997 775 997 774 998 782 998 775 998 783 316 655 316 775 316 657 999 784 999 776 999 785 992 777 992 776 992 784 996 785 996 776 996 786 1000 787 1000 779 1000 778 1000 786 1000 779 1000 787 316 67 316 779 316 376 1001 788 1001 780 1001 538 1002 376 1002 780 1002 789 1003 781 1003 780 1003 788 1004 789 1004 780 1004 790 1005 791 1005 783 1005 782 1006 790 1006 783 1006 364 316 655 316 783 316 791 316 364 316 783 316 657 1007 792 1007 784 1007 793 1003 785 1003 784 1003 792 1004 793 1004 784 1004 794 1008 795 1008 787 1008 786 1009 794 1009 787 1009 795 316 67 316 787 316 376 1010 796 1010 788 1010 797 1011 789 1011 788 1011 796 1012 797 1012 788 1012 798 1013 799 1013 791 1013 790 1014 798 1014 791 1014 799 316 364 316 791 316 657 1015 800 1015 792 1015 801 1011 793 1011 792 1011 800 1016 801 1016 792 1016 802 1017 803 1017 795 1017 794 1018 802 1018 795 1018 803 316 67 316 795 316 376 316 804 316 796 316 805 1019 797 1019 796 1019 804 1020 805 1020 796 1020 806 1021 804 1021 799 1021 798 1022 806 1022 799 1022 366 316 364 316 799 316 804 316 366 316 799 316 657 316 807 316 800 316 808 1023 801 1023 800 1023 807 1020 808 1020 800 1020 809 1024 807 1024 803 1024 802 1025 809 1025 803 1025 807 316 346 316 803 316 346 1026 361 1026 803 1026 361 316 363 316 803 316 369 316 371 316 803 316 363 316 365 316 803 316 365 316 367 316 803 316 367 1027 369 1027 803 1027 371 316 373 316 803 316 373 316 375 316 803 316 375 1028 67 1028 803 1028 376 316 374 316 804 316 374 1029 372 1029 804 1029 372 316 370 316 804 316 368 316 366 316 804 316 370 1030 368 1030 804 1030 806 1031 805 1031 804 1031 657 1032 346 1032 807 1032 809 1031 808 1031 807 1031 364 316 362 316 655 316 362 1033 657 1033 655 1033 362 316 321 316 657 316 321 1034 346 1034 657 1034 538 1035 378 1035 376 1035 377 316 67 316 375 316 538 1036 382 1036 378 1036 379 316 67 316 377 316 538 316 381 316 382 316 385 316 67 316 379 316 538 1037 388 1037 381 1037 386 316 67 316 385 316 538 1038 398 1038 388 1038 390 316 67 316 386 316 538 1039 401 1039 398 1039 400 316 67 316 390 316 538 1040 404 1040 401 1040 403 316 67 316 400 316 538 1041 408 1041 404 1041 407 1042 67 1042 403 1042 538 1043 411 1043 408 1043 410 1044 67 1044 407 1044 538 1045 414 1045 411 1045 413 1046 67 1046 410 1046 538 1047 417 1047 414 1047 416 316 67 316 413 316 538 1048 419 1048 417 1048 418 316 67 316 416 316 538 1049 426 1049 419 1049 420 316 67 316 418 316 538 316 420 316 426 316 538 1050 67 1050 420 1050 692 316 688 316 689 316 694 316 690 316 691 316 693 316 688 316 692 316 696 316 693 316 692 316 695 316 690 316 694 316 699 1051 695 1051 694 1051 701 1052 693 1052 696 1052 726 316 733 316 693 316 733 316 742 316 693 316 742 316 749 316 693 316 701 316 706 316 693 316 706 316 711 316 693 316 765 1053 697 1053 693 1053 757 316 765 316 693 316 749 316 757 316 693 316 711 1054 716 1054 693 1054 716 316 721 316 693 316 721 316 726 316 693 316 704 1052 695 1052 699 1052 729 316 737 316 695 316 737 316 745 316 695 316 745 316 753 316 695 316 704 316 709 316 695 316 709 1055 714 1055 695 1055 769 1056 700 1056 695 1056 761 1057 769 1057 695 1057 753 316 761 316 695 316 714 1058 719 1058 695 1058 719 316 724 316 695 316 724 316 729 316 695 316 765 1059 702 1059 697 1059 769 316 705 316 700 316 765 1060 707 1060 702 1060 769 1061 710 1061 705 1061 765 1062 712 1062 707 1062 769 1063 715 1063 710 1063 765 1064 717 1064 712 1064 769 1065 720 1065 715 1065 765 1066 722 1066 717 1066 769 1067 725 1067 720 1067 765 1068 727 1068 722 1068 769 1069 730 1069 725 1069 765 316 734 316 727 316 769 316 738 316 730 316 765 1070 743 1070 734 1070 769 1071 746 1071 738 1071 765 1072 750 1072 743 1072 769 1073 754 1073 746 1073 765 1074 758 1074 750 1074 769 1075 762 1075 754 1075 782 316 774 316 765 316 774 1076 766 1076 765 1076 766 316 758 316 765 316 773 316 797 316 765 316 797 316 805 316 765 316 805 316 806 316 765 316 806 316 798 316 765 316 798 316 790 316 765 316 790 1077 782 1077 765 1077 786 316 778 316 769 316 778 1078 770 1078 769 1078 770 316 762 316 769 316 777 1079 801 1079 769 1079 801 316 808 316 769 316 808 316 809 316 769 316 809 316 802 316 769 316 802 316 794 316 769 316 794 1077 786 1077 769 1077 781 316 789 316 773 316 789 316 797 316 773 316 785 316 793 316 777 316 793 1080 801 1080 777 1080</p>
        </triangles>
      </mesh>
    </geometry>
  </library_geometries>
  <library_controllers/>
  <library_visual_scenes>
    <visual_scene id="Scene" name="Scene">
      <node id="Camera" name="Camera" type="NODE">
        <matrix sid="transform">0.6859207 -0.3240135 0.6515582 7.481132 0.7276763 0.3054208 -0.6141704 -6.50764 0 0.8953956 0.4452714 5.343665 0 0 0 1</matrix>
        <instance_camera url="#Camera-camera"/>
      </node>
      <node id="Lamp" name="Lamp" type="NODE">
        <matrix sid="transform">-0.2908646 -0.7711008 0.5663932 4.076245 0.9551712 -0.1998834 0.2183912 1.005454 -0.05518906 0.6045247 0.7946723 5.903862 0 0 0 1</matrix>
        <instance_light url="#Lamp-light"/>
      </node>
      <node id="myntai_mount" name="myntai_mount" type="NODE">
        <matrix sid="transform">-4.37113e-10 -4.37114e-10 0.00999999 0.1484579 -0.00999999 -4.37113e-10 -4.37114e-10 0.001204744 4.37114e-10 -0.00999999 -4.37113e-10 0.1628387 0 0 0 1</matrix>
        <instance_geometry url="#myntai_mount-mesh" name="myntai_mount"/>
      </node>
    </visual_scene>
  </library_visual_scenes>
  <scene>
    <instance_visual_scene url="#Scene"/>
  </scene>
</COLLADA>