<?xml version="1.0" encoding="utf-8"?>
<COLLADA xmlns="http://www.collada.org/2005/11/COLLADASchema" version="1.4.1">
  <asset>
    <contributor>
      <author>Blender User</author>
      <authoring_tool>Blender 2.79.0</authoring_tool>
    </contributor>
    <created>2021-01-10T22:12:25</created>
    <modified>2021-01-10T22:12:25</modified>
    <unit name="meter" meter="1"/>
    <up_axis>Z_UP</up_axis>
  </asset>
  <library_cameras>
    <camera id="Camera-camera" name="Camera">
      <optics>
        <technique_common>
          <perspective>
            <xfov sid="xfov">49.13434</xfov>
            <aspect_ratio>1.777778</aspect_ratio>
            <znear sid="znear">0.1</znear>
            <zfar sid="zfar">100</zfar>
          </perspective>
        </technique_common>
      </optics>
      <extra>
        <technique profile="blender">
          <shiftx sid="shiftx" type="float">0</shiftx>
          <shifty sid="shifty" type="float">0</shifty>
          <YF_dofdist sid="YF_dofdist" type="float">0</YF_dofdist>
        </technique>
      </extra>
    </camera>
  </library_cameras>
  <library_lights>
    <light id="Lamp-light" name="Lamp">
      <technique_common>
        <point>
          <color sid="color">1 1 1</color>
          <constant_attenuation>1</constant_attenuation>
          <linear_attenuation>0</linear_attenuation>
          <quadratic_attenuation>0.00111109</quadratic_attenuation>
        </point>
      </technique_common>
      <extra>
        <technique profile="blender">
          <type sid="type" type="int">0</type>
          <flag sid="flag" type="int">0</flag>
          <mode sid="mode" type="int">8192</mode>
          <gamma sid="blender_gamma" type="float">1</gamma>
          <red sid="red" type="float">1</red>
          <green sid="green" type="float">1</green>
          <blue sid="blue" type="float">1</blue>
          <shadow_r sid="blender_shadow_r" type="float">0</shadow_r>
          <shadow_g sid="blender_shadow_g" type="float">0</shadow_g>
          <shadow_b sid="blender_shadow_b" type="float">0</shadow_b>
          <energy sid="blender_energy" type="float">1</energy>
          <dist sid="blender_dist" type="float">29.99998</dist>
          <spotsize sid="spotsize" type="float">75</spotsize>
          <spotblend sid="spotblend" type="float">0.15</spotblend>
          <halo_intensity sid="blnder_halo_intensity" type="float">1</halo_intensity>
          <att1 sid="att1" type="float">0</att1>
          <att2 sid="att2" type="float">1</att2>
          <falloff_type sid="falloff_type" type="int">2</falloff_type>
          <clipsta sid="clipsta" type="float">1.000799</clipsta>
          <clipend sid="clipend" type="float">30.002</clipend>
          <bias sid="bias" type="float">1</bias>
          <soft sid="soft" type="float">3</soft>
          <compressthresh sid="compressthresh" type="float">0.04999995</compressthresh>
          <bufsize sid="bufsize" type="int">2880</bufsize>
          <samp sid="samp" type="int">3</samp>
          <buffers sid="buffers" type="int">1</buffers>
          <filtertype sid="filtertype" type="int">0</filtertype>
          <bufflag sid="bufflag" type="int">0</bufflag>
          <buftype sid="buftype" type="int">2</buftype>
          <ray_samp sid="ray_samp" type="int">1</ray_samp>
          <ray_sampy sid="ray_sampy" type="int">1</ray_sampy>
          <ray_sampz sid="ray_sampz" type="int">1</ray_sampz>
          <ray_samp_type sid="ray_samp_type" type="int">0</ray_samp_type>
          <area_shape sid="area_shape" type="int">1</area_shape>
          <area_size sid="area_size" type="float">0.1</area_size>
          <area_sizey sid="area_sizey" type="float">0.1</area_sizey>
          <area_sizez sid="area_sizez" type="float">1</area_sizez>
          <adapt_thresh sid="adapt_thresh" type="float">0.000999987</adapt_thresh>
          <ray_samp_method sid="ray_samp_method" type="int">1</ray_samp_method>
          <shadhalostep sid="shadhalostep" type="int">0</shadhalostep>
          <sun_effect_type sid="sun_effect_type" type="int">0</sun_effect_type>
          <skyblendtype sid="skyblendtype" type="int">1</skyblendtype>
          <horizon_brightness sid="horizon_brightness" type="float">1</horizon_brightness>
          <spread sid="spread" type="float">1</spread>
          <sun_brightness sid="sun_brightness" type="float">1</sun_brightness>
          <sun_size sid="sun_size" type="float">1</sun_size>
          <backscattered_light sid="backscattered_light" type="float">1</backscattered_light>
          <sun_intensity sid="sun_intensity" type="float">1</sun_intensity>
          <atm_turbidity sid="atm_turbidity" type="float">2</atm_turbidity>
          <atm_extinction_factor sid="atm_extinction_factor" type="float">1</atm_extinction_factor>
          <atm_distance_factor sid="atm_distance_factor" type="float">1</atm_distance_factor>
          <skyblendfac sid="skyblendfac" type="float">1</skyblendfac>
          <sky_exposure sid="sky_exposure" type="float">1</sky_exposure>
          <sky_colorspace sid="sky_colorspace" type="int">0</sky_colorspace>
        </technique>
      </extra>
    </light>
  </library_lights>
  <library_images/>
  <library_geometries>
    <geometry id="sick_lidar_support-mesh" name="sick lidar support">
      <mesh>
        <source id="sick_lidar_support-mesh-positions">
          <float_array id="sick_lidar_support-mesh-positions-array" count="2958">-37.81381 3.732001 -34.05279 -36.26729 0.5570008 -34.05279 -37.81381 0.5570008 -34.05279 -40.98881 0.5570008 -30.87779 -38.31049 0.5570008 -34.0137 -40.98881 0.5570008 -22.81965 -36.26729 0.5570008 -22.81965 -36.26729 3.732001 -34.05279 -32.48534 0.5570008 -34.05279 -34.3702 0.5570008 -28.45315 -34.63881 0.5570008 -28.47541 -34.90742 0.5570008 -28.45315 -35.1687 0.5570008 -28.38698 -36.26519 0.5570008 -26.97822 -36.22082 0.5570008 -27.24408 -35.41553 0.5570008 -28.27871 -35.64117 0.5570008 -28.13129 -35.83948 0.5570008 -27.94874 -36.00503 0.5570008 -27.73605 -36.13331 0.5570008 -27.499 -32.48534 3.732001 -34.05279 -9.540089 0.5570008 -34.05279 -9.540089 0.5570008 -22.81965 -34.10892 0.5570008 -28.38698 -32.48534 0.5570008 -22.81965 -33.01243 0.5570008 -26.97822 -33.0568 0.5570008 -27.24408 -33.14432 0.5570008 -27.499 -33.2726 0.5570008 -27.73605 -33.43815 0.5570008 -27.94874 -33.63645 0.5570008 -28.13129 -33.86209 0.5570008 -28.27871 -9.540089 3.732001 -34.05279 10.11246 0.5570008 -34.05279 10.11246 0.5570008 -22.81965 10.11246 3.732001 -34.05279 27.26119 0.5570008 -34.05279 27.26119 0.5570008 -22.81965 27.26119 3.732001 -34.05279 33.05771 0.5570008 -34.05279 33.05771 0.5570008 -22.81965 33.05771 3.732001 -34.05279 38.38619 0.5570008 -34.05279 35.4798 0.5570008 -28.45315 35.21118 0.5570008 -28.47541 34.94258 0.5570008 -28.45315 34.68129 0.5570008 -28.38698 34.43446 0.5570008 -28.27871 34.20882 0.5570008 -28.13129 34.01052 0.5570008 -27.94874 33.84497 0.5570008 -27.73605 33.71669 0.5570008 -27.499 33.62918 0.5570008 -27.24408 33.58481 0.5570008 -26.97822 38.38619 3.732001 -34.05279 35.74108 0.5570008 -28.38698 35.98791 0.5570008 -28.27871 38.88286 0.5570008 -34.0137 38.88286 3.732001 -34.0137 -38.79494 0.5570008 -33.8974 -38.31049 3.732001 -34.0137 36.21355 0.5570008 -28.13129 39.36731 0.5570008 -33.8974 39.36731 3.732001 -33.8974 -39.25523 0.5570008 -33.70674 -38.79494 3.732001 -33.8974 39.82761 0.5570008 -33.70674 39.82761 3.732001 -33.70674 -39.68003 0.5570008 -33.44642 -39.25523 3.732001 -33.70674 40.25241 0.5570008 -33.44642 40.25241 3.732001 -33.44642 -40.05888 0.5570008 -33.12286 -39.68003 3.732001 -33.44642 40.63125 0.5570008 -33.12286 40.63125 3.732001 -33.12286 -40.38244 0.5570008 -32.74401 -40.05888 3.732001 -33.12286 40.95481 0.5570008 -32.74401 40.95481 3.732001 -32.74401 -40.64276 0.5570008 -32.31921 -40.38244 3.732001 -32.74401 36.41185 0.5570008 -27.94874 41.21513 0.5570008 -32.31921 41.21513 3.732001 -32.31921 -40.94972 0.5570008 -31.37447 -40.83342 0.5570008 -31.85892 -40.64276 3.732001 -32.31921 41.40579 0.5570008 -31.85892 41.40579 3.732001 -31.85892 -40.83342 3.732001 -31.85892 41.5221 0.5570008 -31.37447 41.5221 3.732001 -31.37447 -40.94972 3.732001 -31.37447 41.56118 0.5570008 -30.87779 36.5774 0.5570008 -27.73605 41.56118 3.732001 -30.87779 -40.98881 3.732001 -22.81965 -40.98881 3.732001 -30.87779 41.56118 0.5570008 -22.81965 36.83756 0.5570008 -26.70869 36.83756 0.5570008 -26.97822 36.7932 0.5570008 -27.24408 36.70568 0.5570008 -27.499 -34.63881 3.732001 -28.47541 -34.3702 3.732001 -28.45315 35.21118 3.732001 -28.47541 35.4798 3.732001 -28.45315 -34.90742 3.732001 -28.45315 -34.10892 3.732001 -28.38698 34.94258 3.732001 -28.45315 35.74108 3.732001 -28.38698 -35.1687 3.732001 -28.38698 -33.86209 3.732001 -28.27871 34.68129 3.732001 -28.38698 35.98791 3.732001 -28.27871 -35.41553 3.732001 -28.27871 -33.63645 3.732001 -28.13129 34.43446 3.732001 -28.27871 36.21355 3.732001 -28.13129 -35.64117 3.732001 -28.13129 -33.43815 3.732001 -27.94874 34.20882 3.732001 -28.13129 36.41185 3.732001 -27.94874 -35.83948 3.732001 -27.94874 -33.2726 3.732001 -27.73605 34.01052 3.732001 -27.94874 36.5774 3.732001 -27.73605 -36.00503 3.732001 -27.73605 -33.14432 3.732001 -27.499 33.84497 3.732001 -27.73605 36.70568 3.732001 -27.499 -36.13331 3.732001 -27.499 -33.0568 3.732001 -27.24408 33.71669 3.732001 -27.499 36.7932 3.732001 -27.24408 -36.22082 3.732001 -27.24408 -33.01243 3.732001 -26.97822 33.62918 3.732001 -27.24408 36.83756 3.732001 -26.97822 -36.26519 3.732001 -26.97822 -36.26519 0.5570008 -26.70869 -33.01243 0.5570008 -26.70869 -33.01243 3.732001 -26.70869 33.58481 3.732001 -26.97822 33.58481 0.5570008 -26.70869 36.83756 3.732001 -26.70869 -36.26519 3.732001 -26.70869 -36.22082 0.5570008 -26.44284 -33.0568 0.5570008 -26.44284 -33.0568 3.732001 -26.44284 33.58481 3.732001 -26.70869 33.62918 0.5570008 -26.44284 36.7932 0.5570008 -26.44284 36.7932 3.732001 -26.44284 -36.22082 3.732001 -26.44284 -36.13331 0.5570008 -26.18791 -33.14432 0.5570008 -26.18791 -33.14432 3.732001 -26.18791 33.62918 3.732001 -26.44284 33.71669 0.5570008 -26.18791 36.70568 0.5570008 -26.18791 36.70568 3.732001 -26.18791 -36.13331 3.732001 -26.18791 -36.00503 0.5570008 -25.95086 -33.2726 0.5570008 -25.95086 -33.2726 3.732001 -25.95086 33.71669 3.732001 -26.18791 33.84497 0.5570008 -25.95086 36.5774 0.5570008 -25.95086 36.5774 3.732001 -25.95086 -36.00503 3.732001 -25.95086 -35.83948 0.5570008 -25.73817 -33.43815 0.5570008 -25.73817 -33.43815 3.732001 -25.73817 33.84497 3.732001 -25.95086 34.01052 0.5570008 -25.73817 36.41185 0.5570008 -25.73817 36.41185 3.732001 -25.73817 -35.83948 3.732001 -25.73817 -35.64117 0.5570008 -25.55562 -33.63645 0.5570008 -25.55562 -33.63645 3.732001 -25.55562 34.01052 3.732001 -25.73817 34.20882 0.5570008 -25.55562 36.21355 0.5570008 -25.55562 36.21355 3.732001 -25.55562 -35.64117 3.732001 -25.55562 -35.41553 0.5570008 -25.4082 -33.86209 0.5570008 -25.4082 -33.86209 3.732001 -25.4082 34.20882 3.732001 -25.55562 34.43446 0.5570008 -25.4082 35.98791 0.5570008 -25.4082 35.98791 3.732001 -25.4082 -35.41553 3.732001 -25.4082 -35.1687 0.5570008 -25.29993 -34.10892 0.5570008 -25.29993 -34.10892 3.732001 -25.29993 34.43446 3.732001 -25.4082 34.68129 0.5570008 -25.29993 35.74108 0.5570008 -25.29993 35.74108 3.732001 -25.29993 -35.1687 3.732001 -25.29993 -34.90742 0.5570008 -25.23376 -34.3702 0.5570008 -25.23376 -34.3702 3.732001 -25.23376 34.68129 3.732001 -25.29993 34.94258 0.5570008 -25.23376 35.4798 0.5570008 -25.23376 35.4798 3.732001 -25.23376 -34.90742 3.732001 -25.23376 -34.63881 0.5570008 -25.2115 -34.63881 3.732001 -25.2115 34.94258 3.732001 -25.23376 35.21118 0.5570008 -25.2115 35.21118 3.732001 -25.2115 -40.98881 3.732001 -11.91957 -40.98881 0.5570008 -11.91957 -36.26729 0.5570008 -11.91957 -32.48534 0.5570008 -11.91957 -20.52292 0.5570008 -20.2229 -20.75798 0.5570008 -20.06933 -20.96455 0.5570008 -19.87917 -19.71381 0.5570008 -20.42779 -19.99363 0.5570008 -20.40461 -20.2658 0.5570008 -20.33568 -21.137 0.5570008 -19.65761 -21.27063 0.5570008 -19.41068 -21.36179 0.5570008 -19.14512 -21.40801 0.5570008 -18.86818 -21.40801 0.5570008 -18.58741 -19.16182 0.5570008 -20.33568 -19.434 0.5570008 -20.40461 -18.46308 0.5570008 -19.87917 -18.66965 0.5570008 -20.06933 -18.9047 0.5570008 -20.2229 -9.540089 0.5570008 -11.91957 -18.06583 0.5570008 -18.31047 10.11246 0.5570008 -11.91957 -18.01962 0.5570008 -18.58741 -18.01962 0.5570008 -18.86818 -18.06583 0.5570008 -19.14512 -18.157 0.5570008 -19.41068 -18.29063 0.5570008 -19.65761 27.26119 0.5570008 -11.91957 33.05771 0.5570008 -11.91957 41.56118 0.5570008 -11.91957 41.56118 3.732001 -22.81965 -19.71381 3.732001 -20.42779 -19.434 3.732001 -20.40461 -19.99363 3.732001 -20.40461 -19.16182 3.732001 -20.33568 -20.2658 3.732001 -20.33568 -18.9047 3.732001 -20.2229 -20.52292 3.732001 -20.2229 -18.66965 3.732001 -20.06933 -20.75798 3.732001 -20.06933 -18.46308 3.732001 -19.87917 -20.96455 3.732001 -19.87917 -18.29063 3.732001 -19.65761 -21.137 3.732001 -19.65761 -18.157 3.732001 -19.41068 -21.27063 3.732001 -19.41068 -18.06583 3.732001 -19.14512 -21.36179 3.732001 -19.14512 -18.01962 3.732001 -18.86818 -21.40801 3.732001 -18.86818 -18.01962 3.732001 -18.58741 -21.40801 3.732001 -18.58741 -21.36179 0.5570008 -18.31047 -18.06583 3.732001 -18.31047 -21.36179 3.732001 -18.31047 -21.27063 0.5570008 -18.04491 -18.157 0.5570008 -18.04491 -18.157 3.732001 -18.04491 -21.27063 3.732001 -18.04491 -21.137 0.5570008 -17.79798 -18.29063 0.5570008 -17.79798 -18.29063 3.732001 -17.79798 -21.137 3.732001 -17.79798 -20.96455 0.5570008 -17.57641 -18.46308 0.5570008 -17.57641 -18.46308 3.732001 -17.57641 -20.96455 3.732001 -17.57641 -20.75798 0.5570008 -17.38625 -18.66965 0.5570008 -17.38625 -18.66965 3.732001 -17.38625 -20.75798 3.732001 -17.38625 -20.52292 0.5570008 -17.23269 -18.9047 0.5570008 -17.23269 -18.9047 3.732001 -17.23269 -20.52292 3.732001 -17.23269 -20.2658 0.5570008 -17.11991 -19.16182 0.5570008 -17.11991 -19.16182 3.732001 -17.11991 -20.2658 3.732001 -17.11991 -19.99363 0.5570008 -17.05098 -19.434 0.5570008 -17.05098 -19.434 3.732001 -17.05098 -19.99363 3.732001 -17.05098 -19.71381 0.5570008 -17.02779 -19.71381 3.732001 -17.02779 -40.98881 3.732001 -3.279517 -40.98881 0.5570008 -3.279517 -36.26729 0.5570008 -3.279517 -32.48534 0.5570008 -3.279517 -9.540089 0.5570008 -3.279517 0.508808 0.5570008 -6.792899 0.2861861 0.5570008 -6.811343 0.06356412 0.5570008 -6.792899 -0.1529847 0.5570008 -6.738059 -0.3575555 0.5570008 -6.648328 -0.5445672 0.5570008 -6.526145 -0.7089158 0.5570008 -6.37485 -0.8461229 0.5570008 -6.198569 -0.9524423 0.5570008 -6.002109 -1.024975 0.5570008 -5.790826 1.281292 0.5570008 -6.37485 1.116939 0.5570008 -6.526145 0.9299277 0.5570008 -6.648328 0.7253608 0.5570008 -6.738059 1.634117 0.5570008 -5.570485 1.597351 0.5570008 -5.790826 1.524814 0.5570008 -6.002109 1.418495 0.5570008 -6.198569 10.11246 0.5570008 -3.279517 27.26119 0.5570008 -3.279517 33.05771 0.5570008 -3.279517 41.56118 0.5570008 -3.279517 41.56118 3.732001 -11.91957 0.2861861 3.732001 -6.811343 0.508808 3.732001 -6.792899 0.06356412 3.732001 -6.792899 0.7253608 3.732001 -6.738059 -0.1529847 3.732001 -6.738059 0.9299277 3.732001 -6.648328 -0.3575555 3.732001 -6.648328 1.116939 3.732001 -6.526145 -0.5445672 3.732001 -6.526145 1.281292 3.732001 -6.37485 -0.7089158 3.732001 -6.37485 1.418495 3.732001 -6.198569 -0.8461229 3.732001 -6.198569 1.524814 3.732001 -6.002109 -0.9524423 3.732001 -6.002109 1.597351 3.732001 -5.790826 -1.024975 3.732001 -5.790826 -1.061745 0.5570008 -5.570485 1.634117 3.732001 -5.570485 -1.061745 3.732001 -5.570485 -1.061745 0.5570008 -5.347102 1.634117 0.5570008 -5.347102 1.634117 3.732001 -5.347102 -1.061745 3.732001 -5.347102 -1.024975 0.5570008 -5.126763 1.597351 0.5570008 -5.126763 1.597351 3.732001 -5.126763 -1.024975 3.732001 -5.126763 -0.9524423 0.5570008 -4.915482 1.524814 0.5570008 -4.915482 1.524814 3.732001 -4.915482 -0.9524423 3.732001 -4.915482 -0.8461229 0.5570008 -4.719018 1.418495 0.5570008 -4.719018 1.418495 3.732001 -4.719018 -0.8461229 3.732001 -4.719018 -0.7089158 0.5570008 -4.542737 1.281292 0.5570008 -4.542737 1.281292 3.732001 -4.542737 -0.7089158 3.732001 -4.542737 -0.5445672 0.5570008 -4.391442 1.116939 0.5570008 -4.391442 1.116939 3.732001 -4.391442 -0.5445672 3.732001 -4.391442 -0.3575555 0.5570008 -4.269261 0.9299277 0.5570008 -4.269261 0.9299277 3.732001 -4.269261 -0.3575555 3.732001 -4.269261 -0.1529847 0.5570008 -4.17953 0.7253608 0.5570008 -4.17953 0.7253608 3.732001 -4.17953 -0.1529847 3.732001 -4.17953 0.06356412 0.5570008 -4.12469 0.508808 0.5570008 -4.12469 0.508808 3.732001 -4.12469 0.06356412 3.732001 -4.12469 0.2861861 0.5570008 -4.106246 0.2861861 3.732001 -4.106246 -40.98881 3.732001 4.248931 -40.98881 0.5570008 4.248931 -36.26729 0.5570008 4.248931 -36.03361 0.5570008 -1.27073 -36.16957 0.5570008 -0.9323626 -34.9994 0.5570008 -2.261937 -35.31776 0.5570008 -2.08409 -34.11381 0.5570008 -2.452794 -34.29615 0.5570008 -2.44505 -34.65556 0.5570008 -2.383422 -35.60148 0.5570008 -1.855 -35.84241 0.5570008 -1.581254 -36.2464 0.5570008 -0.5758829 -36.26187 0.5570008 -0.2115449 -32.38522 0.5570008 -1.581254 -32.48534 0.5570008 -1.695012 -32.62614 0.5570008 -1.855 -32.90987 0.5570008 -2.08409 -33.22822 0.5570008 -2.261937 -33.57206 0.5570008 -2.383422 -33.93148 0.5570008 -2.44505 -31.98123 0.5570008 -0.5758829 -32.05805 0.5570008 -0.9323626 -32.19402 0.5570008 -1.27073 10.11246 0.5570008 4.248931 -9.540089 0.5570008 4.248931 -31.96575 0.5570008 -0.2115449 27.26119 0.5570008 4.248931 32.7664 0.5570008 -1.27073 32.63043 0.5570008 -0.9323626 33.05771 0.5570008 -1.695012 32.95759 0.5570008 -1.581254 32.5536 0.5570008 -0.5758829 32.53812 0.5570008 -0.2115449 34.50386 0.5570008 -2.44505 34.14443 0.5570008 -2.383422 33.8006 0.5570008 -2.261937 33.48224 0.5570008 -2.08409 34.86852 0.5570008 -2.44505 34.68619 0.5570008 -2.452794 33.19852 0.5570008 -1.855 41.56118 3.732001 -3.279517 41.56118 0.5570008 4.248931 36.81877 0.5570008 -0.5758829 36.74195 0.5570008 -0.9323626 36.60597 0.5570008 -1.27073 35.89013 0.5570008 -2.08409 35.57177 0.5570008 -2.261937 36.41478 0.5570008 -1.581254 36.17385 0.5570008 -1.855 36.78793 0.5570008 0.1501684 36.83425 0.5570008 -0.2115449 35.22794 0.5570008 -2.383422 -34.29615 3.732001 -2.44505 -33.93148 3.732001 -2.44505 34.50386 3.732001 -2.44505 34.86852 3.732001 -2.44505 -33.57206 3.732001 -2.383422 35.22794 3.732001 -2.383422 -34.65556 3.732001 -2.383422 -33.22822 3.732001 -2.261937 34.14443 3.732001 -2.383422 35.57177 3.732001 -2.261937 -34.9994 3.732001 -2.261937 -32.90987 3.732001 -2.08409 33.8006 3.732001 -2.261937 35.89013 3.732001 -2.08409 -35.31776 3.732001 -2.08409 -32.62614 3.732001 -1.855 33.48224 3.732001 -2.08409 36.17385 3.732001 -1.855 -35.60148 3.732001 -1.855 -32.48534 3.732001 -1.695012 33.19852 3.732001 -1.855 36.41478 3.732001 -1.581254 -32.38522 3.732001 -1.581254 33.05771 3.732001 -1.695012 -35.84241 3.732001 -1.581254 -32.19402 3.732001 -1.27073 32.95759 3.732001 -1.581254 36.60597 3.732001 -1.27073 -36.03361 3.732001 -1.27073 -32.05805 3.732001 -0.9323626 32.7664 3.732001 -1.27073 36.74195 3.732001 -0.9323626 -36.16957 3.732001 -0.9323626 -31.98123 3.732001 -0.5758829 32.63043 3.732001 -0.9323626 36.81877 3.732001 -0.5758829 -36.2464 3.732001 -0.5758829 -31.96575 3.732001 -0.2115449 32.5536 3.732001 -0.5758829 36.83425 3.732001 -0.2115449 -36.21556 0.5570008 0.1501684 -36.26187 3.732001 -0.2115449 -32.01207 0.5570008 0.1501684 -32.01207 3.732001 0.1501684 32.58444 0.5570008 0.1501684 32.53812 3.732001 -0.2115449 36.78793 3.732001 0.1501684 -36.10877 0.5570008 0.498847 -36.21556 3.732001 0.1501684 -32.11885 0.5570008 0.498847 -32.11885 3.732001 0.498847 32.69123 0.5570008 0.498847 32.58444 3.732001 0.1501684 36.68115 0.5570008 0.498847 36.68115 3.732001 0.498847 -35.9446 0.5570008 0.8244658 -36.10877 3.732001 0.498847 -32.28302 0.5570008 0.8244658 -32.28302 3.732001 0.8244658 32.8554 0.5570008 0.8244658 32.69123 3.732001 0.498847 36.51697 0.5570008 0.8244658 36.51697 3.732001 0.8244658 -35.72776 0.5570008 1.117656 -35.9446 3.732001 0.8244658 -32.48534 0.5570008 1.09801 -32.48534 3.732001 1.09801 33.05771 0.5570008 1.09801 33.05771 0.5570008 4.248931 32.8554 3.732001 0.8244658 36.30014 0.5570008 1.117656 36.30014 3.732001 1.117656 -32.48534 0.5570008 4.248931 -32.49987 0.5570008 1.117656 -32.49987 3.732001 1.117656 33.07225 0.5570008 1.117656 33.05771 3.732001 1.09801 -35.46448 0.5570008 1.369983 -35.72776 3.732001 1.117656 -32.76314 0.5570008 1.369983 -32.76314 3.732001 1.369983 33.33551 0.5570008 1.369983 33.07225 3.732001 1.117656 36.03686 0.5570008 1.369983 36.03686 3.732001 1.369983 -35.16236 0.5570008 1.574187 -35.46448 3.732001 1.369983 -33.06527 0.5570008 1.574187 -33.06527 3.732001 1.574187 33.63764 0.5570008 1.574187 33.33551 3.732001 1.369983 35.73473 0.5570008 1.574187 35.73473 3.732001 1.574187 -34.83006 0.5570008 1.724391 -35.16236 3.732001 1.574187 -33.39756 0.5570008 1.724391 -33.39756 3.732001 1.724391 33.96994 0.5570008 1.724391 33.63764 3.732001 1.574187 35.40244 0.5570008 1.724391 35.40244 3.732001 1.724391 -34.47716 0.5570008 1.816279 -34.83006 3.732001 1.724391 -33.75046 0.5570008 1.816279 -33.75046 3.732001 1.816279 34.32283 0.5570008 1.816279 33.96994 3.732001 1.724391 35.04954 0.5570008 1.816279 35.04954 3.732001 1.816279 -34.11381 0.5570008 1.847205 -34.47716 3.732001 1.816279 -34.11381 3.732001 1.847205 34.68619 0.5570008 1.847205 34.32283 3.732001 1.816279 34.68619 3.732001 1.847205 -40.98881 3.732001 20.9484 -40.98881 0.5570008 20.9484 -36.26729 0.5570008 20.9484 -32.48534 0.5570008 20.9484 -9.540089 0.5570008 20.9484 0.2861861 0.5570008 6.650657 0.06356412 0.5570008 6.669101 -0.1529847 0.5570008 6.723941 -0.3575555 0.5570008 6.813674 -0.5445672 0.5570008 6.935855 -0.7089158 0.5570008 7.08715 -0.8461229 0.5570008 7.263431 -0.9524423 0.5570008 7.459891 -1.024975 0.5570008 7.671172 -1.061745 0.5570008 7.891513 -1.061745 0.5570008 8.114898 -1.024975 0.5570008 8.335239 19.03545 0.5570008 20.12083 18.863 0.5570008 20.3424 20.00638 0.5570008 19.59539 19.7342 0.5570008 19.66432 10.11246 0.5570008 20.9484 20.28619 0.5570008 19.57221 19.47708 0.5570008 19.7771 19.24202 0.5570008 19.93067 0.508808 0.5570008 6.669101 1.116939 0.5570008 6.935855 0.9299277 0.5570008 6.813674 0.7253608 0.5570008 6.723941 1.524814 0.5570008 8.54652 1.597351 0.5570008 8.335239 1.634117 0.5570008 8.114898 1.634117 0.5570008 7.891513 1.597351 0.5570008 7.671172 1.524814 0.5570008 7.459891 1.418495 0.5570008 7.263431 1.281292 0.5570008 7.08715 21.843 0.5570008 20.58933 21.70937 0.5570008 20.3424 21.53692 0.5570008 20.12083 21.33035 0.5570008 19.93067 21.0953 0.5570008 19.7771 20.83818 0.5570008 19.66432 20.566 0.5570008 19.59539 33.05771 0.5570008 20.9484 27.26119 0.5570008 20.9484 41.56118 0.5570008 20.9484 41.56118 3.732001 4.248931 0.2861861 3.732001 6.650657 0.508808 3.732001 6.669101 0.06356412 3.732001 6.669101 0.7253608 3.732001 6.723941 -0.1529847 3.732001 6.723941 0.9299277 3.732001 6.813674 -0.3575555 3.732001 6.813674 1.116939 3.732001 6.935855 -0.5445672 3.732001 6.935855 1.281292 3.732001 7.08715 -0.7089158 3.732001 7.08715 1.418495 3.732001 7.263431 -0.8461229 3.732001 7.263431 1.524814 3.732001 7.459891 -0.9524423 3.732001 7.459891 1.597351 3.732001 7.671172 -1.024975 3.732001 7.671172 1.634117 3.732001 7.891513 -1.061745 3.732001 7.891513 1.634117 3.732001 8.114898 -1.061745 3.732001 8.114898 1.597351 3.732001 8.335239 -1.024975 3.732001 8.335239 -0.9524423 0.5570008 8.54652 1.524814 3.732001 8.54652 -0.9524423 3.732001 8.54652 -0.8461229 0.5570008 8.74298 1.418495 0.5570008 8.74298 1.418495 3.732001 8.74298 -0.8461229 3.732001 8.74298 -0.7089158 0.5570008 8.919265 1.281292 0.5570008 8.919265 1.281292 3.732001 8.919265 -0.7089158 3.732001 8.919265 -0.5445672 0.5570008 9.070556 1.116939 0.5570008 9.070556 1.116939 3.732001 9.070556 -0.5445672 3.732001 9.070556 -0.3575555 0.5570008 9.192737 0.9299277 0.5570008 9.192737 0.9299277 3.732001 9.192737 -0.3575555 3.732001 9.192737 -0.1529847 0.5570008 9.28247 0.7253608 0.5570008 9.28247 0.7253608 3.732001 9.28247 -0.1529847 3.732001 9.28247 0.06356412 0.5570008 9.33731 0.508808 0.5570008 9.33731 0.508808 3.732001 9.33731 0.06356412 3.732001 9.33731 0.2861861 0.5570008 9.355758 0.2861861 3.732001 9.355758 20.28619 3.732001 19.57221 20.566 3.732001 19.59539 20.00638 3.732001 19.59539 20.83818 3.732001 19.66432 19.7342 3.732001 19.66432 21.0953 3.732001 19.7771 19.47708 3.732001 19.7771 21.33035 3.732001 19.93067 19.24202 3.732001 19.93067 21.53692 3.732001 20.12083 19.03545 3.732001 20.12083 21.70937 3.732001 20.3424 18.863 3.732001 20.3424 18.72937 0.5570008 20.58933 21.843 3.732001 20.58933 18.72937 3.732001 20.58933 18.63821 0.5570008 20.85488 21.93417 0.5570008 20.85488 21.93417 3.732001 20.85488 18.63821 3.732001 20.85488 18.6226 0.5570008 20.9484 21.94977 0.5570008 20.9484 21.94977 3.732001 20.9484 -40.98881 3.732001 24.28035 -40.98881 0.5570008 24.28035 -36.26729 0.5570008 24.28035 -36.26519 0.5570008 23.82178 -36.22082 0.5570008 23.55592 -35.83948 0.5570008 22.85125 -36.00503 0.5570008 23.06395 -36.13331 0.5570008 23.301 -34.90742 0.5570008 22.34685 -35.1687 0.5570008 22.41302 -35.41553 0.5570008 22.52129 -35.64117 0.5570008 22.66871 -34.3702 0.5570008 22.34685 -34.63881 0.5570008 22.3246 -33.01243 0.5570008 23.82178 -33.0568 0.5570008 23.55592 -33.14432 0.5570008 23.301 -33.2726 0.5570008 23.06395 -33.43815 0.5570008 22.85125 -33.63645 0.5570008 22.66871 -33.86209 0.5570008 22.52129 -34.10892 0.5570008 22.41302 -9.540089 0.5570008 24.28035 -32.48534 0.5570008 24.28035 10.11246 0.5570008 24.28035 18.59199 0.5570008 21.13182 18.59199 0.5570008 21.41259 18.6226 3.732001 20.9484 21.98038 0.5570008 21.13182 21.98038 3.732001 21.13182 21.93417 0.5570008 21.68953 21.98038 0.5570008 21.41259 33.05771 0.5570008 24.28035 27.26119 0.5570008 24.28035 34.94258 0.5570008 22.34685 34.68129 0.5570008 22.41302 34.43446 0.5570008 22.52129 34.20882 0.5570008 22.66871 34.01052 0.5570008 22.85125 33.84497 0.5570008 23.06395 33.71669 0.5570008 23.301 35.4798 0.5570008 22.34685 35.21118 0.5570008 22.3246 33.62918 0.5570008 23.55592 41.56118 3.732001 20.9484 41.56118 0.5570008 24.28035 36.21355 0.5570008 22.66871 35.98791 0.5570008 22.52129 36.83756 0.5570008 23.82178 36.7932 0.5570008 23.55592 36.70568 0.5570008 23.301 36.5774 0.5570008 23.06395 36.41185 0.5570008 22.85125 35.74108 0.5570008 22.41302 18.59199 3.732001 21.13182 21.98038 3.732001 21.41259 18.59199 3.732001 21.41259 18.63821 0.5570008 21.68953 21.93417 3.732001 21.68953 18.63821 3.732001 21.68953 18.72937 0.5570008 21.95509 21.843 0.5570008 21.95509 21.843 3.732001 21.95509 18.72937 3.732001 21.95509 18.863 0.5570008 22.20202 21.70937 0.5570008 22.20202 21.70937 3.732001 22.20202 18.863 3.732001 22.20202 19.03545 0.5570008 22.42358 21.53692 0.5570008 22.42358 21.53692 3.732001 22.42358 -34.63881 3.732001 22.3246 -34.3702 3.732001 22.34685 35.21118 3.732001 22.3246 35.4798 3.732001 22.34685 -34.90742 3.732001 22.34685 -34.10892 3.732001 22.41302 34.94258 3.732001 22.34685 35.74108 3.732001 22.41302 -35.1687 3.732001 22.41302 -33.86209 3.732001 22.52129 34.68129 3.732001 22.41302 35.98791 3.732001 22.52129 19.03545 3.732001 22.42358 19.24202 0.5570008 22.61375 21.33035 0.5570008 22.61375 21.33035 3.732001 22.61375 -35.41553 3.732001 22.52129 -33.63645 3.732001 22.66871 34.43446 3.732001 22.52129 36.21355 3.732001 22.66871 19.24202 3.732001 22.61375 19.47708 0.5570008 22.76731 21.0953 0.5570008 22.76731 21.0953 3.732001 22.76731 -35.64117 3.732001 22.66871 -33.43815 3.732001 22.85125 34.20882 3.732001 22.66871 36.41185 3.732001 22.85125 19.47708 3.732001 22.76731 19.7342 0.5570008 22.8801 20.83818 0.5570008 22.8801 20.83818 3.732001 22.8801 -35.83948 3.732001 22.85125 -33.2726 3.732001 23.06395 34.01052 3.732001 22.85125 36.5774 3.732001 23.06395 19.7342 3.732001 22.8801 20.00638 0.5570008 22.94902 20.566 0.5570008 22.94902 20.566 3.732001 22.94902 20.00638 3.732001 22.94902 20.28619 0.5570008 22.97221 20.28619 3.732001 22.97221 -36.00503 3.732001 23.06395 -33.14432 3.732001 23.301 33.84497 3.732001 23.06395 36.70568 3.732001 23.301 -36.13331 3.732001 23.301 -33.0568 3.732001 23.55592 33.71669 3.732001 23.301 36.7932 3.732001 23.55592 -36.22082 3.732001 23.55592 -33.01243 3.732001 23.82178 33.62918 3.732001 23.55592 33.58481 0.5570008 23.82178 36.83756 3.732001 23.82178 -36.26519 3.732001 23.82178 -36.26519 0.5570008 24.09131 -33.01243 0.5570008 24.09131 -33.01243 3.732001 24.09131 33.58481 3.732001 23.82178 33.58481 0.5570008 24.09131 36.83756 0.5570008 24.09131 36.83756 3.732001 24.09131 -36.26519 3.732001 24.09131 -36.23364 0.5570008 24.28035 -33.04398 0.5570008 24.28035 -33.04398 3.732001 24.28035 33.58481 3.732001 24.09131 33.61635 0.5570008 24.28035 36.80602 0.5570008 24.28035 36.80602 3.732001 24.28035 -40.98881 3.732001 26.27221 -40.98881 0.5570008 26.27221 -36.22082 0.5570008 24.35717 -40.94972 0.5570008 26.76889 -36.26729 0.5570008 29.44721 -37.81381 0.5570008 29.44721 -38.31049 0.5570008 29.40812 -38.79494 0.5570008 29.29181 -39.25523 0.5570008 29.10115 -39.68003 0.5570008 28.84084 -40.05888 0.5570008 28.51727 -40.38244 0.5570008 28.13842 -40.64276 0.5570008 27.71363 -40.83342 0.5570008 27.25333 -36.23364 3.732001 24.28035 -33.0568 0.5570008 24.35717 -33.0568 3.732001 24.35717 -33.2726 0.5570008 24.84914 -33.14432 0.5570008 24.61209 -9.540089 0.5570008 29.44721 -32.48534 0.5570008 29.44721 10.11246 0.5570008 29.44721 27.26119 0.5570008 29.44721 33.05771 0.5570008 29.44721 33.62918 0.5570008 24.35717 33.71669 0.5570008 24.61209 33.61635 3.732001 24.28035 36.7932 0.5570008 24.35717 36.7932 3.732001 24.35717 41.56118 3.732001 24.28035 41.56118 0.5570008 26.27221 -36.22082 3.732001 24.35717 -36.13331 0.5570008 24.61209 -33.14432 3.732001 24.61209 33.62918 3.732001 24.35717 36.70568 0.5570008 24.61209 36.70568 3.732001 24.61209 -36.13331 3.732001 24.61209 -36.00503 0.5570008 24.84914 -33.2726 3.732001 24.84914 33.71669 3.732001 24.61209 33.84497 0.5570008 24.84914 41.40579 0.5570008 27.25333 36.5774 0.5570008 24.84914 41.5221 0.5570008 26.76889 36.5774 3.732001 24.84914 -36.00503 3.732001 24.84914 -35.83948 0.5570008 25.06184 -33.43815 0.5570008 25.06184 -33.43815 3.732001 25.06184 33.84497 3.732001 24.84914 34.01052 0.5570008 25.06184 41.21513 0.5570008 27.71363 40.95481 0.5570008 28.13842 40.63125 0.5570008 28.51727 36.41185 0.5570008 25.06184 36.41185 3.732001 25.06184 -35.83948 3.732001 25.06184 -35.64117 0.5570008 25.24439 -33.63645 0.5570008 25.24439 -33.63645 3.732001 25.24439 34.01052 3.732001 25.06184 34.20882 0.5570008 25.24439 39.82761 0.5570008 29.10115 36.21355 0.5570008 25.24439 40.25241 0.5570008 28.84084 36.21355 3.732001 25.24439 -35.64117 3.732001 25.24439 -35.41553 0.5570008 25.3918 -33.86209 0.5570008 25.3918 -33.86209 3.732001 25.3918 34.20882 3.732001 25.24439 34.43446 0.5570008 25.3918 38.88286 0.5570008 29.40812 35.98791 0.5570008 25.3918 39.36731 0.5570008 29.29181 35.98791 3.732001 25.3918 -35.41553 3.732001 25.3918 -35.1687 0.5570008 25.50007 -34.10892 0.5570008 25.50007 -34.10892 3.732001 25.50007 34.43446 3.732001 25.3918 34.68129 0.5570008 25.50007 38.38619 0.5570008 29.44721 35.74108 0.5570008 25.50007 35.74108 3.732001 25.50007 -35.1687 3.732001 25.50007 -34.90742 0.5570008 25.56624 -34.3702 0.5570008 25.56624 -34.3702 3.732001 25.56624 34.68129 3.732001 25.50007 34.94258 0.5570008 25.56624 35.4798 0.5570008 25.56624 35.4798 3.732001 25.56624 -34.90742 3.732001 25.56624 -34.63881 0.5570008 25.58849 -34.63881 3.732001 25.58849 34.94258 3.732001 25.56624 35.21118 0.5570008 25.58849 35.21118 3.732001 25.58849 41.56118 3.732001 26.27221 41.5221 3.732001 26.76889 -40.94972 3.732001 26.76889 41.40579 3.732001 27.25333 -40.83342 3.732001 27.25333 41.21513 3.732001 27.71363 -40.64276 3.732001 27.71363 40.95481 3.732001 28.13842 -40.38244 3.732001 28.13842 40.63125 3.732001 28.51727 -40.05888 3.732001 28.51727 40.25241 3.732001 28.84084 -39.68003 3.732001 28.84084 39.82761 3.732001 29.10115 -39.25523 3.732001 29.10115 39.36731 3.732001 29.29181 -38.79494 3.732001 29.29181 38.88286 3.732001 29.40812 -38.31049 3.732001 29.40812 38.38619 3.732001 29.44721 -37.81381 3.732001 29.44721 -36.26729 3.732001 29.44721 -32.48534 3.732001 29.44721 -9.540089 3.732001 29.44721 10.11246 3.732001 29.44721 27.26119 3.732001 29.44721 33.05771 3.732001 29.44721 -36.26729 3.732001 -22.81965 -32.48534 3.732001 -22.81965 -9.540089 3.732001 -22.81965 10.11246 3.732001 -22.81965 27.26119 3.732001 -22.81965 33.05771 3.732001 -22.81965 -36.26729 3.732001 -11.91957 -32.48534 3.732001 -11.91957 -9.540089 3.732001 -11.91957 10.11246 3.732001 -11.91957 27.26119 3.732001 -11.91957 33.05771 3.732001 -11.91957 -36.26729 3.732001 -3.279517 -32.48534 3.732001 -3.279517 -9.540089 3.732001 -3.279517 10.11246 3.732001 -3.279517 27.26119 3.732001 -3.279517 33.05771 3.732001 -3.279517 -36.26729 3.732001 4.248931 -9.540089 3.732001 4.248931 10.11246 3.732001 4.248931 27.26119 3.732001 4.248931 -32.48534 3.732001 4.248931 33.05771 3.732001 4.248931 -36.26729 3.732001 20.9484 -32.48534 3.732001 20.9484 -9.540089 3.732001 20.9484 10.11246 3.732001 20.9484 27.26119 3.732001 20.9484 33.05771 3.732001 20.9484 -36.26729 3.732001 24.28035 -9.540089 3.732001 24.28035 -32.48534 3.732001 24.28035 10.11246 3.732001 24.28035 27.26119 3.732001 24.28035 33.05771 3.732001 24.28035</float_array>
          <technique_common>
            <accessor source="#sick_lidar_support-mesh-positions-array" count="986" stride="3">
              <param name="X" type="float"/>
              <param name="Y" type="float"/>
              <param name="Z" type="float"/>
            </accessor>
          </technique_common>
        </source>
        <source id="sick_lidar_support-mesh-normals">
          <float_array id="sick_lidar_support-mesh-normals-array" count="2937">0 0 -1 0 -1 0 0 -1 0 -0.07846242 0 -0.9969171 0 -1 0 0 -1 0 0 -1 0 0 -1 0 0 -1 0 0 -1 0 0 -1 0 0 -1 0 0 -1 0 0 -1 0 0 -1 0 0 -1 0 0.07846361 0 -0.996917 0 -1 0 -0.2334392 0 -0.9723715 -0.07846242 0 -0.9969171 0.2334391 0 -0.9723714 0.2334392 0 -0.9723715 -0.3826876 0 -0.9238779 -0.2334391 0 -0.9723714 0.3826822 0 -0.9238801 0.3826904 0 -0.9238767 0 -1 0 -0.5224936 0 -0.8526433 -0.3826959 0 -0.9238745 0.5224936 0 -0.8526433 0.5225006 0 -0.852639 0 -1 -1.62659e-7 -0.649443 0 -0.7604104 -0.5225006 0 -0.852639 0.6494467 0 -0.7604072 0.6494467 0 -0.7604072 0 -1 1.59327e-7 -0.7604123 0 -0.6494408 -0.6494429 0 -0.7604104 0 -1 -1.44991e-7 0.7604122 0 -0.6494408 0.7604081 0 -0.6494455 -0.8526427 0 -0.5224946 -0.7604081 0 -0.6494456 0.8526427 0 -0.5224946 0.85264 0 -0.5224989 0 -1 -3.83718e-7 -0.9238758 0 -0.3826926 -0.85264 0 -0.5224989 0.9238785 0 -0.3826861 0.9238814 0 -0.3826793 -0.9723717 0 -0.233438 -0.9238786 0 -0.3826859 0 -1 1.65907e-7 0.9723683 0 -0.2334524 -0.9969174 0 -0.07845878 -0.9723717 0 -0.233438 0 -1 1.8353e-7 0.996918 0 -0.07845121 0.996918 0 -0.07845121 -1 0 0 -0.9969174 0 -0.07845878 1 0 0 0 -1 -3.00955e-7 0.08259111 0 0.9965836 -0.08257454 0 0.996585 -0.08259224 0 0.9965834 0.08259224 0 0.9965834 -0.08257222 0 0.9965851 -0.08258992 0 0.9965837 0.08257335 0 0.9965851 0.2454952 0 0.9693979 -0.2454884 0 0.9693995 0.08257454 0 0.996585 0.2454918 0 0.9693987 -0.2454985 0 0.969397 -0.2454985 0 0.969397 0.2454952 0 0.9693979 0.4016894 0 0.915776 -0.4017094 0 0.9157672 -0.4016945 0 0.9157737 0.2454918 0 0.9693987 0.4016842 0 0.9157783 -0.4016991 0 0.9157718 -0.4016841 0 0.9157783 0.4017043 0 0.9157695 0.5469461 0 0.8371679 -0.5469396 0 0.8371722 -0.5469396 0 0.8371722 0.4016991 0 0.9157717 -0.5469461 0 0.8371679 0.6772756 0 0.7357295 -0.6772923 0 0.7357141 -0.6772826 0 0.735723 -0.6772852 0 0.7357206 -0.6772756 0 0.7357295 0.6772852 0 0.7357206 0.7891358 0 0.6142189 -0.7891358 0 0.6142189 -0.7891357 0 0.614219 0.7891495 0 0.6142013 0.7891357 0 0.614219 0.8794822 0 0.4759318 -0.8794741 0 0.4759467 -0.8794822 0 0.4759318 0.7891494 0 0.6142013 0.8794741 0 0.4759467 0.9458163 0 0.3247025 -0.9458163 0 0.3247025 0.9863603 0 0.164601 -0.9863608 0 0.1645981 -0.9863603 0 0.164601 -0.9863653 0 0.1645706 -0.9863649 0 0.1645735 0.9863608 0 0.1645981 0.9863603 0 -0.164601 0 -1 0 0 -1 0 -0.9863603 0 -0.164601 0 -1 0 -0.9863649 0 -0.1645734 -0.9863649 0 -0.1645735 0.9458163 0 -0.3247025 0 -1 0 -0.94582 0 -0.3246915 -0.9458163 0 -0.3247025 0 -1 0 0.94582 0 -0.3246915 0.8794741 0 -0.4759467 0 -1 0 0 -1 0 -0.8794741 0 -0.4759467 0 -1 2.54153e-7 0.7891358 0 -0.6142189 0 -1 0 -0.7891426 0 -0.6142103 -0.7891357 0 -0.614219 0.7891495 0 -0.6142013 0 -1 0 0 -1 -1.5105e-7 0.7891424 0 -0.6142104 0.6772756 0 -0.7357295 0 -1 0 0 -1 0 -0.6772923 0 -0.7357141 -0.6772826 0 -0.735723 0.7891561 0 -0.6141927 0 -1 0 -0.6772852 0 -0.7357206 -0.6772756 0 -0.7357295 0.6772852 0 -0.7357206 0.5469461 0 -0.8371679 0 -1 0 -0.5469396 0 -0.8371722 -0.5469396 0 -0.8371722 0 -1 1.5147e-7 0 -1 1.69613e-7 -0.5469461 0 -0.8371679 0.4017043 0 -0.9157695 0 -1 0 0 -1 0 -0.4017094 0 -0.9157672 -0.4017095 0 -0.9157671 0.4016991 0 -0.9157718 0 -1 -1.51279e-7 0 -1 -2.3988e-7 -0.4016991 0 -0.9157718 -0.4016991 0 -0.9157717 0.2454784 0 -0.9694021 0 -1 -1.65403e-7 -0.2454717 0 -0.9694038 0.4016991 0 -0.9157717 0.245475 0 -0.9694029 0 -1 -1.57793e-7 0 -1 2.01929e-7 -0.2454818 0 -0.9694012 -0.2454817 0 -0.9694013 0.2454783 0 -0.9694021 0.08259111 0 -0.9965836 0 -1 1.75637e-7 0 -1 0 -0.08257454 0 -0.996585 -0.08259224 0 -0.9965834 0.245475 0 -0.969403 0.08259224 0 -0.9965834 0 -1 2.00503e-7 0 -1 0 -0.08257222 0 -0.9965851 -0.08258992 0 -0.9965837 0.08257335 0 -0.9965851 0 -1 0 0.08257454 0 -0.996585 0 -1 9.87869e-7 0 -1 0 0.08258825 0 0.9965838 -0.08257234 0 0.9965851 -0.08258938 0 0.9965837 0.08257126 0 0.9965851 0.2454921 0 0.9693987 -0.2454583 0 0.9694072 -0.2454904 0 0.969399 0.2454598 0 0.9694068 0.4017156 0 0.9157645 -0.4016987 0 0.9157719 -0.401713 0 0.9157657 0.4017012 0 0.9157708 0.5469449 0 0.8371686 -0.546942 0 0.8371705 -0.546948 0 0.8371666 0.5469389 0 0.8371726 0.6772812 0 0.7357243 -0.6772765 0 0.7357286 -0.6772812 0 0.7357243 0.6772765 0 0.7357286 0.7891369 0 0.6142174 -0.7891402 0 0.6142132 -0.7891402 0 0.6142132 0.8794777 0 0.4759401 -0.8794777 0 0.4759401 -0.8794777 0 0.4759402 0.8794777 0 0.4759402 0.9458181 0 0.3246972 -0.945815 0 0.3247059 -0.9458159 0 0.3247033 0.9458171 0 0.3246998 0.9863606 0 0.1645993 -0.9863616 0 0.1645928 0.9863606 0 0.1645994 0.9863606 0 -0.1645993 -0.9863616 0 -0.1645928 0.9863606 0 -0.1645994 0.9458171 0 -0.3246998 0 -1 0 -0.945815 0 -0.3247059 -0.945815 0 -0.324706 0.879472 0 -0.4759509 0 -1 0 -0.8794758 0 -0.4759437 -0.8794718 0 -0.4759509 0.8794757 0 -0.4759438 0.7891402 0 -0.6142133 0 -1 0 -0.7891466 0 -0.6142048 -0.7891435 0 -0.6142091 0.7891434 0 -0.6142091 0.6772765 0 -0.7357286 0 -1 0 -0.6772858 0 -0.73572 -0.6772765 0 -0.7357286 0.6772858 0 -0.7357201 0.5469449 0 -0.8371686 0 -1 0 -0.546942 0 -0.8371705 -0.546948 0 -0.8371666 0.5469389 0 -0.8371726 0.4017012 0 -0.9157708 0 -1 0 -0.4016916 0 -0.9157751 -0.4016987 0 -0.915772 0.401694 0 -0.9157741 0.2454921 0 -0.9693987 0 -1 0 -0.2454824 0 -0.9694011 -0.2454904 0 -0.969399 0.2454839 0 -0.9694007 0.08257973 0 -0.9965845 0 -1 -1.61072e-7 -0.08258086 0 -0.9965844 0 -1 0 0 -1 -7.23336e-7 0 -1 5.82624e-7 0.08256566 0 0.9965857 -0.08256566 0 0.9965857 -0.08257102 0 0.9965853 0.2454918 0 0.9693987 0.08257102 0 0.9965853 -0.2454876 0 0.9693997 -0.2454928 0 0.9693984 0.4016888 0 0.9157763 0.2454968 0 0.9693975 -0.401695 0 0.9157735 0.5469558 0 0.8371616 -0.5469557 0 0.8371616 -0.546952 0 0.8371641 0.6772854 0 0.7357205 0.5469519 0 0.8371641 -0.6772768 0 0.7357284 -0.6772768 0 0.7357283 0.7891362 0 0.6142182 0.6772853 0 0.7357205 -0.7891445 0 0.6142076 -0.7891446 0 0.6142076 0.8794726 0 0.4759497 -0.8794726 0 0.4759497 -0.8794738 0 0.4759473 0.9458184 0 0.3246965 0.8794738 0 0.4759474 -0.9458131 0 0.3247118 -0.9458131 0 0.3247117 0.9863604 0 0.1646004 0.9458183 0 0.3246966 -0.9863632 0 0.1645838 -0.9863631 0 0.1645846 0.9863603 0 0.1646013 0.9863601 0 -0.1646021 0 -1 0 -0.9863628 0 -0.1645855 -0.9863627 0 -0.1645864 0.9458178 0 -0.3246982 0.98636 0 -0.1646031 0 -1 0 -0.9458125 0 -0.3247134 -0.9458122 0 -0.3247143 0.8794775 0 -0.4759406 0.9458174 0 -0.324699 0 -1 -1.76146e-7 -0.8794775 0 -0.4759407 -0.8794769 0 -0.4759417 0.7891362 0 -0.6142182 0.8794769 0 -0.4759418 0 -1 0 -0.7891445 0 -0.6142076 -0.7891446 0 -0.6142076 0.6772854 0 -0.7357205 0 -1 2.70277e-7 -0.6772768 0 -0.7357284 -0.6772754 0 -0.7357296 0.5469482 0 -0.8371666 0.6772838 0 -0.7357218 0 -1 -1.71012e-7 -0.5469481 0 -0.8371666 -0.5469482 0 -0.8371666 0.4016888 0 -0.9157763 0.5469481 0 -0.8371666 0 -1 2.03245e-7 -0.401695 0 -0.9157735 0.2454968 0 -0.9693975 0 -1 -7.34886e-7 -0.2454927 0 -0.9693984 -0.2454902 0 -0.969399 0.08256834 0 -0.9965854 0.2454943 0 -0.969398 0 -1 2.61078e-6 0 -1 2.4476e-6 -0.08256834 0 -0.9965854 -0.08256566 0 -0.9965856 0.08256566 0 -0.9965856 0 -1 0 0 -1 2.82887e-7 0 -1 0 0 -1 0 0 -1 0 0 -1 0 0 -1 5.82897e-7 0 -1 -1.35424e-7 0 -1 0 0 -1 -8.63069e-7 0 -1 2.91047e-7 0 -1 -4.42537e-7 0 -1 6.69358e-7 0.04243302 0 0.9990994 0 -0.002438962 0.999997 -0.04243212 0 0.9990994 0.04243212 0 0.9990994 0 -0.002438962 0.999997 -0.04243391 0 0.9990993 0.1690012 0 0.9856159 -0.1689994 0 0.9856162 -0.1689987 0 0.9856163 0.1689995 0 0.9856162 0.3331381 0 0.9428781 0.1690004 0 0.985616 -0.3331413 0 0.9428769 -0.3331413 0 0.9428769 0.3331413 0 0.9428769 0.1689987 0 0.9856163 0.4877008 0 0.8730109 0.3331381 0 0.9428781 -0.4876963 0 0.8730134 -0.4876964 0 0.8730133 0.4876964 0 0.8730133 0.3331413 0 0.9428769 0.6282153 0 0.7780396 -0.6282204 0 0.7780355 -0.6282204 0 0.7780355 0.6282204 0 0.7780355 0.4876963 0 0.8730134 0.7506757 0 0.6606709 -0.750671 0 0.6606763 0.750671 0 0.6606763 0.6282204 0 0.7780355 -0.7506705 0 0.6606768 -0.7506824 0 0.6606634 0.7506699 0 0.6606776 0.8515254 0 0.5243135 -0.85153 0 0.5243059 -0.8515302 0 0.5243055 0.8515347 0 0.5242984 0.7506699 0 0.6606776 -0.8515347 0 0.5242984 -0.851535 0 0.524298 0.9278927 0 0.3728476 0.8515256 0 0.5243132 -0.9278854 0 0.3728656 0.9278854 0 0.3728656 0.851535 0 0.524298 0.9775549 0 0.2106812 0.9278926 0 0.3728476 -0.977557 0 0.2106713 -0.977557 0 0.2106713 -0.9775549 0 0.2106813 -0.9775548 0 0.2106813 0.9990991 0 0.0424394 0.9775548 0 0.2106813 -0.9990986 0 0.04244983 -0.9990986 0 0.04244983 0.9990986 0 0.04244983 -0.9990995 0 0.04242891 -0.9990995 0 0.04242891 0 -1 0 0.9919009 0 -0.1270146 0.9990991 0 0.0424394 0 -1 0 -0.9918996 0 -0.127025 -0.9918996 0 -0.127025 0.9918983 0 -0.1270353 0.9990986 0 0.04244983 -0.9919009 0 -0.1270146 -0.9919009 0 -0.1270146 0.9561644 0 -0.2928308 0.9919009 0 -0.1270146 0 -1 0 -0.9561672 0 -0.2928212 -0.9561672 0 -0.2928212 0.9561672 0 -0.2928212 0.9918983 0 -0.1270353 0 -1 0 0.8929263 0 -0.450203 0.9561643 0 -0.2928308 0 -1 0 -0.8929263 0 -0.4502031 -0.8929264 0 -0.4502028 0 -1 2.00035e-7 0.8929305 0 -0.4501947 0.9561672 0 -0.2928212 0 -1 0 -0.892922 0 -0.4502114 -0.8929222 0 -0.4502112 0.8040015 0 -0.5946272 0.8929264 0 -0.450203 0 -1 0 -0.8039969 0 -0.5946335 -0.803997 0 -0.5946333 0.8039916 0 -0.5946407 0.8929305 0 -0.4501945 0 -1 -1.2745e-7 -0.8040066 0 -0.5946205 -0.8040066 0 -0.5946203 -0.8039166 0 -0.5947422 0.8039166 0 -0.5947422 0.8039917 0 -0.5946406 0.6919362 0 -0.7219586 0.8040017 0 -0.5946272 -0.6919466 0 -0.7219488 -0.6919466 0 -0.7219487 0 -1 0 0.6919466 0 -0.7219487 0 -1 1.24644e-7 -0.6919362 0 -0.7219587 -0.6919362 0 -0.7219586 0.5599783 0 -0.8285073 0.6919362 0 -0.7219587 0 -1 0 -0.5599734 0 -0.8285106 -0.5599735 0 -0.8285106 0.5599832 0 -0.8285039 0.6919466 0 -0.7219488 0 -1 0 0.4118944 0 -0.9112316 0 -1 0 -0.4118944 0 -0.9112317 -0.4118951 0 -0.9112313 0 -1 0 0.4118905 0 -0.9112334 0.5599831 0 -0.828504 0 -1 -1.52058e-7 -0.4118983 0 -0.9112299 -0.411899 0 -0.9112296 0.251981 0 -0.9677323 0.411895 0 -0.9112313 -0.251981 0 -0.9677322 -0.2519803 0 -0.9677324 0.4118911 0 -0.9112331 0 -1 2.45485e-7 0 -1 0 0.08480632 0 -0.9963975 0.2519802 0 -0.9677324 0 -1 0 -0.08480542 0 -0.9963976 0.08480453 0 -0.9963977 0 -1 0 0 -1 0 -0.08480626 0 -0.9963975 -0.08480632 0 -0.9963975 0.08480626 0 -0.9963975 0 -1 -1.33211e-6 0 -1 2.10824e-7 0 -1 0 0 -1 -1.33211e-6 0 -1 9.07604e-7 0 -1 0 -0.08256566 0 0.9965856 0.08256566 0 0.9965856 -0.2454927 0 0.9693984 -0.2454877 0 0.9693997 0.4016978 0 0.9157723 -0.4017041 0 0.9157695 -0.4016996 0 0.9157716 0.546952 0 0.8371641 0.4016933 0 0.9157743 -0.5469519 0 0.8371641 -0.5469482 0 0.8371666 0.6772825 0 0.7357231 0.5469481 0 0.8371666 -0.6772739 0 0.735731 0.8794738 0 0.4759473 -0.8794738 0 0.4759474 -0.8794726 0 0.4759497 0.9458178 0 0.3246982 0.8794726 0 0.4759497 -0.9458125 0 0.3247134 -0.945812 0 0.3247151 0.9863604 0 -0.1646004 -0.9863632 0 -0.1645838 -0.9863631 0 -0.1645846 0.9458172 0 -0.3246998 0.9863603 0 -0.1646013 -0.9458119 0 -0.3247151 -0.9458125 0 -0.3247134 0.8794738 0 -0.4759473 0.9458177 0 -0.3246982 0 -1 0 -0.8794738 0 -0.4759474 -0.8794726 0 -0.4759497 0.7891424 0 -0.6142104 0.8794726 0 -0.4759497 0 -1 0 -0.7891507 0 -0.6141998 -0.7891527 0 -0.6141971 0.6772738 0 -0.7357312 0.7891443 0 -0.6142078 0 -1 1.25935e-7 -0.6772652 0 -0.7357391 -0.6772681 0 -0.7357363 0.6772766 0 -0.7357286 0 -1 0 0.4016934 0 -0.9157744 0 -1 0 -0.4016996 0 -0.9157716 -0.4017041 0 -0.9157695 0.4016978 0 -0.9157724 0 -1 -1.71498e-7 -0.2454877 0 -0.9693997 0.08258706 0 -0.9965839 0.2454918 0 -0.9693987 0 -1 3.45278e-7 0 -1 3.23698e-7 -0.08258706 0 -0.9965839 -0.08258169 0 -0.9965843 0.08258169 0 -0.9965843 0.08258879 0 0.9965837 -0.08259731 0 0.996583 -0.08258879 0 0.9965838 0.08259731 0 0.9965831 0.2454824 0 0.9694011 -0.2454824 0 0.9694011 0.4016894 0 0.915776 -0.4016844 0 0.9157782 -0.4016844 0 0.9157783 0.5469478 0 0.8371668 -0.546954 0 0.8371627 0.5469478 0 0.8371667 0.7891435 0 0.614209 -0.7891499 0 0.6142007 -0.7891435 0 0.6142091 0.7891499 0 0.6142008 0.8794767 0 0.4759421 -0.879471 0 0.4759526 -0.879471 0 0.4759526 0.8794767 0 0.4759421 0.945815 0 0.3247059 0 -1 0 -0.9458193 0 0.3246938 -0.9458193 0 0.3246939 0.945815 0 0.324706 0.9863619 0 0.1645912 0 -1 1.19827e-6 0 -1 0 -0.9863619 0 0.1645912 -0.9863619 0 0.1645912 0 -1 0 0 -1 0 0 -1 0 0 -1 2.61791e-7 0 -1 -1.24057e-7 0 -1 0 0 -1 0 0 -1 -2.93681e-7 0.9863619 0 0.1645912 0.9863595 0 0.1646056 0 -1 0 -0.9863595 0 0.1646056 -0.9863595 0 0.1646056 0 -1 2.43232e-7 0 -1 2.21867e-7 0 -1 -2.13687e-7 0 -1 0 0 -1 0 0 -1 -3.28229e-7 0 -1 4.80851e-7 0.9863595 0 0.1646056 0.9863603 0 -0.1646007 0 -1 -3.8441e-7 -0.9863607 0 -0.1645979 -0.9863603 0 -0.1646007 0.9863607 0 -0.1645979 0.945815 0 -0.3247059 0 -1 0 -0.9458193 0 -0.3246938 -0.9458193 0 -0.3246939 0.945815 0 -0.324706 0.8794767 0 -0.4759421 0 -1 0 -0.8794749 0 -0.4759455 -0.879471 0 -0.4759526 0.8794806 0 -0.475935 0.789137 0 -0.6142173 0 -1 0 -0.7891435 0 -0.614209 -0.789137 0 -0.6142174 0.08255571 0 0.9965866 -0.08255684 0 0.9965865 0.08255684 0 0.9965865 -0.08255451 0 0.9965866 -0.2454717 0 0.9694038 -0.2454818 0 0.9694012 0.2454783 0 0.9694021 -0.4016945 0 0.9157738 -0.4017095 0 0.9157671 0.245475 0 0.969403 0.4016991 0 0.9157718 -0.4016842 0 0.9157783 -0.4016991 0 0.9157717 0.7891435 0 -0.6142091 0.6772812 0 -0.7357243 0 -1 -1.21469e-7 -0.6772904 0 -0.7357158 -0.6772812 0 -0.7357243 0.5469585 0 0.8371597 -0.5469521 0 0.8371639 -0.5469521 0 0.837164 0.4016841 0 0.9157783 -0.5469585 0 0.8371597 0.6772904 0 -0.7357158 0.5469358 0 -0.8371747 0 -1 2.05927e-7 -0.677273 0 0.7357318 -0.6772659 0 0.7357383 0.5469357 0 -0.8371746 0.4017037 0 -0.9157697 0 -1 -1.64889e-7 -0.4016987 0 -0.9157719 0.6772659 0 0.7357383 0.7891426 0 0.6142103 -0.7891426 0 0.6142103 -0.7891424 0 0.6142104 0.7891562 0 0.6141926 0.2454904 0 -0.969399 0 -1 0 -0.2454743 0 -0.9694032 0.2454743 0 -0.9694032 0.0825718 0 -0.9965852 0 -1 -1.58439e-6 -0.08258879 0 -0.9965837 -0.0825718 0 -0.9965851 0.08258879 0 -0.9965838 0 -1 0 0.7891424 0 0.6142104 -0.8794782 0 0.4759393 0.7891561 0 0.6141927 0.8794782 0 0.4759393 -0.9863653 0 0.1645706 0.9863594 0 -0.1646058 0 -1 -3.66083e-7 0 -1 1.41099e-7 -0.9863601 0 -0.1646018 -0.9863594 0 -0.1646058 0.9863659 0 -0.1645671 0 -1 5.64405e-7 0 -1 2.56939e-7 -0.9863666 0 -0.164563 -0.9863659 0 -0.1645671 0 -1 -1.968e-7 0 -1 0 0.9863601 0 -0.1646018 0.9863622 0 -0.1645891 0 -1 1.51916e-7 -0.986364 0 -0.1645791 -0.9863622 0 -0.1645891 0.9863666 0 -0.1645631 0.9863463 0 -0.1646844 0 -1 -4.71684e-7 0.986364 0 -0.1645791 0 -1 0 0.986348 0 -0.1646744 0 -1 -1.29287e-7 0.8794782 0 -0.4759393 0 -1 0 -0.8794782 0 -0.4759393 0 -1 0 0.7891426 0 -0.6142103 0 -1 0 -0.7891424 0 -0.6142104 0.7891562 0 -0.6141926 0 -1 0 0 -1 -1.62243e-7 0 -1 0 0 -1 0 -0.6772826 0 -0.7357229 0 -1 0 0 -1 1.78302e-7 0.5469585 0 -0.8371597 0 -1 0 -0.5469521 0 -0.837164 0 -1 0 -0.5469585 0 -0.8371597 0.4016894 0 -0.915776 0 -1 0 0 -1 0 -0.4016945 0 -0.9157737 0.4016842 0 -0.9157783 0 -1 0 0 -1 0 -0.4016841 0 -0.9157783 0 -1 0 -0.2454884 0 -0.9693995 0 -1 0 0 -1 0 -0.2454985 0 -0.969397 0.2454952 0 -0.9693979 0.08257341 0 -0.996585 0 -1 0 0 -1 0 -0.08255684 0 -0.9965865 0.2454918 0 -0.9693987 0 -1 0 -0.08255451 0 -0.9965866 -0.08257222 0 -0.9965851 0.08255565 0 -0.9965866 0 -1 0 0.08255684 0 -0.9965865 -0.9969174 0 0.07845807 0.996918 0 0.07845044 0.996918 0 0.07845044 -0.9723712 0 0.2334402 -0.9969174 0 0.07845807 0.9723677 0 0.2334547 0.9723683 0 0.2334524 -0.9238772 0 0.3826892 -0.9723717 0 0.233438 0.9238799 0 0.3826827 0.9238799 0 0.3826826 -0.8526427 0 0.5224946 -0.9238772 0 0.3826893 0.8526427 0 0.5224946 0.85264 0 0.5224989 -0.7604081 0 0.6494455 -0.85264 0 0.5224989 0.7604081 0 0.6494456 0.7604081 0 0.6494455 -0.6494485 0 0.7604056 -0.7604081 0 0.6494456 0.6494523 0 0.7604024 0.6494467 0 0.7604072 -0.5225006 0 0.852639 -0.6494429 0 0.7604104 0.5225006 0 0.852639 0.5224936 0 0.8526433 -0.3826958 0 0.9238744 -0.5224936 0 0.8526433 0.3826904 0 0.9238767 0.3826822 0 0.9238802 -0.2334392 0 0.9723715 -0.3826876 0 0.9238778 0.2334391 0 0.9723714 0.2334392 0 0.9723715 -0.07846242 0 0.9969171 -0.2334391 0 0.9723714 0.07846361 0 0.996917 0.07847321 0 0.9969162 -0.07847201 0 0.9969163 0 0 1 0 1 -1.94223e-7 0 1 0 0 1 -6.14082e-7 0 1 5.25175e-7 0 1 -6.1687e-7 0 1 -4.78297e-7 0 1 1.28359e-7 0 1 -4.78311e-7 0 1 3.93062e-7 0 1 1.21576e-6 0 1 -6.53775e-7 0 1 1.10313e-6 0 1 -1.53076e-7 0 1 1.08006e-6 0 1 -2.19713e-7 0 1 -1.27082e-6 0 1 -2.16138e-7 0 1 1.735e-6 0 1 5.02624e-7 0 1 -4.34976e-7 0 1 -6.37656e-7 0 1 1.01816e-6 0 1 -7.88063e-7 0 1 2.3422e-7 0 1 2.66991e-6 0 1 -7.62567e-7 0 1 -4.76572e-7 0 1 -2.67077e-6 0 1 -1.28499e-7 0 1 8.1053e-7 0 1 5.06593e-7 0 1 -3.4765e-7 0 1 1.81486e-7 0 1 1.58377e-7 0 1 -3.35969e-7 0 1 -3.02937e-7 0 1 2.71379e-6 0 1 -1.63039e-7 0 1 -3.02557e-7 0 1 6.61611e-7 0 1 4.73381e-7 0 1 -3.5127e-7 0 1 0 0 1 1.03598e-6 0 1 -3.20801e-6 0 1 -3.11738e-6 0 1 5.0251e-6 0 1 2.31972e-6 0 1 -3.31108e-6 0 1 -1.50721e-6 0 1 1.43599e-6 0 1 -1.68539e-6 0 1 -3.15651e-7 0 1 9.12272e-7 0 1 -9.58117e-7 0 1 2.66265e-6 0 1 1.39071e-6 0 1 5.26836e-7 0 1 -2.00649e-6 0 1 -6.90891e-7 0 1 -3.29202e-6 0 1 -3.39477e-6 0 1 -1.70022e-6 0 1 2.13841e-6 0 1 -9.50421e-7 0 1 -1.96217e-6 0 1 1.04836e-6 0 1 1.97339e-6 0 1 -1.66538e-6 0 1 2.68724e-6 0 1 -1.00389e-6 0 1 4.94221e-6 0 1 -2.28017e-6 0 1 5.20721e-6 0 1 -3.26347e-6 0 1 -2.77019e-7 0 1 -5.22768e-7 0 1 2.7315e-7 0 1 -1.82211e-6 0 1 3.87514e-7 0 1 5.463e-7 0 1 3.5403e-6 0 1 -2.74608e-6 0 1 5.45695e-7 0 1 -3.5006e-7 0 1 -3.75363e-7 0 1 1.24108e-7 0 1 1.52962e-7 0 1 1.4397e-7 0 1 1.77272e-6 0 1 -2.5732e-7 0 1 4.8861e-7 0 1 -2.44301e-7 0 1 2.33067e-7 0 1 7.33797e-7 0 1 7.61511e-7 0 1 -1.03318e-6 0 1 -7.74883e-7 0 1 1.15977e-6 0 1 -3.92017e-6 0 1 2.53858e-6 0 1 -1.5334e-6 0 1 1.49948e-6 0 1 -4.23249e-6 0 1 -1.86327e-6 0 1 1.9054e-6 0 1 -2.21015e-6 0 1 0 0 1 8.2987e-7 0 1 -8.22412e-7 0 1 1.40556e-6 0 1 -1.03119e-6 0 1 1.44956e-6 0 1 -4.67763e-7 0 1 2.3028e-6 0 1 -8.97557e-7 0 1 1.21521e-6 0 1 -4.31598e-7 0 1 2.9573e-6 0 1 -2.90685e-7 0 1 -2.71296e-6 0 1 -1.10465e-6 0 1 7.67963e-6 0 1 -2.09433e-6 0 1 -1.04115e-6 0 1 -2.28386e-6 0 1 -1.04111e-6 0 1 9.21122e-7 0 1 5.92824e-6 0 1 4.9686e-6 0 1 -3.24233e-6 0 1 -2.39166e-6 0 1 2.62232e-7 0 1 2.31079e-6 0 1 0 0 1 -2.31385e-6 0 1 -1.453e-6 0 1 2.12017e-6 0 1 -2.459e-6 0 1 -2.92874e-6 0 1 1.6497e-6 0 1 1.82646e-6 0 1 4.63049e-6 0 1 -1.70048e-7 0 1 3.08765e-6 0 1 2.25758e-6 0 1 -2.82203e-7 0 1 -4.24364e-6 0 1 -6.73491e-7 0 1 -3.50383e-7 0 1 1.42949e-6 0 1 -6.92974e-7 0 1 6.79414e-7 0 1 -1.11116e-5 0 1 4.19555e-6 0 1 0 0 1 6.14142e-7 0 1 1.47619e-6 0 1 -2.62547e-6 0 1 -2.56747e-7 0 1 1.40465e-6 0 1 -1.4011e-6 0 1 1.25786e-7 0 1 0 0 1 -7.32159e-7 0 1 -2.29108e-7 0 1 -2.13253e-7 0 1 -8.19468e-7 0 1 0 0 1 -2.07308e-7 0 1 4.31926e-7 0 1 3.14056e-7 0 1 -2.22247e-7 0 1 0 0 1 6.59568e-7 0 1 0 0 1 -1.92937e-6</float_array>
          <technique_common>
            <accessor source="#sick_lidar_support-mesh-normals-array" count="979" stride="3">
              <param name="X" type="float"/>
              <param name="Y" type="float"/>
              <param name="Z" type="float"/>
            </accessor>
          </technique_common>
        </source>
        <vertices id="sick_lidar_support-mesh-vertices">
          <input semantic="POSITION" source="#sick_lidar_support-mesh-positions"/>
        </vertices>
        <triangles count="2008">
          <input semantic="VERTEX" source="#sick_lidar_support-mesh-vertices" offset="0"/>
          <input semantic="NORMAL" source="#sick_lidar_support-mesh-normals" offset="1"/>
          <p>0 0 1 0 2 0 3 1 4 1 2 1 5 2 3 2 2 2 6 2 5 2 2 2 1 2 6 2 2 2 4 3 0 3 2 3 0 0 7 0 1 0 7 0 8 0 1 0 8 4 9 4 1 4 9 2 10 2 1 2 10 5 11 5 1 5 11 6 12 6 1 6 13 2 6 2 1 2 14 7 13 7 1 7 12 8 15 8 1 8 15 2 16 2 1 2 16 9 17 9 1 9 17 2 18 2 1 2 18 10 19 10 1 10 19 11 14 11 1 11 7 0 20 0 8 0 20 0 21 0 8 0 21 2 22 2 8 2 23 2 9 2 8 2 22 2 24 2 8 2 24 2 25 2 8 2 25 2 26 2 8 2 26 2 27 2 8 2 27 2 28 2 8 2 28 2 29 2 8 2 29 2 30 2 8 2 30 2 31 2 8 2 31 2 23 2 8 2 20 0 32 0 21 0 32 0 33 0 21 0 33 2 34 2 21 2 34 2 22 2 21 2 32 0 35 0 33 0 35 0 36 0 33 0 36 2 37 2 33 2 37 2 34 2 33 2 35 0 38 0 36 0 38 0 39 0 36 0 39 2 40 2 36 2 40 2 37 2 36 2 38 0 41 0 39 0 41 0 42 0 39 0 42 2 43 2 39 2 43 2 44 2 39 2 44 2 45 2 39 2 45 12 46 12 39 12 46 13 47 13 39 13 47 14 48 14 39 14 48 2 49 2 39 2 49 15 50 15 39 15 50 2 51 2 39 2 51 2 52 2 39 2 52 2 53 2 39 2 53 2 40 2 39 2 41 0 54 0 42 0 55 2 43 2 42 2 56 2 55 2 42 2 57 2 56 2 42 2 54 16 58 16 42 16 58 16 57 16 42 16 3 17 59 17 4 17 59 18 60 18 4 18 60 19 0 19 4 19 61 2 56 2 57 2 62 2 61 2 57 2 58 20 63 20 57 20 63 21 62 21 57 21 3 2 64 2 59 2 64 22 65 22 59 22 65 23 60 23 59 23 66 2 61 2 62 2 63 24 67 24 62 24 67 25 66 25 62 25 3 26 68 26 64 26 68 27 69 27 64 27 69 28 65 28 64 28 70 2 61 2 66 2 67 29 71 29 66 29 71 30 70 30 66 30 3 31 72 31 68 31 72 32 73 32 68 32 73 33 69 33 68 33 74 2 61 2 70 2 71 34 75 34 70 34 75 35 74 35 70 35 3 36 76 36 72 36 76 37 77 37 72 37 77 38 73 38 72 38 78 39 61 39 74 39 75 40 79 40 74 40 79 41 78 41 74 41 3 2 80 2 76 2 80 42 81 42 76 42 81 43 77 43 76 43 82 2 61 2 78 2 83 2 82 2 78 2 79 44 84 44 78 44 84 45 83 45 78 45 85 46 86 46 80 46 3 2 85 2 80 2 86 47 87 47 80 47 87 48 81 48 80 48 88 2 82 2 83 2 84 49 89 49 83 49 89 50 88 50 83 50 85 51 90 51 86 51 90 52 87 52 86 52 91 53 82 53 88 53 89 54 92 54 88 54 92 54 91 54 88 54 3 55 93 55 85 55 93 56 90 56 85 56 94 57 95 57 91 57 95 2 82 2 91 2 92 58 96 58 91 58 96 59 94 59 91 59 97 60 98 60 3 60 5 60 97 60 3 60 98 61 93 61 3 61 96 62 99 62 94 62 99 2 100 2 94 2 100 2 101 2 94 2 101 2 102 2 94 2 102 2 103 2 94 2 103 63 95 63 94 63 104 64 11 64 10 64 9 65 105 65 10 65 105 66 104 66 10 66 106 67 45 67 44 67 43 68 107 68 44 68 107 69 106 69 44 69 104 70 108 70 11 70 108 71 12 71 11 71 23 72 109 72 9 72 109 72 105 72 9 72 106 73 110 73 45 73 110 74 46 74 45 74 55 75 111 75 43 75 111 76 107 76 43 76 108 77 112 77 12 77 112 78 15 78 12 78 31 79 113 79 23 79 113 80 109 80 23 80 110 81 114 81 46 81 114 82 47 82 46 82 56 83 115 83 55 83 115 84 111 84 55 84 112 85 116 85 15 85 116 86 16 86 15 86 30 87 117 87 31 87 117 88 113 88 31 88 114 89 118 89 47 89 118 86 48 86 47 86 61 90 119 90 56 90 119 90 115 90 56 90 116 86 120 86 16 86 120 91 17 91 16 91 29 92 121 92 30 92 121 93 117 93 30 93 118 86 122 86 48 86 122 91 49 91 48 91 82 94 123 94 61 94 123 95 119 95 61 95 120 96 124 96 17 96 124 97 18 97 17 97 28 98 125 98 29 98 125 99 121 99 29 99 122 96 126 96 49 96 126 100 50 100 49 100 95 98 127 98 82 98 127 99 123 99 82 99 124 101 128 101 18 101 128 102 19 102 18 102 27 103 129 103 28 103 129 104 125 104 28 104 126 105 130 105 50 105 130 102 51 102 50 102 103 103 131 103 95 103 131 104 127 104 95 104 128 106 132 106 19 106 132 107 14 107 19 107 26 108 133 108 27 108 133 108 129 108 27 108 130 106 134 106 51 106 134 107 52 107 51 107 102 108 135 108 103 108 135 108 131 108 103 108 132 107 136 107 14 107 136 109 13 109 14 109 25 110 137 110 26 110 137 111 133 111 26 111 134 107 138 107 52 107 138 109 53 109 52 109 101 112 139 112 102 112 139 113 135 113 102 113 136 114 140 114 13 114 140 62 141 62 13 62 141 2 6 2 13 2 24 2 142 2 25 2 142 60 143 60 25 60 143 60 137 60 25 60 138 114 144 114 53 114 144 62 145 62 53 62 145 2 40 2 53 2 100 60 146 60 101 60 146 60 139 60 101 60 140 62 147 62 141 62 147 115 148 115 141 115 148 116 6 116 141 116 24 117 149 117 142 117 149 118 150 118 142 118 150 118 143 118 142 118 144 62 151 62 145 62 151 115 152 115 145 115 152 2 40 2 145 2 99 119 153 119 100 119 153 120 154 120 100 120 154 121 146 121 100 121 147 115 155 115 148 115 155 122 156 122 148 122 156 123 6 123 148 123 24 2 157 2 149 2 157 124 158 124 149 124 158 125 150 125 149 125 151 115 159 115 152 115 159 122 160 122 152 122 160 2 40 2 152 2 99 126 161 126 153 126 161 124 162 124 153 124 162 125 154 125 153 125 155 127 163 127 156 127 163 128 164 128 156 128 164 129 6 129 156 129 24 130 165 130 157 130 165 131 166 131 157 131 166 131 158 131 157 131 159 127 167 127 160 127 167 128 168 128 160 128 168 2 40 2 160 2 99 132 169 132 161 132 169 131 170 131 161 131 170 131 162 131 161 131 163 128 171 128 164 128 171 133 172 133 164 133 172 2 6 2 164 2 24 134 173 134 165 134 173 135 174 135 165 135 174 136 166 136 165 136 167 128 175 128 168 128 175 137 176 137 168 137 176 138 40 138 168 138 99 139 177 139 169 139 177 135 178 135 169 135 178 136 170 136 169 136 171 140 179 140 172 140 179 141 180 141 172 141 180 142 6 142 172 142 24 143 181 143 173 143 181 144 182 144 173 144 182 145 174 145 173 145 175 146 183 146 176 146 183 141 184 141 176 141 184 2 40 2 176 2 99 147 185 147 177 147 185 148 186 148 177 148 186 149 178 149 177 149 179 150 187 150 180 150 187 151 188 151 180 151 188 2 6 2 180 2 24 152 189 152 181 152 189 153 190 153 181 153 190 154 182 154 181 154 183 150 191 150 184 150 191 151 192 151 184 151 192 155 40 155 184 155 99 156 193 156 185 156 193 157 194 157 185 157 194 157 186 157 185 157 187 151 195 151 188 151 195 158 196 158 188 158 196 159 6 159 188 159 24 160 197 160 189 160 197 161 198 161 189 161 198 162 190 162 189 162 191 151 199 151 192 151 199 163 200 163 192 163 200 164 40 164 192 164 99 165 201 165 193 165 201 166 202 166 193 166 202 167 194 167 193 167 195 158 203 158 196 158 203 168 204 168 196 168 204 169 6 169 196 169 24 2 205 2 197 2 205 170 206 170 197 170 206 170 198 170 197 170 199 171 207 171 200 171 207 172 208 172 200 172 208 173 40 173 200 173 99 174 209 174 201 174 209 175 210 175 201 175 210 176 202 176 201 176 203 177 211 177 204 177 211 178 212 178 204 178 212 179 6 179 204 179 24 180 212 180 205 180 212 181 213 181 205 181 213 182 206 182 205 182 207 183 214 183 208 183 214 184 215 184 208 184 215 2 40 2 208 2 40 185 215 185 209 185 99 186 40 186 209 186 215 187 216 187 209 187 216 188 210 188 209 188 211 189 213 189 212 189 24 190 6 190 212 190 214 191 216 191 215 191 217 60 97 60 5 60 218 60 217 60 5 60 219 2 218 2 5 2 6 2 219 2 5 2 220 2 219 2 6 2 24 2 220 2 6 2 221 2 222 2 24 2 222 2 223 2 24 2 224 192 225 192 24 192 225 2 226 2 24 2 226 2 221 2 24 2 223 2 227 2 24 2 227 2 228 2 24 2 228 2 229 2 24 2 229 2 230 2 24 2 230 2 231 2 24 2 231 2 220 2 24 2 22 193 224 193 24 193 232 2 233 2 22 2 234 2 235 2 22 2 235 2 236 2 22 2 236 2 232 2 22 2 237 2 238 2 22 2 239 2 237 2 22 2 34 2 239 2 22 2 238 2 240 2 22 2 240 2 241 2 22 2 241 2 242 2 22 2 242 2 243 2 22 2 243 2 244 2 22 2 244 2 234 2 22 2 233 2 224 2 22 2 245 2 239 2 34 2 37 2 245 2 34 2 246 2 245 2 37 2 40 2 246 2 37 2 247 2 246 2 40 2 99 2 247 2 40 2 96 62 248 62 99 62 248 62 247 62 99 62 249 194 225 194 224 194 233 195 250 195 224 195 250 196 249 196 224 196 249 197 251 197 225 197 251 198 226 198 225 198 232 199 252 199 233 199 252 200 250 200 233 200 251 201 253 201 226 201 253 202 221 202 226 202 236 203 254 203 232 203 254 204 252 204 232 204 253 205 255 205 221 205 255 206 222 206 221 206 235 207 256 207 236 207 256 208 254 208 236 208 255 209 257 209 222 209 257 210 223 210 222 210 234 211 258 211 235 211 258 212 256 212 235 212 257 213 259 213 223 213 259 214 227 214 223 214 244 215 260 215 234 215 260 216 258 216 234 216 259 214 261 214 227 214 261 217 228 217 227 217 243 218 262 218 244 218 262 219 260 219 244 219 261 220 263 220 228 220 263 221 229 221 228 221 242 222 264 222 243 222 264 223 262 223 243 223 263 224 265 224 229 224 265 225 230 225 229 225 241 226 266 226 242 226 266 226 264 226 242 226 265 227 267 227 230 227 267 62 231 62 230 62 240 60 268 60 241 60 268 60 266 60 241 60 267 62 269 62 231 62 269 228 270 228 231 228 270 2 220 2 231 2 238 229 271 229 240 229 271 229 268 229 240 229 269 230 272 230 270 230 272 231 273 231 270 231 273 2 220 2 270 2 237 232 274 232 238 232 274 233 275 233 238 233 275 234 271 234 238 234 272 231 276 231 273 231 276 235 277 235 273 235 277 2 220 2 273 2 237 236 278 236 274 236 278 237 279 237 274 237 279 238 275 238 274 238 276 239 280 239 277 239 280 240 281 240 277 240 281 2 220 2 277 2 237 241 282 241 278 241 282 242 283 242 278 242 283 243 279 243 278 243 280 244 284 244 281 244 284 245 285 245 281 245 285 2 220 2 281 2 237 246 286 246 282 246 286 247 287 247 282 247 287 248 283 248 282 248 284 249 288 249 285 249 288 250 289 250 285 250 289 2 220 2 285 2 237 251 290 251 286 251 290 252 291 252 286 252 291 253 287 253 286 253 288 254 292 254 289 254 292 255 293 255 289 255 293 2 220 2 289 2 237 256 294 256 290 256 294 257 295 257 290 257 295 258 291 258 290 258 292 259 296 259 293 259 296 260 297 260 293 260 297 2 220 2 293 2 237 261 298 261 294 261 298 262 299 262 294 262 299 263 295 263 294 263 296 264 300 264 297 264 300 265 301 265 297 265 237 2 220 2 297 2 301 2 237 2 297 2 237 266 301 266 298 266 301 267 302 267 298 267 302 267 299 267 298 267 300 265 302 265 301 265 303 60 217 60 218 60 304 60 303 60 218 60 305 2 304 2 218 2 219 2 305 2 218 2 306 2 305 2 219 2 220 2 306 2 219 2 307 2 306 2 220 2 237 2 307 2 220 2 308 2 309 2 237 2 239 268 308 268 237 268 309 269 310 269 237 269 310 2 311 2 237 2 311 2 312 2 237 2 312 2 313 2 237 2 313 2 314 2 237 2 314 2 315 2 237 2 315 2 316 2 237 2 316 2 317 2 237 2 317 2 307 2 237 2 318 2 319 2 239 2 319 2 320 2 239 2 320 2 321 2 239 2 321 270 308 270 239 270 322 2 323 2 239 2 323 2 324 2 239 2 324 2 325 2 239 2 325 2 318 2 239 2 326 2 322 2 239 2 327 2 326 2 239 2 245 2 327 2 239 2 328 2 327 2 245 2 246 2 328 2 245 2 329 2 328 2 246 2 247 2 329 2 246 2 248 62 330 62 247 62 330 62 329 62 247 62 331 271 310 271 309 271 332 272 331 272 309 272 308 273 332 273 309 273 333 274 311 274 310 274 331 275 333 275 310 275 334 276 332 276 308 276 321 277 334 277 308 277 335 278 312 278 311 278 333 279 335 279 311 279 336 280 334 280 321 280 320 280 336 280 321 280 337 281 313 281 312 281 335 278 337 278 312 278 338 282 336 282 320 282 319 283 338 283 320 283 339 284 314 284 313 284 337 285 339 285 313 285 340 286 338 286 319 286 318 287 340 287 319 287 341 288 315 288 314 288 339 289 341 289 314 289 342 290 340 290 318 290 325 291 342 291 318 291 343 292 316 292 315 292 341 288 343 288 315 288 344 293 342 293 325 293 324 294 344 294 325 294 345 295 317 295 316 295 343 296 345 296 316 296 346 297 344 297 324 297 323 298 346 298 324 298 347 299 348 299 317 299 345 300 347 300 317 300 348 2 307 2 317 2 349 301 346 301 323 301 322 302 349 302 323 302 350 62 351 62 348 62 347 303 350 303 348 303 351 2 307 2 348 2 326 2 352 2 322 2 353 60 349 60 322 60 352 60 353 60 322 60 354 304 355 304 351 304 350 62 354 62 351 62 355 2 307 2 351 2 326 305 356 305 352 305 357 306 353 306 352 306 356 307 357 307 352 307 358 308 359 308 355 308 354 309 358 309 355 309 359 2 307 2 355 2 326 310 360 310 356 310 361 311 357 311 356 311 360 312 361 312 356 312 362 313 363 313 359 313 358 314 362 314 359 314 363 2 307 2 359 2 326 315 364 315 360 315 365 316 361 316 360 316 364 317 365 317 360 317 366 318 367 318 363 318 362 319 366 319 363 319 367 2 307 2 363 2 326 320 368 320 364 320 369 321 365 321 364 321 368 322 369 322 364 322 370 323 371 323 367 323 366 318 370 318 367 318 371 2 307 2 367 2 326 324 372 324 368 324 373 325 369 325 368 325 372 326 373 326 368 326 374 327 375 327 371 327 370 328 374 328 371 328 375 2 307 2 371 2 326 329 376 329 372 329 377 330 373 330 372 330 376 331 377 331 372 331 378 332 379 332 375 332 374 333 378 333 375 333 379 2 307 2 375 2 326 334 380 334 376 334 381 335 377 335 376 335 380 335 381 335 376 335 382 336 383 336 379 336 378 332 382 332 379 332 383 2 307 2 379 2 326 337 384 337 380 337 385 338 381 338 380 338 384 339 385 339 380 339 386 340 387 340 383 340 382 341 386 341 383 341 387 342 307 342 383 342 326 343 387 343 384 343 388 344 385 344 384 344 387 345 388 345 384 345 386 346 388 346 387 346 326 2 307 2 387 2 389 60 303 60 304 60 390 60 389 60 304 60 391 2 390 2 304 2 305 2 391 2 304 2 392 347 393 347 305 347 394 2 395 2 305 2 396 2 397 2 305 2 397 348 398 348 305 348 398 2 394 2 305 2 395 349 399 349 305 349 399 2 400 2 305 2 400 2 392 2 305 2 393 350 401 350 305 350 401 351 402 351 305 351 402 2 391 2 305 2 306 2 396 2 305 2 403 2 404 2 306 2 404 2 405 2 306 2 405 2 406 2 306 2 406 2 407 2 306 2 407 2 408 2 306 2 408 2 409 2 306 2 409 2 396 2 306 2 307 352 403 352 306 352 410 2 411 2 307 2 411 2 412 2 307 2 412 2 403 2 307 2 326 2 413 2 307 2 413 2 414 2 307 2 414 2 415 2 307 2 415 2 410 2 307 2 327 2 416 2 326 2 416 2 413 2 326 2 417 2 418 2 327 2 328 2 419 2 327 2 419 353 420 353 327 353 420 2 417 2 327 2 418 2 421 2 327 2 421 2 422 2 327 2 422 2 416 2 327 2 423 2 424 2 328 2 424 354 425 354 328 354 425 2 426 2 328 2 329 355 427 355 328 355 427 356 428 356 328 356 428 2 423 2 328 2 426 2 429 2 328 2 429 2 419 2 328 2 330 62 430 62 329 62 430 62 431 62 329 62 432 2 433 2 329 2 433 2 434 2 329 2 435 2 436 2 329 2 434 2 437 2 329 2 437 2 438 2 329 2 438 357 435 357 329 357 431 2 439 2 329 2 439 2 440 2 329 2 440 2 432 2 329 2 436 358 441 358 329 358 441 359 427 359 329 359 442 360 397 360 396 360 443 361 442 361 396 361 409 362 443 362 396 362 444 363 423 363 428 363 445 364 444 364 428 364 427 365 445 365 428 365 442 366 398 366 397 366 446 367 443 367 409 367 408 368 446 368 409 368 444 369 424 369 423 369 447 367 445 367 427 367 441 368 447 368 427 368 448 370 394 370 398 370 442 371 448 371 398 371 449 372 446 372 408 372 407 373 449 373 408 373 450 374 425 374 424 374 444 375 450 375 424 375 451 372 447 372 441 372 436 373 451 373 441 373 452 376 395 376 394 376 448 377 452 377 394 377 453 378 449 378 407 378 406 379 453 379 407 379 454 380 426 380 425 380 450 381 454 381 425 381 455 378 451 378 436 378 435 379 455 379 436 379 456 382 399 382 395 382 452 376 456 376 395 376 457 383 453 383 406 383 405 384 457 384 406 384 458 385 429 385 426 385 454 386 458 386 426 386 459 383 455 383 435 383 438 384 459 384 435 384 460 387 400 387 399 387 456 382 460 382 399 382 461 388 457 388 405 388 404 388 461 388 405 388 462 389 419 389 429 389 458 390 462 390 429 390 463 391 459 391 438 391 437 391 463 391 438 391 464 392 461 392 404 392 403 392 464 392 404 392 465 393 420 393 419 393 462 389 465 389 419 389 466 394 392 394 400 394 460 387 466 387 400 387 467 395 464 395 403 395 412 396 467 396 403 396 468 397 417 397 420 397 465 398 468 398 420 398 469 399 463 399 437 399 434 400 469 400 437 400 470 401 393 401 392 401 466 402 470 402 392 402 471 403 467 403 412 403 411 403 471 403 412 403 472 404 418 404 417 404 468 405 472 405 417 405 473 403 469 403 434 403 433 403 473 403 434 403 474 406 401 406 393 406 470 407 474 407 393 407 475 408 471 408 411 408 410 409 475 409 411 409 476 406 421 406 418 406 472 404 476 404 418 404 477 410 473 410 433 410 432 411 477 411 433 411 478 412 402 412 401 412 474 413 478 413 401 413 479 414 475 414 410 414 415 415 479 415 410 415 480 416 422 416 421 416 476 413 480 413 421 413 481 417 477 417 432 417 440 418 481 418 432 418 482 419 391 419 402 419 483 420 482 420 402 420 478 421 483 421 402 421 414 422 484 422 415 422 485 423 479 423 415 423 484 424 485 424 415 424 486 2 416 2 422 2 487 425 486 425 422 425 480 426 487 426 422 426 488 427 481 427 440 427 439 428 488 428 440 428 489 2 391 2 482 2 490 429 489 429 482 429 483 430 490 430 482 430 414 431 491 431 484 431 492 432 485 432 484 432 491 433 492 433 484 433 493 2 416 2 486 2 494 434 493 434 486 434 487 435 494 435 486 435 431 436 495 436 439 436 496 432 488 432 439 432 495 433 496 433 439 433 497 2 391 2 489 2 498 437 497 437 489 437 490 438 498 438 489 438 414 439 499 439 491 439 500 440 492 440 491 440 499 441 500 441 491 441 501 442 416 442 493 442 502 443 501 443 493 443 494 444 502 444 493 444 431 445 503 445 495 445 504 446 496 446 495 446 503 447 504 447 495 447 505 2 391 2 497 2 506 448 505 448 497 448 498 449 506 449 497 449 414 450 507 450 499 450 508 451 500 451 499 451 507 452 508 452 499 452 509 2 510 2 501 2 510 2 416 2 501 2 511 453 509 453 501 453 502 454 511 454 501 454 431 455 512 455 503 455 513 456 504 456 503 456 512 457 513 457 503 457 514 2 515 2 507 2 414 2 514 2 507 2 516 458 508 458 507 458 515 458 516 458 507 458 517 2 510 2 509 2 518 459 517 459 509 459 511 460 518 460 509 460 519 2 391 2 505 2 520 461 519 461 505 461 506 462 520 462 505 462 514 2 521 2 515 2 522 463 516 463 515 463 521 464 522 464 515 464 523 465 510 465 517 465 524 466 523 466 517 466 518 459 524 459 517 459 431 467 525 467 512 467 526 468 513 468 512 468 525 469 526 469 512 469 527 2 391 2 519 2 528 470 527 470 519 470 520 471 528 471 519 471 514 472 529 472 521 472 530 473 522 473 521 473 529 474 530 474 521 474 531 2 510 2 523 2 532 475 531 475 523 475 524 476 532 476 523 476 431 477 533 477 525 477 534 473 526 473 525 473 533 474 534 474 525 474 535 2 391 2 527 2 536 478 535 478 527 478 528 470 536 470 527 470 514 479 537 479 529 479 538 480 530 480 529 480 537 481 538 481 529 481 539 482 510 482 531 482 540 483 539 483 531 483 532 484 540 484 531 484 431 485 541 485 533 485 542 486 534 486 533 486 541 487 542 487 533 487 543 2 391 2 535 2 544 488 543 488 535 488 536 489 544 489 535 489 514 2 545 2 537 2 546 490 538 490 537 490 545 491 546 491 537 491 547 2 510 2 539 2 548 488 547 488 539 488 540 492 548 492 539 492 431 493 549 493 541 493 550 490 542 490 541 490 549 491 550 491 541 491 514 494 391 494 543 494 551 2 514 2 543 2 552 495 551 495 543 495 544 496 552 496 543 496 514 497 551 497 545 497 553 498 546 498 545 498 551 498 553 498 545 498 554 2 510 2 547 2 555 499 554 499 547 499 548 496 555 496 547 496 510 500 554 500 549 500 431 501 510 501 549 501 556 502 550 502 549 502 554 503 556 503 549 503 552 504 553 504 551 504 555 499 556 499 554 499 557 60 389 60 390 60 558 60 557 60 390 60 559 2 558 2 390 2 391 2 559 2 390 2 514 2 560 2 391 2 560 2 559 2 391 2 414 2 561 2 514 2 561 2 560 2 514 2 562 505 563 505 414 505 563 2 564 2 414 2 564 2 565 2 414 2 565 2 566 2 414 2 413 2 562 2 414 2 566 2 567 2 414 2 567 2 568 2 414 2 568 2 569 2 414 2 569 2 570 2 414 2 570 2 571 2 414 2 571 2 572 2 414 2 572 2 573 2 414 2 573 2 561 2 414 2 574 2 575 2 413 2 576 2 577 2 413 2 575 2 578 2 413 2 579 506 576 506 413 506 577 2 580 2 413 2 580 2 581 2 413 2 581 2 574 2 413 2 416 507 579 507 413 507 582 508 562 508 413 508 583 2 584 2 413 2 584 2 585 2 413 2 585 509 582 509 413 509 578 2 586 2 413 2 586 2 587 2 413 2 587 2 588 2 413 2 588 2 589 2 413 2 589 2 590 2 413 2 590 2 591 2 413 2 591 2 592 2 413 2 592 2 593 2 413 2 593 2 583 2 413 2 594 2 595 2 416 2 595 2 596 2 416 2 596 2 597 2 416 2 597 510 598 510 416 510 598 2 599 2 416 2 599 2 600 2 416 2 510 2 601 2 416 2 601 2 602 2 416 2 602 2 594 2 416 2 600 2 579 2 416 2 431 2 603 2 510 2 603 2 601 2 510 2 430 62 604 62 431 62 604 62 603 62 431 62 605 271 563 271 562 271 606 272 605 272 562 272 582 511 606 511 562 511 607 279 564 279 563 279 605 512 607 512 563 512 608 513 606 513 582 513 585 514 608 514 582 514 609 515 565 515 564 515 607 274 609 274 564 274 610 516 608 516 585 516 584 517 610 517 585 517 611 518 566 518 565 518 609 519 611 519 565 519 612 520 610 520 584 520 583 521 612 521 584 521 613 522 567 522 566 522 611 523 613 523 566 523 614 524 612 524 583 524 593 287 614 287 583 287 615 288 568 288 567 288 613 289 615 289 567 289 616 290 614 290 593 290 592 291 616 291 593 291 617 525 569 525 568 525 615 288 617 288 568 288 618 526 616 526 592 526 591 527 618 527 592 527 619 528 570 528 569 528 617 529 619 529 569 529 620 530 618 530 591 530 590 531 620 531 591 531 621 299 571 299 570 299 619 224 621 224 570 224 622 301 620 301 590 301 589 302 622 302 590 302 623 62 572 62 571 62 621 303 623 303 571 303 624 60 622 60 589 60 588 60 624 60 589 60 625 532 573 532 572 532 623 62 625 62 572 62 626 533 624 533 588 533 587 534 626 534 588 534 627 535 628 535 573 535 625 536 627 536 573 536 628 2 561 2 573 2 629 537 626 537 587 537 586 538 629 538 587 538 630 539 631 539 628 539 627 540 630 540 628 540 631 2 561 2 628 2 578 541 632 541 586 541 633 542 629 542 586 542 632 543 633 543 586 543 634 544 635 544 631 544 630 545 634 545 631 545 635 2 561 2 631 2 578 546 636 546 632 546 637 547 633 547 632 547 636 548 637 548 632 548 638 549 639 549 635 549 634 550 638 550 635 550 639 2 561 2 635 2 578 551 640 551 636 551 641 552 637 552 636 552 640 553 641 553 636 553 642 327 643 327 639 327 638 554 642 554 639 554 643 2 561 2 639 2 578 555 644 555 640 555 645 330 641 330 640 330 644 331 645 331 640 331 646 556 647 556 643 556 642 333 646 333 643 333 647 2 561 2 643 2 578 557 648 557 644 557 649 558 645 558 644 558 648 559 649 559 644 559 650 336 651 336 647 336 646 560 650 560 647 560 651 2 561 2 647 2 578 561 652 561 648 561 653 338 649 338 648 338 652 562 653 562 648 562 654 563 655 563 651 563 650 564 654 564 651 564 655 565 561 565 651 565 578 566 655 566 652 566 656 567 653 567 652 567 655 568 656 568 652 568 654 569 656 569 655 569 578 2 561 2 655 2 657 570 576 570 579 570 600 571 658 571 579 571 658 572 657 572 579 572 657 573 659 573 576 573 659 574 577 574 576 574 599 575 660 575 600 575 660 575 658 575 600 575 659 574 661 574 577 574 661 576 580 576 577 576 598 577 662 577 599 577 662 578 660 578 599 578 661 576 663 576 580 576 663 579 581 579 580 579 597 580 664 580 598 580 664 580 662 580 598 580 663 581 665 581 581 581 665 210 574 210 581 210 596 211 666 211 597 211 666 212 664 212 597 212 665 213 667 213 574 213 667 582 575 582 574 582 595 583 668 583 596 583 668 584 666 584 596 584 667 585 669 585 575 585 669 586 670 586 575 586 670 2 578 2 575 2 594 587 671 587 595 587 671 588 668 588 595 588 669 589 672 589 670 589 672 590 673 590 670 590 673 2 578 2 670 2 602 591 674 591 594 591 674 592 675 592 594 592 675 593 671 593 594 593 672 594 676 594 673 594 676 595 677 595 673 595 677 596 578 596 673 596 602 597 678 597 674 597 678 598 679 598 674 598 679 599 675 599 674 599 680 60 557 60 558 60 681 60 680 60 558 60 682 2 681 2 558 2 559 2 682 2 558 2 683 2 682 2 559 2 684 600 683 600 559 600 685 2 686 2 559 2 686 601 687 601 559 601 687 602 684 602 559 602 688 603 689 603 559 603 689 604 690 604 559 604 690 2 691 2 559 2 691 605 685 605 559 605 560 606 692 606 559 606 692 2 693 2 559 2 693 607 688 607 559 607 694 2 695 2 560 2 695 2 696 2 560 2 696 2 697 2 560 2 697 2 698 2 560 2 698 2 699 2 560 2 699 2 700 2 560 2 700 2 701 2 560 2 701 2 692 2 560 2 561 2 702 2 560 2 702 2 703 2 560 2 703 2 694 2 560 2 578 2 704 2 561 2 704 2 702 2 561 2 677 2 705 2 578 2 705 2 706 2 578 2 706 2 704 2 578 2 676 608 707 608 677 608 707 609 705 609 677 609 602 610 708 610 678 610 708 611 709 611 678 611 709 612 679 612 678 612 710 2 711 2 602 2 711 2 708 2 602 2 601 2 712 2 602 2 712 2 713 2 602 2 713 2 710 2 602 2 714 613 715 613 601 613 715 614 716 614 601 614 716 615 717 615 601 615 717 2 718 2 601 2 718 616 719 616 601 616 719 2 720 2 601 2 603 617 721 617 601 617 721 2 722 2 601 2 722 2 714 2 601 2 720 2 723 2 601 2 723 2 712 2 601 2 604 62 724 62 603 62 724 62 725 62 603 62 726 2 727 2 603 2 725 2 728 2 603 2 728 2 729 2 603 2 729 2 730 2 603 2 730 618 731 618 603 618 731 2 732 2 603 2 732 2 726 2 603 2 727 619 733 619 603 619 733 2 721 2 603 2 707 620 734 620 705 620 734 62 706 62 705 62 711 60 735 60 708 60 735 60 709 60 708 60 734 62 736 62 706 62 736 621 737 621 706 621 737 622 704 622 706 622 710 623 738 623 711 623 738 624 735 624 711 624 736 625 739 625 737 625 739 626 740 626 737 626 740 2 704 2 737 2 713 627 741 627 710 627 741 628 742 628 710 628 742 629 738 629 710 629 739 630 743 630 740 630 743 631 744 631 740 631 744 2 704 2 740 2 713 632 745 632 741 632 745 633 746 633 741 633 746 634 742 634 741 634 743 635 747 635 744 635 747 636 748 636 744 636 748 2 704 2 744 2 713 637 749 637 745 637 749 638 750 638 745 638 750 639 746 639 745 639 751 640 688 640 693 640 692 65 752 65 693 65 752 641 751 641 693 641 753 642 714 642 722 642 721 68 754 68 722 68 754 643 753 643 722 643 751 70 755 70 688 70 755 71 689 71 688 71 701 644 756 644 692 644 756 72 752 72 692 72 753 73 757 73 714 73 757 74 715 74 714 74 733 645 758 645 721 645 758 76 754 76 721 76 755 646 759 646 689 646 759 85 690 85 689 85 700 647 760 647 701 647 760 648 756 648 701 648 757 649 761 649 715 649 761 650 716 650 715 650 727 651 762 651 733 651 762 652 758 652 733 652 747 653 763 653 748 653 763 654 764 654 748 654 764 2 704 2 748 2 713 655 765 655 749 655 765 656 766 656 749 656 766 657 750 657 749 657 759 78 767 78 690 78 767 658 691 658 690 658 699 659 768 659 700 659 768 660 760 660 700 660 761 661 769 661 716 661 769 658 717 658 716 658 726 662 770 662 727 662 770 662 762 662 727 662 763 663 771 663 764 663 771 664 772 664 764 664 772 2 704 2 764 2 713 665 773 665 765 665 773 252 774 252 765 252 774 252 766 252 765 252 767 658 775 658 691 658 775 91 685 91 691 91 698 666 776 666 699 666 776 93 768 93 699 93 769 658 777 658 717 658 777 91 718 91 717 91 732 667 778 667 726 667 778 95 770 95 726 95 771 668 779 668 772 668 779 669 780 669 772 669 780 2 704 2 772 2 713 670 781 670 773 670 781 671 782 671 773 671 782 258 774 258 773 258 775 672 783 672 685 672 783 673 686 673 685 673 697 674 784 674 698 674 784 675 776 675 698 675 777 672 785 672 718 672 785 676 719 676 718 676 731 674 786 674 732 674 786 675 778 675 732 675 779 669 787 669 780 669 787 677 788 677 780 677 788 2 704 2 780 2 713 678 789 678 781 678 789 679 790 679 781 679 790 263 782 263 781 263 787 680 791 680 788 680 791 681 792 681 788 681 792 682 704 682 788 682 713 2 792 2 789 2 792 683 793 683 789 683 793 684 790 684 789 684 791 685 793 685 792 685 713 686 704 686 792 686 783 687 794 687 686 687 794 106 687 106 686 106 696 688 795 688 697 688 795 103 784 103 697 103 785 689 796 689 719 689 796 106 720 106 719 106 730 688 797 688 731 688 797 103 786 103 731 103 794 690 798 690 687 690 798 107 684 107 687 107 695 108 799 108 696 108 799 108 795 108 696 108 796 690 800 690 720 690 800 107 723 107 720 107 729 108 801 108 730 108 801 108 797 108 730 108 798 107 802 107 684 107 802 114 683 114 684 114 694 110 803 110 695 110 803 110 799 110 695 110 800 107 804 107 723 107 804 114 805 114 723 114 805 2 712 2 723 2 728 112 806 112 729 112 806 691 801 691 729 691 802 114 807 114 683 114 807 62 808 62 683 62 808 2 682 2 683 2 703 2 809 2 694 2 809 60 810 60 694 60 810 60 803 60 694 60 804 114 811 114 805 114 811 62 812 62 805 62 812 2 712 2 805 2 725 2 813 2 728 2 813 60 814 60 728 60 814 60 806 60 728 60 807 62 815 62 808 62 815 692 816 692 808 692 816 693 682 693 808 693 703 694 817 694 809 694 817 695 818 695 809 695 818 696 810 696 809 696 811 62 819 62 812 62 819 697 820 697 812 697 820 698 712 698 812 698 725 699 821 699 813 699 821 700 822 700 813 700 822 701 814 701 813 701 823 60 680 60 681 60 824 60 823 60 681 60 682 2 824 2 681 2 816 2 825 2 682 2 826 702 824 702 682 702 827 2 828 2 682 2 825 2 827 2 682 2 828 2 829 2 682 2 829 2 830 2 682 2 830 703 831 703 682 703 831 2 832 2 682 2 832 2 833 2 682 2 833 2 834 2 682 2 834 2 835 2 682 2 835 2 836 2 682 2 836 2 826 2 682 2 815 704 837 704 816 704 837 705 825 705 816 705 703 706 838 706 817 706 838 707 839 707 817 707 839 708 818 708 817 708 840 2 841 2 703 2 841 2 838 2 703 2 702 2 842 2 703 2 842 2 843 2 703 2 843 2 840 2 703 2 704 2 844 2 702 2 844 2 842 2 702 2 713 2 845 2 704 2 845 2 844 2 704 2 712 2 846 2 713 2 846 2 845 2 713 2 820 2 847 2 712 2 847 2 848 2 712 2 848 2 846 2 712 2 819 709 849 709 820 709 849 710 847 710 820 710 725 711 850 711 821 711 850 707 851 707 821 707 851 708 822 708 821 708 724 62 852 62 725 62 852 62 853 62 725 62 853 2 850 2 725 2 837 712 854 712 825 712 854 122 855 122 825 122 855 713 827 713 825 713 841 125 856 125 838 125 856 125 839 125 838 125 849 714 857 714 847 714 857 122 848 122 847 122 853 715 858 715 850 715 858 125 859 125 850 125 859 125 851 125 850 125 854 122 860 122 855 122 860 716 861 716 855 716 861 717 827 717 855 717 840 131 862 131 841 131 862 718 856 718 841 718 857 122 863 122 848 122 863 716 864 716 848 716 864 2 846 2 848 2 865 719 866 719 858 719 867 2 865 2 858 2 853 2 867 2 858 2 866 131 868 131 858 131 868 718 859 718 858 718 860 128 869 128 861 128 869 720 870 720 861 720 870 2 827 2 861 2 843 721 871 721 840 721 871 135 872 135 840 135 872 722 862 722 840 722 863 128 873 128 864 128 873 723 874 723 864 723 874 724 846 724 864 724 865 2 875 2 866 2 875 2 876 2 866 2 876 2 877 2 866 2 877 725 878 725 866 725 878 135 879 135 866 135 879 722 868 722 866 722 869 140 880 140 870 140 880 141 881 141 870 141 881 726 827 726 870 726 843 727 882 727 871 727 882 728 883 728 871 728 883 145 872 145 871 145 873 146 884 146 874 146 884 141 885 141 874 141 885 2 846 2 874 2 886 729 887 729 878 729 877 730 888 730 878 730 888 2 886 2 878 2 887 149 889 149 878 149 889 149 879 149 878 149 880 141 890 141 881 141 890 731 891 731 881 731 891 2 827 2 881 2 843 732 892 732 882 732 892 153 893 153 882 153 893 733 883 733 882 733 884 141 894 141 885 141 894 731 895 731 885 731 895 734 846 734 885 734 896 2 897 2 887 2 886 2 898 2 887 2 898 2 896 2 887 2 897 157 899 157 887 157 899 735 889 735 887 735 890 151 900 151 891 151 900 736 901 736 891 736 901 737 827 737 891 737 843 738 902 738 892 738 902 161 903 161 892 161 903 739 893 739 892 739 894 151 904 151 895 151 904 740 905 740 895 740 905 741 846 741 895 741 896 2 906 2 897 2 906 742 907 742 897 742 907 166 908 166 897 166 908 743 899 743 897 743 900 158 909 158 901 158 909 168 910 168 901 168 910 744 827 744 901 744 843 2 911 2 902 2 911 745 912 745 902 745 912 170 903 170 902 170 904 171 913 171 905 171 913 172 914 172 905 172 914 746 846 746 905 746 906 747 915 747 907 747 915 748 916 748 907 748 916 176 908 176 907 176 909 749 917 749 910 749 917 750 918 750 910 750 918 751 827 751 910 751 843 752 918 752 911 752 918 753 919 753 911 753 919 181 912 181 911 181 913 754 920 754 914 754 920 191 921 191 914 191 921 2 846 2 914 2 906 755 921 755 915 755 921 756 922 756 915 756 922 757 916 757 915 757 917 758 919 758 918 758 843 759 827 759 918 759 920 760 922 760 921 760 906 2 846 2 921 2 826 761 823 761 824 761 852 62 923 62 853 62 923 762 924 762 853 762 924 763 867 763 853 763 836 764 925 764 826 764 925 765 823 765 826 765 924 766 926 766 867 766 926 767 865 767 867 767 835 768 927 768 836 768 927 769 925 769 836 769 926 770 928 770 865 770 928 771 875 771 865 771 834 772 929 772 835 772 929 773 927 773 835 773 928 774 930 774 875 774 930 775 876 775 875 775 833 776 931 776 834 776 931 777 929 777 834 777 930 778 932 778 876 778 932 779 877 779 876 779 832 780 933 780 833 780 933 781 931 781 833 781 932 782 934 782 877 782 934 783 888 783 877 783 831 784 935 784 832 784 935 785 933 785 832 785 934 786 936 786 888 786 936 787 886 787 888 787 830 788 937 788 831 788 937 789 935 789 831 789 936 790 938 790 886 790 938 791 898 791 886 791 829 792 939 792 830 792 939 793 937 793 830 793 938 794 940 794 898 794 940 795 896 795 898 795 828 796 941 796 829 796 941 797 939 797 829 797 940 798 942 798 896 798 942 799 906 799 896 799 943 800 941 800 828 800 827 801 944 801 828 801 944 801 943 801 828 801 843 801 945 801 827 801 945 801 944 801 827 801 842 801 946 801 843 801 946 801 945 801 843 801 844 801 947 801 842 801 947 801 946 801 842 801 845 801 948 801 844 801 948 801 947 801 844 801 846 801 949 801 845 801 949 801 948 801 845 801 906 801 942 801 846 801 942 801 949 801 846 801 98 802 7 802 0 802 60 803 98 803 0 803 112 804 108 804 7 804 108 803 104 803 7 803 104 803 20 803 7 803 140 803 136 803 7 803 950 803 140 803 7 803 98 803 950 803 7 803 136 803 132 803 7 803 132 803 128 803 7 803 128 803 124 803 7 803 124 803 120 803 7 803 120 803 116 803 7 803 116 803 112 803 7 803 133 805 137 805 20 805 104 806 105 806 20 806 105 803 109 803 20 803 109 803 113 803 20 803 113 803 117 803 20 803 117 803 121 803 20 803 121 803 125 803 20 803 125 807 129 807 20 807 129 803 133 803 20 803 137 803 951 803 20 803 951 803 952 803 20 803 952 803 32 803 20 803 953 803 35 803 32 803 952 803 953 803 32 803 953 803 954 803 35 803 954 803 38 803 35 803 954 803 955 803 38 803 955 803 41 803 38 803 114 803 110 803 41 803 110 803 106 803 41 803 106 808 54 808 41 808 955 803 144 803 41 803 144 803 138 803 41 803 138 803 134 803 41 803 134 809 130 809 41 809 130 810 126 810 41 810 126 803 122 803 41 803 122 803 118 803 41 803 118 803 114 803 41 803 106 811 107 811 54 811 107 803 111 803 54 803 111 812 58 812 54 812 65 803 98 803 60 803 111 813 115 813 58 813 115 814 63 814 58 814 69 803 98 803 65 803 115 815 119 815 63 815 119 816 67 816 63 816 73 817 98 817 69 817 119 818 71 818 67 818 77 819 98 819 73 819 119 820 75 820 71 820 81 803 98 803 77 803 119 821 79 821 75 821 87 803 98 803 81 803 123 822 84 822 79 822 119 803 123 803 79 803 93 803 98 803 87 803 90 803 93 803 87 803 123 823 89 823 84 823 123 824 92 824 89 824 123 825 96 825 92 825 97 803 950 803 98 803 127 803 131 803 96 803 139 803 248 803 96 803 135 826 139 826 96 826 131 803 135 803 96 803 123 803 127 803 96 803 950 803 147 803 140 803 143 803 951 803 137 803 955 803 151 803 144 803 146 803 248 803 139 803 950 803 155 803 147 803 150 827 951 827 143 827 955 828 159 828 151 828 154 829 248 829 146 829 950 803 163 803 155 803 158 803 951 803 150 803 955 803 167 803 159 803 162 803 248 803 154 803 950 830 171 830 163 830 166 831 951 831 158 831 955 832 175 832 167 832 170 803 248 803 162 803 950 803 179 803 171 803 174 803 951 803 166 803 955 833 183 833 175 833 178 803 248 803 170 803 950 834 187 834 179 834 182 803 951 803 174 803 955 835 191 835 183 835 186 803 248 803 178 803 950 836 195 836 187 836 190 803 951 803 182 803 955 837 199 837 191 837 194 838 248 838 186 838 950 839 203 839 195 839 198 803 951 803 190 803 955 840 207 840 199 840 202 803 248 803 194 803 950 841 211 841 203 841 206 803 951 803 198 803 955 842 214 842 207 842 210 803 955 803 202 803 955 803 248 803 202 803 950 843 213 843 211 843 950 844 951 844 206 844 213 803 950 803 206 803 955 845 216 845 214 845 216 846 955 846 210 846 956 803 950 803 97 803 217 803 956 803 97 803 957 803 951 803 950 803 956 803 957 803 950 803 259 803 257 803 951 803 257 847 255 847 951 847 255 803 253 803 951 803 957 803 272 803 951 803 272 803 269 803 951 803 269 803 267 803 951 803 267 803 265 803 951 803 253 848 251 848 951 848 251 803 249 803 951 803 249 803 952 803 951 803 265 849 263 849 951 849 263 803 261 803 951 803 261 803 259 803 951 803 252 803 254 803 952 803 254 803 256 803 952 803 256 850 258 850 952 850 258 803 260 803 952 803 260 803 262 803 952 803 262 803 264 803 952 803 249 803 250 803 952 803 250 803 252 803 952 803 264 851 266 851 952 851 266 803 268 803 952 803 268 803 958 803 952 803 959 803 953 803 952 803 958 803 959 803 952 803 959 803 960 803 953 803 960 803 954 803 953 803 960 803 961 803 954 803 961 803 955 803 954 803 961 803 330 803 955 803 330 803 248 803 955 803 271 852 958 852 268 852 957 853 276 853 272 853 275 803 958 803 271 803 957 854 280 854 276 854 279 803 958 803 275 803 957 855 284 855 280 855 283 803 958 803 279 803 957 856 288 856 284 856 287 857 958 857 283 857 957 858 292 858 288 858 291 803 958 803 287 803 957 859 296 859 292 859 295 803 958 803 291 803 957 860 300 860 296 860 299 803 958 803 295 803 957 861 302 861 300 861 302 803 958 803 299 803 957 803 958 803 302 803 303 803 962 803 217 803 962 803 956 803 217 803 962 803 963 803 956 803 963 803 957 803 956 803 963 803 964 803 957 803 964 803 958 803 957 803 331 803 959 803 958 803 339 803 337 803 958 803 341 803 339 803 958 803 337 803 335 803 958 803 335 803 333 803 958 803 333 803 331 803 958 803 347 803 345 803 958 803 345 803 343 803 958 803 343 862 341 862 958 862 964 803 350 803 958 803 350 803 347 803 958 803 331 803 332 803 959 803 332 803 334 803 959 803 334 803 336 803 959 803 336 803 338 803 959 803 338 863 340 863 959 863 340 803 342 803 959 803 342 803 344 803 959 803 344 864 346 864 959 864 346 803 965 803 959 803 965 803 966 803 959 803 966 803 960 803 959 803 966 803 967 803 960 803 967 803 961 803 960 803 967 803 430 803 961 803 430 803 330 803 961 803 349 865 965 865 346 865 964 803 354 803 350 803 353 803 965 803 349 803 964 866 358 866 354 866 357 867 965 867 353 867 964 868 362 868 358 868 361 869 965 869 357 869 964 870 366 870 362 870 365 803 965 803 361 803 964 871 370 871 366 871 369 803 965 803 365 803 964 872 374 872 370 872 373 873 965 873 369 873 964 874 378 874 374 874 377 803 965 803 373 803 964 803 382 803 378 803 381 803 965 803 377 803 964 875 386 875 382 875 385 803 965 803 381 803 964 876 388 876 386 876 388 803 965 803 385 803 964 803 965 803 388 803 968 803 962 803 303 803 389 803 968 803 303 803 470 803 466 803 962 803 452 803 448 803 962 803 448 803 442 803 962 803 442 803 963 803 962 803 483 803 478 803 962 803 478 877 474 877 962 877 474 803 470 803 962 803 466 803 460 803 962 803 460 803 456 803 962 803 456 803 452 803 962 803 968 803 483 803 962 803 446 803 449 803 963 803 449 878 453 878 963 878 442 803 443 803 963 803 443 803 446 803 963 803 453 879 457 879 963 879 457 803 461 803 963 803 461 803 964 803 963 803 461 803 464 803 964 803 464 803 467 803 964 803 467 803 471 803 964 803 471 803 475 803 964 803 475 803 969 803 964 803 969 803 970 803 964 803 970 803 965 803 964 803 970 803 971 803 965 803 971 803 966 803 965 803 480 803 476 803 966 803 476 803 472 803 966 803 971 803 494 803 966 803 494 803 487 803 966 803 487 803 480 803 966 803 472 880 468 880 966 880 468 881 967 881 966 881 468 803 465 803 967 803 465 803 462 803 967 803 462 882 458 882 967 882 458 803 454 803 967 803 454 803 450 803 967 803 450 803 444 803 967 803 444 803 445 803 967 803 445 803 430 803 967 803 445 803 447 803 430 803 447 883 451 883 430 883 451 884 455 884 430 884 455 803 459 803 430 803 459 803 463 803 430 803 463 803 469 803 430 803 469 803 473 803 430 803 473 803 477 803 430 803 477 803 481 803 430 803 481 803 604 803 430 803 479 803 969 803 475 803 968 803 490 803 483 803 485 803 969 803 479 803 488 803 604 803 481 803 968 803 498 803 490 803 492 803 969 803 485 803 971 885 502 885 494 885 496 803 604 803 488 803 968 803 506 803 498 803 500 803 969 803 492 803 971 886 511 886 502 886 504 803 604 803 496 803 968 803 520 803 506 803 972 803 969 803 500 803 508 803 972 803 500 803 971 887 518 887 511 887 513 803 604 803 504 803 516 803 972 803 508 803 971 803 973 803 518 803 973 803 524 803 518 803 968 888 528 888 520 888 522 889 972 889 516 889 973 890 532 890 524 890 526 891 604 891 513 891 968 803 536 803 528 803 530 892 972 892 522 892 973 803 540 803 532 803 534 803 604 803 526 803 968 803 544 803 536 803 538 893 972 893 530 893 973 894 548 894 540 894 542 803 604 803 534 803 968 895 552 895 544 895 546 803 972 803 538 803 973 896 555 896 548 896 550 803 973 803 542 803 973 803 604 803 542 803 968 897 553 897 552 897 553 898 972 898 546 898 973 899 556 899 555 899 556 900 973 900 550 900 968 803 972 803 553 803 557 803 974 803 389 803 974 803 968 803 389 803 974 803 975 803 968 803 975 803 972 803 968 803 975 803 976 803 972 803 976 803 969 803 972 803 611 803 609 803 969 803 609 803 607 803 969 803 607 803 605 803 969 803 605 803 970 803 969 803 617 901 615 901 969 901 615 803 613 803 969 803 613 803 611 803 969 803 627 803 625 803 969 803 625 803 623 803 969 803 976 803 630 803 969 803 630 902 627 902 969 902 623 803 621 803 969 803 621 803 619 803 969 803 619 803 617 803 969 803 669 803 667 803 970 803 672 803 669 803 970 803 977 803 672 803 970 803 667 903 665 903 970 903 665 904 663 904 970 904 663 803 661 803 970 803 605 803 606 803 970 803 606 803 608 803 970 803 608 803 610 803 970 803 610 803 612 803 970 803 612 905 614 905 970 905 614 803 616 803 970 803 616 803 618 803 970 803 618 906 620 906 970 906 620 907 622 907 970 907 622 803 624 803 970 803 624 908 626 908 970 908 626 803 977 803 970 803 661 803 659 803 970 803 659 909 971 909 970 909 662 910 664 910 971 910 660 803 662 803 971 803 664 803 666 803 971 803 666 803 668 803 971 803 668 803 978 803 971 803 659 803 657 803 971 803 657 803 658 803 971 803 658 911 660 911 971 911 978 803 979 803 971 803 979 803 973 803 971 803 979 803 724 803 973 803 724 803 604 803 973 803 629 912 977 912 626 912 976 913 634 913 630 913 633 803 977 803 629 803 976 914 638 914 634 914 637 803 977 803 633 803 976 915 642 915 638 915 641 916 977 916 637 916 976 917 646 917 642 917 645 803 977 803 641 803 976 803 650 803 646 803 649 803 977 803 645 803 976 918 654 918 650 918 653 803 977 803 649 803 976 919 656 919 654 919 976 803 977 803 653 803 656 803 976 803 653 803 671 920 978 920 668 920 977 921 676 921 672 921 675 922 978 922 671 922 977 923 707 923 676 923 679 924 978 924 675 924 680 803 980 803 557 803 980 803 974 803 557 803 807 803 802 803 974 803 980 803 807 803 974 803 802 803 798 803 974 803 798 803 794 803 974 803 794 803 783 803 974 803 783 803 775 803 974 803 775 803 767 803 974 803 767 803 759 803 974 803 759 925 755 925 974 925 755 803 751 803 974 803 751 803 975 803 974 803 776 803 784 803 975 803 784 926 795 926 975 926 795 803 799 803 975 803 756 803 760 803 975 803 760 803 768 803 975 803 768 803 776 803 975 803 751 927 752 927 975 927 752 803 756 803 975 803 981 803 976 803 975 803 982 803 981 803 975 803 799 803 982 803 975 803 983 803 977 803 976 803 981 803 983 803 976 803 739 803 736 803 977 803 736 803 734 803 977 803 734 803 707 803 977 803 983 803 739 803 977 803 709 803 978 803 679 803 709 803 735 803 978 803 735 803 984 803 978 803 984 803 985 803 978 803 985 803 979 803 978 803 985 803 811 803 979 803 811 803 804 803 979 803 804 803 800 803 979 803 800 928 796 928 979 928 796 929 785 929 979 929 785 803 777 803 979 803 777 803 769 803 979 803 769 803 761 803 979 803 761 803 757 803 979 803 757 803 753 803 979 803 753 930 754 930 979 930 754 803 724 803 979 803 801 803 852 803 724 803 754 931 758 931 724 931 758 803 762 803 724 803 762 932 770 932 724 932 770 803 778 803 724 803 778 803 786 803 724 803 786 803 797 803 724 803 797 803 801 803 724 803 738 933 984 933 735 933 983 934 743 934 739 934 742 935 984 935 738 935 983 936 747 936 743 936 746 937 984 937 742 937 983 938 763 938 747 938 750 803 984 803 746 803 983 939 771 939 763 939 766 803 984 803 750 803 983 940 779 940 771 940 774 941 984 941 766 941 983 942 787 942 779 942 782 803 984 803 774 803 983 943 791 943 787 943 790 944 984 944 782 944 983 803 793 803 791 803 793 803 984 803 790 803 983 945 984 945 793 945 803 803 982 803 799 803 806 946 852 946 801 946 980 803 815 803 807 803 810 803 982 803 803 803 985 803 819 803 811 803 814 803 852 803 806 803 980 803 837 803 815 803 818 947 982 947 810 947 985 948 849 948 819 948 822 949 852 949 814 949 823 803 980 803 680 803 943 803 944 803 980 803 944 803 854 803 980 803 854 803 837 803 980 803 823 803 925 803 980 803 925 803 927 803 980 803 935 803 937 803 980 803 933 950 935 950 980 950 937 803 939 803 980 803 939 951 941 951 980 951 941 803 943 803 980 803 927 952 929 952 980 952 929 953 931 953 980 953 931 954 933 954 980 954 839 955 982 955 818 955 839 803 856 803 982 803 946 803 981 803 982 803 945 803 946 803 982 803 856 803 945 803 982 803 947 803 983 803 981 803 946 803 947 803 981 803 948 803 984 803 983 803 947 803 948 803 983 803 949 803 985 803 984 803 948 803 949 803 984 803 873 956 863 956 985 956 863 803 857 803 985 803 857 803 849 803 985 803 949 803 873 803 985 803 923 803 852 803 822 803 851 803 923 803 822 803 944 803 860 803 854 803 924 803 923 803 851 803 859 803 924 803 851 803 944 957 869 957 860 957 862 958 945 958 856 958 926 959 924 959 859 959 868 960 926 960 859 960 944 803 880 803 869 803 872 803 945 803 862 803 949 961 884 961 873 961 928 803 926 803 868 803 930 962 928 962 868 962 879 803 934 803 868 803 934 803 932 803 868 803 932 963 930 963 868 963 944 964 890 964 880 964 883 803 945 803 872 803 949 965 894 965 884 965 889 803 936 803 879 803 936 966 934 966 879 966 944 967 900 967 890 967 893 803 945 803 883 803 949 968 904 968 894 968 899 803 940 803 889 803 940 969 938 969 889 969 938 803 936 803 889 803 944 970 909 970 900 970 903 803 945 803 893 803 949 971 913 971 904 971 942 803 940 803 899 803 908 803 942 803 899 803 944 972 917 972 909 972 912 803 945 803 903 803 949 973 920 973 913 973 916 803 942 803 908 803 944 974 919 974 917 974 944 975 945 975 912 975 919 803 944 803 912 803 949 976 922 976 920 976 949 977 942 977 916 977 922 978 949 978 916 978</p>
        </triangles>
      </mesh>
    </geometry>
  </library_geometries>
  <library_controllers/>
  <library_visual_scenes>
    <visual_scene id="Scene" name="Scene">
      <node id="Camera" name="Camera" type="NODE">
        <matrix sid="transform">0.6859207 -0.3240135 0.6515582 7.481132 0.7276763 0.3054208 -0.6141704 -6.50764 0 0.8953956 0.4452714 5.343665 0 0 0 1</matrix>
        <instance_camera url="#Camera-camera"/>
      </node>
      <node id="Lamp" name="Lamp" type="NODE">
        <matrix sid="transform">-0.2908646 -0.7711008 0.5663932 4.076245 0.9551712 -0.1998834 0.2183912 1.005454 -0.05518906 0.6045247 0.7946723 5.903862 0 0 0 1</matrix>
        <instance_light url="#Lamp-light"/>
      </node>
      <node id="sick_lidar_support" name="sick_lidar_support" type="NODE">
        <matrix sid="transform">0.00999999 0 0 -1.12295e-4 0 -4.37113e-10 -0.00999999 -5.27635e-4 0 0.00999999 -4.37113e-10 4.46569e-5 0 0 0 1</matrix>
        <instance_geometry url="#sick_lidar_support-mesh" name="sick_lidar_support"/>
      </node>
    </visual_scene>
  </library_visual_scenes>
  <scene>
    <instance_visual_scene url="#Scene"/>
  </scene>
</COLLADA>