<?xml version="1.0" encoding="utf-8"?>
<COLLADA xmlns="http://www.collada.org/2005/11/COLLADASchema" version="1.4.1">
  <asset>
    <contributor>
      <author>Blender User</author>
      <authoring_tool>Blender 2.79.0</authoring_tool>
    </contributor>
    <created>2021-01-16T22:41:38</created>
    <modified>2021-01-16T22:41:38</modified>
    <unit name="meter" meter="1"/>
    <up_axis>Z_UP</up_axis>
  </asset>
  <library_cameras>
    <camera id="Camera-camera" name="Camera">
      <optics>
        <technique_common>
          <perspective>
            <xfov sid="xfov">49.13434</xfov>
            <aspect_ratio>1.777778</aspect_ratio>
            <znear sid="znear">0.1</znear>
            <zfar sid="zfar">100</zfar>
          </perspective>
        </technique_common>
      </optics>
      <extra>
        <technique profile="blender">
          <shiftx sid="shiftx" type="float">0</shiftx>
          <shifty sid="shifty" type="float">0</shifty>
          <YF_dofdist sid="YF_dofdist" type="float">0</YF_dofdist>
        </technique>
      </extra>
    </camera>
  </library_cameras>
  <library_lights>
    <light id="Lamp-light" name="Lamp">
      <technique_common>
        <point>
          <color sid="color">1 1 1</color>
          <constant_attenuation>1</constant_attenuation>
          <linear_attenuation>0</linear_attenuation>
          <quadratic_attenuation>0.00111109</quadratic_attenuation>
        </point>
      </technique_common>
      <extra>
        <technique profile="blender">
          <type sid="type" type="int">0</type>
          <flag sid="flag" type="int">0</flag>
          <mode sid="mode" type="int">8192</mode>
          <gamma sid="blender_gamma" type="float">1</gamma>
          <red sid="red" type="float">1</red>
          <green sid="green" type="float">1</green>
          <blue sid="blue" type="float">1</blue>
          <shadow_r sid="blender_shadow_r" type="float">0</shadow_r>
          <shadow_g sid="blender_shadow_g" type="float">0</shadow_g>
          <shadow_b sid="blender_shadow_b" type="float">0</shadow_b>
          <energy sid="blender_energy" type="float">1</energy>
          <dist sid="blender_dist" type="float">29.99998</dist>
          <spotsize sid="spotsize" type="float">75</spotsize>
          <spotblend sid="spotblend" type="float">0.15</spotblend>
          <halo_intensity sid="blnder_halo_intensity" type="float">1</halo_intensity>
          <att1 sid="att1" type="float">0</att1>
          <att2 sid="att2" type="float">1</att2>
          <falloff_type sid="falloff_type" type="int">2</falloff_type>
          <clipsta sid="clipsta" type="float">1.000799</clipsta>
          <clipend sid="clipend" type="float">30.002</clipend>
          <bias sid="bias" type="float">1</bias>
          <soft sid="soft" type="float">3</soft>
          <compressthresh sid="compressthresh" type="float">0.04999995</compressthresh>
          <bufsize sid="bufsize" type="int">2880</bufsize>
          <samp sid="samp" type="int">3</samp>
          <buffers sid="buffers" type="int">1</buffers>
          <filtertype sid="filtertype" type="int">0</filtertype>
          <bufflag sid="bufflag" type="int">0</bufflag>
          <buftype sid="buftype" type="int">2</buftype>
          <ray_samp sid="ray_samp" type="int">1</ray_samp>
          <ray_sampy sid="ray_sampy" type="int">1</ray_sampy>
          <ray_sampz sid="ray_sampz" type="int">1</ray_sampz>
          <ray_samp_type sid="ray_samp_type" type="int">0</ray_samp_type>
          <area_shape sid="area_shape" type="int">1</area_shape>
          <area_size sid="area_size" type="float">0.1</area_size>
          <area_sizey sid="area_sizey" type="float">0.1</area_sizey>
          <area_sizez sid="area_sizez" type="float">1</area_sizez>
          <adapt_thresh sid="adapt_thresh" type="float">0.000999987</adapt_thresh>
          <ray_samp_method sid="ray_samp_method" type="int">1</ray_samp_method>
          <shadhalostep sid="shadhalostep" type="int">0</shadhalostep>
          <sun_effect_type sid="sun_effect_type" type="int">0</sun_effect_type>
          <skyblendtype sid="skyblendtype" type="int">1</skyblendtype>
          <horizon_brightness sid="horizon_brightness" type="float">1</horizon_brightness>
          <spread sid="spread" type="float">1</spread>
          <sun_brightness sid="sun_brightness" type="float">1</sun_brightness>
          <sun_size sid="sun_size" type="float">1</sun_size>
          <backscattered_light sid="backscattered_light" type="float">1</backscattered_light>
          <sun_intensity sid="sun_intensity" type="float">1</sun_intensity>
          <atm_turbidity sid="atm_turbidity" type="float">2</atm_turbidity>
          <atm_extinction_factor sid="atm_extinction_factor" type="float">1</atm_extinction_factor>
          <atm_distance_factor sid="atm_distance_factor" type="float">1</atm_distance_factor>
          <skyblendfac sid="skyblendfac" type="float">1</skyblendfac>
          <sky_exposure sid="sky_exposure" type="float">1</sky_exposure>
          <sky_colorspace sid="sky_colorspace" type="int">0</sky_colorspace>
        </technique>
      </extra>
    </light>
  </library_lights>
  <library_images/>
  <library_geometries>
    <geometry id="Antenna-mesh" name="Antenna">
      <mesh>
        <source id="Antenna-mesh-positions">
          <float_array id="Antenna-mesh-positions-array" count="1005">0.03114986 -2.01294e-7 -0.0408926 -1.606708 -2.01294e-7 -6.331157 -0.5200887 -2.01294e-7 -6.517477 0.5823884 -2.01294e-7 -6.517477 1.669007 -2.01294e-7 -6.331157 -2.646208 -2.01294e-7 -5.963878 2.708508 -2.01294e-7 -5.963878 -3.608686 -2.01294e-7 -5.426205 3.670986 -2.01294e-7 -5.426205 -4.466453 -2.01294e-7 -4.733607 4.528752 -2.01294e-7 -4.733607 -5.194831 -2.01294e-7 -3.906008 5.257132 -2.01294e-7 -3.906008 -5.772868 -2.01294e-7 -2.967217 5.835168 -2.01294e-7 -2.967217 -1.067355 130 -6.447396 -0.5181027 130 -6.494144 0.03114986 130 -6.540893 0.5804029 130 -6.494144 -2.134259 130 -6.169596 -1.600807 130 -6.308496 1.129655 130 -6.447396 1.663107 130 -6.308496 -6.183934 -2.01294e-7 -1.94424 6.246234 -2.01294e-7 -1.94424 -3.138867 130 -5.715484 -2.636563 130 -5.94254 2.196559 130 -6.169596 2.698863 130 -5.94254 -4.05228 130 -5.098125 -3.595573 130 -5.406804 3.201167 130 -5.715484 3.657873 130 -5.406804 -6.416203 -2.01294e-7 -0.866508 6.478503 -2.01294e-7 -0.866508 -4.84822 130 -4.335278 -4.45025 130 -4.716701 4.11458 130 -5.098125 4.51255 130 -4.716701 -6.462994 -2.01294e-7 0.2349753 6.525293 -2.01294e-7 0.2349753 -5.503789 130 -3.448889 -5.176005 130 -3.892084 4.91052 130 -4.335278 5.238305 130 -3.892084 0.03114986 -2.01294e-7 6.459107 -1.067355 -2.01294e-7 6.365611 3.201167 -2.01294e-7 5.633699 2.196559 -2.01294e-7 6.087811 1.129655 -2.01294e-7 6.365611 5.56609 -2.01294e-7 3.367105 4.91052 -2.01294e-7 4.253493 4.11458 -2.01294e-7 5.01634 6.385259 -2.01294e-7 1.328523 6.062428 -2.01294e-7 2.382675 -6.000129 -2.01294e-7 2.382675 -6.322959 -2.01294e-7 1.328523 -4.05228 -2.01294e-7 5.01634 -4.84822 -2.01294e-7 4.253493 -5.503789 -2.01294e-7 3.367105 -2.134259 -2.01294e-7 6.087811 -3.138867 -2.01294e-7 5.633699 -6.000129 130 -2.464459 -5.751959 130 -2.956674 5.56609 130 -3.448889 5.814259 130 -2.956674 -6.322959 130 -1.410307 -6.161544 130 -1.937384 6.062428 130 -2.464459 6.223844 130 -1.937384 -6.462994 130 -0.3167601 -6.392976 130 -0.863534 6.385259 130 -1.410307 6.455276 130 -0.863534 -6.416203 130 0.7847238 -6.439598 130 0.2339816 6.525293 130 -0.3167601 6.501898 130 0.2339816 -6.183934 130 1.862455 -6.300068 130 1.32359 6.478503 130 0.7847238 6.362369 130 1.32359 -5.772868 130 2.885432 -5.978401 130 2.373943 6.246234 130 1.862455 6.040701 130 2.373943 -4.830642 130 4.238023 -5.194831 130 3.824223 -5.48385 130 3.354828 5.835168 130 2.885432 5.54615 130 3.354828 -4.037569 130 4.998121 -4.466453 130 4.651822 5.257132 130 3.824223 4.892942 130 4.238023 -3.127447 130 5.613256 -3.608686 130 5.34442 4.528752 130 4.651822 4.099869 130 4.998121 -2.126458 130 6.065732 -2.646208 130 5.882092 3.670986 130 5.34442 3.189747 130 5.613256 -1.063398 130 6.342531 -1.606708 130 6.249372 2.708508 130 5.882092 2.188758 130 6.065732 0.03114986 130 6.459107 -0.5200887 130 6.435691 1.669007 130 6.249372 1.125698 130 6.342531 0.5823884 130 6.435691 0.03114986 150 -3.040892 -0.222351 150 -3.019316 -0.4758525 150 -2.99774 0.2846513 150 -3.019316 -0.7220607 150 -2.933633 0.5381527 150 -2.99774 -0.9682694 150 -2.869525 0.7843609 150 -2.933633 -1.200102 150 -2.76473 1.03057 150 -2.869525 -1.431935 150 -2.659934 1.262402 150 -2.76473 -1.642723 150 -2.517467 1.494235 150 -2.659934 -1.85351 150 -2.374999 1.705023 150 -2.517467 -2.037189 150 -2.198958 1.91581 150 -2.374999 -2.220867 150 -2.022916 2.099488 150 -2.198958 -2.372152 150 -1.818366 2.283167 150 -2.022916 -2.523437 150 -1.613814 2.434452 150 -1.818366 -2.637977 150 -1.386638 2.585737 150 -1.613814 -2.752517 150 -1.159461 2.700277 150 -1.386638 -2.827016 150 -0.9161959 2.814817 150 -1.159461 -2.901516 150 -0.6729303 2.889317 150 -0.9161959 -2.933831 150 -0.4205732 2.963816 150 -0.6729303 -2.966147 150 -0.1682157 2.996131 150 -0.4205732 -2.955349 150 0.08597278 3.028447 150 -0.1682157 -2.944551 150 0.3401609 3.017649 150 0.08597278 -2.890951 150 0.5888682 3.006851 150 0.3401609 -2.83735 150 0.8375764 2.953251 150 0.5888682 -2.742489 150 1.073647 2.899651 150 0.8375764 -2.647628 150 1.309719 2.804789 150 1.073647 -2.514235 150 1.526363 2.709928 150 1.309719 -2.380841 150 1.743007 2.576534 150 1.526363 -2.212754 150 1.933991 2.443141 150 1.743007 -2.044666 150 2.124976 2.275054 150 1.933991 -1.846721 150 2.284806 2.106967 150 2.124976 -1.648774 150 2.444636 1.90902 150 2.284806 -1.426664 150 2.568715 1.711074 150 2.444636 -1.204554 150 2.692793 1.488964 150 2.568715 -0.9646692 150 2.77755 1.266854 150 2.692793 -0.7247844 150 2.862307 1.026969 150 2.77755 -0.4740262 150 2.905303 0.7870841 150 2.862307 -0.2232675 150 2.9483 0.5363259 150 2.905303 0.03114986 150 2.959107 0.2855678 150 2.9483 -0.2232675 199 -3.030085 0.2855678 199 -3.030085 -0.7247844 199 -2.944091 0.7870841 199 -2.944091 -1.204554 199 -2.774578 1.266854 199 -2.774578 -1.648774 199 -2.526421 1.711074 199 -2.526421 -2.044666 199 -2.20676 2.106967 199 -2.20676 -2.380841 199 -1.824791 2.443141 199 -1.824791 -2.647628 199 -1.391504 2.709928 199 -1.391504 -2.83735 199 -0.9193606 2.899651 199 -0.9193606 -2.944551 199 -0.4219461 3.006851 199 -0.4219461 -2.966147 199 0.0864315 3.028447 199 0.0864315 -2.901516 199 0.5911455 2.963816 199 0.5911455 -2.752517 199 1.077677 2.814817 199 1.077677 -2.523437 199 1.532029 2.585737 199 1.532029 -2.220867 199 1.941132 2.283167 199 1.941132 -1.85351 199 2.293215 1.91581 199 2.293215 -1.431935 199 2.57815 1.494235 199 2.57815 -0.9682694 199 2.78774 1.03057 199 2.78774 -0.4758525 199 2.915956 0.5381527 199 2.915956 0.03114986 199 2.959107 0.2279276 199.4283 -2.352864 -0.1656279 199.4283 -2.352864 0.6158223 199.4283 -2.286353 -0.5535226 199.4283 -2.286353 0.986897 199.4283 -2.155244 -0.9245973 199.4283 -2.155244 1.330477 199.4283 -1.963309 -1.268177 199.4283 -1.963309 1.636677 199.4283 -1.71607 -1.574377 199.4283 -1.71607 1.896689 199.4283 -1.420639 -1.83439 199.4283 -1.420639 2.103033 199.4283 -1.085514 -2.040733 199.4283 -1.085514 2.249773 199.4283 -0.7203379 -2.187473 199.4283 -0.7203379 2.332687 199.4283 -0.3356156 -2.270387 199.4283 -0.3356156 2.34939 199.4283 0.05758523 -2.28709 199.4283 0.05758523 2.299401 199.4283 0.4479532 -2.237102 199.4283 0.4479532 2.184159 199.4283 0.8242583 -2.12186 199.4283 0.8242583 2.00698 199.4283 1.175674 -1.944679 199.4283 1.175674 1.772958 199.4283 1.492091 -1.710658 199.4283 1.492091 1.488828 199.4283 1.764408 -1.426528 199.4283 1.764408 1.162764 199.4283 1.98479 -1.100464 199.4283 1.98479 0.8041444 199.4283 2.146895 -0.7418447 199.4283 2.146895 0.4232879 199.4283 2.246063 -0.3609877 199.4283 2.246063 0.03114986 199.4283 2.279439 0.1652202 199.7423 -1.616102 -0.10292 199.7423 -1.616102 0.4295035 199.7423 -1.570785 -0.3672032 199.7423 -1.570785 0.6823263 199.7423 -1.481458 -0.6200266 199.7423 -1.481458 0.9164167 199.7423 -1.350687 -0.8541164 199.7423 -1.350687 1.125039 199.7423 -1.182236 -1.062739 199.7423 -1.182236 1.302193 199.7423 -0.9809504 -1.239892 199.7423 -0.9809504 1.44278 199.7423 -0.7526212 -1.380481 199.7423 -0.7526212 1.542758 199.7423 -0.5038171 -1.480458 199.7423 -0.5038171 1.59925 199.7423 -0.2416954 -1.53695 199.7423 -0.2416954 1.61063 199.7423 0.02620315 -1.54833 199.7423 0.02620315 1.576571 199.7423 0.2921715 -1.514271 199.7423 0.2921715 1.498054 199.7423 0.5485582 -1.435754 199.7423 0.5485582 1.377336 199.7423 0.7879872 -1.315036 199.7423 0.7879872 1.217891 199.7423 1.003571 -1.155591 199.7423 1.003571 1.024306 199.7423 1.189108 -0.9620061 199.7423 1.189108 0.8021493 199.7423 1.33926 -0.7398491 199.7423 1.33926 0.5578122 199.7423 1.449707 -0.495512 199.7423 1.449707 0.2983241 199.7423 1.517272 -0.2360243 199.7423 1.517272 0.03114986 199.7423 1.540012 0.09905958 199.934 -0.8387714 -0.03675937 199.934 -0.8387714 0.2329249 199.934 -0.8158174 -0.1706247 199.934 -0.8158174 0.3609858 199.934 -0.7705712 -0.2986856 199.934 -0.7705712 0.4795575 199.934 -0.7043328 -0.4172573 199.934 -0.7043328 0.5852294 199.934 -0.6190086 -0.5229297 199.934 -0.6190086 0.6749616 199.934 -0.5170531 -0.6126618 199.934 -0.5170531 0.7461724 199.934 -0.4013991 -0.6838727 199.934 -0.4013991 0.7968135 199.934 -0.2753744 -0.7345133 199.934 -0.2753744 0.825428 199.934 -0.1426033 -0.7631278 199.934 -0.1426033 0.831192 199.934 -0.006906986 -0.7688923 199.934 -0.006906986 0.8139405 199.934 0.1278119 -0.7516408 199.934 0.1278119 0.7741699 199.934 0.2576776 -0.7118697 199.934 0.2576776 0.7130237 199.934 0.3789539 -0.6507235 199.934 0.3789539 0.6322613 199.934 0.488152 -0.5699611 199.934 0.488152 0.5342059 199.934 0.5821304 -0.4719057 199.934 0.5821304 0.4216786 199.934 0.658186 -0.3593783 199.934 0.658186 0.2979164 199.934 0.7141299 -0.2356162 199.934 0.7141299 0.1664795 199.934 0.748353 -0.1041798 199.934 0.748353 0.03114986 199.934 0.7598715 0.03114986 199.9985 -0.0408926</float_array>
          <technique_common>
            <accessor source="#Antenna-mesh-positions-array" count="335" stride="3">
              <param name="X" type="float"/>
              <param name="Y" type="float"/>
              <param name="Z" type="float"/>
            </accessor>
          </technique_common>
        </source>
        <source id="Antenna-mesh-normals">
          <float_array id="Antenna-mesh-normals-array" count="1917">0 -1 0 0 -1 0 0 -1 0 0 -1 0 0 -1 0 0 -1 0 0 -1 0 -0.1690001 -1.80126e-4 -0.985616 -0.08480584 1.8013e-4 -0.9963976 0 1.79482e-4 -1 -0.08480584 -5.39079e-4 -0.9963974 0.08480578 1.8013e-4 -0.9963976 0.1690009 1.79481e-4 -0.9856159 -0.3331395 -1.80124e-4 -0.9428775 -0.2519782 1.80126e-4 -0.9677329 -0.2519796 1.80125e-4 -0.9677326 0.08480411 -5.39086e-4 -0.9963976 0.2519798 1.80126e-4 -0.9677326 0.3331393 1.79477e-4 -0.9428776 0 -1 0 0 -1 0 -0.4876958 -1.80124e-4 -0.8730136 -0.4119023 1.80123e-4 -0.9112281 -0.4119006 1.80126e-4 -0.9112288 0.251978 -5.39076e-4 -0.9677329 0.4119009 1.80126e-4 -0.9112288 0.4876953 1.79477e-4 -0.873014 -0.6282205 -1.80124e-4 -0.7780355 -0.559973 1.80126e-4 -0.8285109 -0.5599743 1.80124e-4 -0.82851 0.4119036 -5.39072e-4 -0.9112273 0.5599744 1.80127e-4 -0.8285098 0.6282201 1.7948e-4 -0.7780358 0 -1 0 -0.750673 -1.80122e-4 -0.660674 -0.691939 1.80127e-4 -0.7219559 -0.6919386 1.80126e-4 -0.7219564 0.5599737 -5.39089e-4 -0.8285103 0.6919382 1.80125e-4 -0.7219568 0.7506725 1.79473e-4 -0.6606745 0 -1 0 -0.851529 -1.80119e-4 -0.5243077 -0.8039973 1.80114e-4 -0.5946331 -0.8039966 1.80119e-4 -0.5946341 0.6919399 -5.39066e-4 -0.721955 0.803996 1.80127e-4 -0.5946345 0.8515291 1.79467e-4 -0.5243073 0 -1 0 -0.9278891 -1.80126e-4 -0.3728562 -0.8929255 1.80125e-4 -0.4502043 -0.892926 1.80119e-4 -0.4502033 0.8039974 -5.39072e-4 -0.5946326 0.8929265 1.80132e-4 -0.4502027 0.9278891 1.7948e-4 -0.3728566 -0.9775552 -1.80129e-4 -0.2106794 -0.9561669 1.80128e-4 -0.2928225 -0.9561667 1.80132e-4 -0.2928227 0.8929255 -5.39073e-4 -0.4502043 0.9561667 1.80127e-4 -0.2928227 0.9775552 1.7948e-4 -0.2106795 -0.9990989 -1.80129e-4 -0.0424413 -0.9919005 1.8012e-4 -0.1270182 -0.9919003 1.80132e-4 -0.1270183 0.9561668 -5.39079e-4 -0.2928224 0.9919002 1.80126e-4 -0.1270191 0.999099 1.7948e-4 -0.04244089 -0.9919004 -1.80129e-4 0.1270182 -0.999099 1.80132e-4 0.04244083 -0.9990989 1.80132e-4 0.04244178 0.9919005 -5.39086e-4 -0.1270173 0.9990989 1.80135e-4 0.04244178 0.9919004 1.79473e-4 0.1270182 -0.9561669 -1.80129e-4 0.2928225 -0.9775552 1.80127e-4 0.2106797 -0.9775552 1.80126e-4 0.2106795 0.9990989 -5.39086e-4 0.04243999 0.9775552 1.80118e-4 0.2106795 0.9561669 1.79467e-4 0.2928224 -0.8929259 -1.80126e-4 0.4502037 -0.9278894 1.80131e-4 0.3728557 -0.927889 1.80132e-4 0.3728567 0.977555 -5.39073e-4 0.2106797 0.927889 1.80129e-4 0.3728567 0.892926 1.7948e-4 0.4502034 -0.8039969 1.79467e-4 0.5946335 -0.750673 -5.3906e-4 0.6606739 -0.8515285 1.80124e-4 0.5243083 -0.8515293 1.80126e-4 0.5243071 0.927889 -5.39079e-4 0.3728564 0.8515297 1.80126e-4 0.5243064 0.8039968 1.79474e-4 0.5946338 -0.6919392 1.79477e-4 0.7219557 -0.628219 -5.39079e-4 0.7780364 -0.7506721 1.80126e-4 0.6606749 0.8515288 -5.39079e-4 0.5243076 0.7506726 1.80122e-4 0.6606745 0.691939 1.79474e-4 0.721956 -0.5599748 1.79477e-4 0.8285096 -0.4876937 -5.39079e-4 0.8730148 -0.6282207 1.80125e-4 0.7780351 0.7506716 -5.39065e-4 0.6606754 0.6282202 1.80131e-4 0.7780357 0.5599747 1.79483e-4 0.8285097 -0.4119021 1.79483e-4 0.9112282 -0.3331385 -5.39077e-4 0.9428778 -0.4876953 1.80125e-4 0.8730139 0.6282209 -5.39081e-4 0.7780349 0.4876936 1.80127e-4 0.8730149 0.4119015 1.79477e-4 0.9112284 -0.2519773 1.79479e-4 0.9677332 -0.1690017 -5.39075e-4 0.9856157 -0.3331389 1.80131e-4 0.9428778 0.4876956 -5.39075e-4 0.8730136 0.3331401 1.80131e-4 0.9428774 0.2519773 1.79483e-4 0.9677332 -0.08480584 0 0.9963976 -0.04244041 -3.59922e-4 0.999099 -0.1690018 1.80128e-4 0.9856157 0.33314 -5.39076e-4 0.9428772 0.1690002 1.80129e-4 0.985616 0.08480578 1.79479e-4 0.9963976 0.169 -5.39076e-4 0.9856159 0.04244214 0 0.999099 0.08354806 0.1717776 -0.9815866 -0.08354467 0.1717779 -0.9815869 -0.08354812 0.1717776 -0.9815866 -0.08354455 0.1717779 -0.9815868 -0.08354413 0.1717777 -0.9815869 0.08354443 0.1717776 -0.9815869 0.08354276 0.1717777 -0.981587 -0.2482321 0.1717777 -0.9533484 -0.2482334 0.1717775 -0.9533482 0.2482324 0.1717776 -0.9533483 0.08354747 0.1717779 -0.9815866 -0.2482315 0.1717776 -0.9533487 -0.2482328 0.1717779 -0.9533482 0.2482309 0.1717776 -0.9533488 0.2482349 0.1717776 -0.9533478 -0.4057787 0.1717776 -0.8976839 -0.4057782 0.1717773 -0.897684 0.4057781 0.1717776 -0.8976841 0.2482349 0.1717778 -0.9533477 -0.4057808 0.1717783 -0.8976827 -0.4057792 0.1717777 -0.8976836 0.4057802 0.1717782 -0.897683 0.4057811 0.1717773 -0.8976827 -0.5516484 0.1717776 -0.8161964 -0.551653 0.1717782 -0.8161933 0.5516524 0.1717778 -0.8161937 0.4057765 0.1717767 -0.8976849 -0.5516525 0.1717773 -0.8161938 -0.5516495 0.1717774 -0.8161957 0.5516514 0.171778 -0.8161943 0.5516484 0.1717776 -0.8161964 -0.6816577 0.1717789 -0.7112206 -0.6816531 0.1717776 -0.7112255 0.681654 0.171778 -0.7112244 0.5516525 0.1717771 -0.8161938 -0.6816521 0.1717771 -0.7112265 -0.6816537 0.1717776 -0.7112247 0.6816571 0.1717783 -0.7112214 0.6816521 0.1717771 -0.7112265 -0.7920468 0.171778 -0.5857936 -0.7920449 0.1717775 -0.5857965 0.7920442 0.1717774 -0.5857974 0.6816521 0.1717774 -0.7112265 -0.7920474 0.1717779 -0.585793 -0.7920473 0.171778 -0.585793 0.7920472 0.1717777 -0.5857932 0.7920469 0.1717777 -0.5857937 -0.8796555 0.171778 -0.4435072 -0.8796538 0.1717777 -0.4435107 0.8796538 0.1717775 -0.4435107 0.7920463 0.1717782 -0.5857943 -0.879651 0.1717766 -0.4435167 -0.8796534 0.171778 -0.4435111 0.8796516 0.1717773 -0.4435153 0.8796509 0.1717773 -0.4435167 -0.9419537 0.1717777 -0.2884712 -0.9419534 0.1717776 -0.2884726 0.941954 0.1717777 -0.2884702 0.8796505 0.1717771 -0.4435173 -0.9419571 0.1717783 -0.2884601 -0.9419549 0.1717779 -0.2884674 0.9419541 0.1717777 -0.2884699 0.941957 0.1717782 -0.2884601 -0.9771568 0.1717777 -0.1251279 -0.9771567 0.1717777 -0.1251287 0.9771565 0.1717776 -0.1251304 0.9419538 0.1717776 -0.288471 -0.9771569 0.1717777 -0.1251276 -0.9771567 0.1717777 -0.1251286 0.9771565 0.1717777 -0.1251306 0.9771569 0.1717777 -0.1251278 -0.9842482 0.1717777 0.04180771 -0.9842479 0.1717776 0.04181498 0.984248 0.1717776 0.04181361 0.9771554 0.1717774 -0.1251392 -0.9842482 0.1717777 0.04180777 -0.9842482 0.1717777 0.04180949 0.9842482 0.1717777 0.04180848 0.9842478 0.1717776 0.04181951 -0.9630243 0.1717776 0.2075497 -0.9630246 0.1717776 0.2075479 0.9630246 0.1717777 0.2075479 0.9842482 0.1717777 0.04180777 -0.9630244 0.1717777 0.207549 -0.9630246 0.1717777 0.2075481 0.9630246 0.1717777 0.2075481 0.9630267 0.1717779 0.2075383 -0.9140971 0.1717779 0.367313 -0.9140965 0.1717776 0.3673145 0.9140963 0.1717776 0.3673152 0.9630244 0.1717777 0.207549 -0.9140974 0.1717779 0.3673122 -0.9140988 0.1717778 0.3673089 0.9140984 0.1717779 0.3673098 0.914093 0.1717774 0.3673235 -0.8388733 0.1717781 0.5165115 -0.8388706 0.1717773 0.5165159 0.838873 0.1717779 0.5165119 0.9140936 0.1717767 0.3673225 -0.8388724 0.171778 0.5165128 -0.8388707 0.1717777 0.5165159 0.8388733 0.171778 0.5165114 0.8388681 0.1717769 0.5165202 -0.7395083 0.1717762 0.6508613 -0.7395181 0.1717785 0.6508495 0.7395142 0.1717777 0.6508543 0.8388673 0.1717773 0.5165214 -0.7395129 0.1717774 0.6508558 0.7395119 0.1717771 0.6508571 0.7395198 0.1717784 0.6508477 -0.6188823 0.1717773 0.7664708 -0.6188831 0.1717781 0.7664699 0.6188812 0.1717776 0.7664715 0.7395191 0.1717789 0.6508484 -0.6188748 0.1717764 0.7664769 -0.6188831 0.1717779 0.7664699 0.6188812 0.1717772 0.7664716 0.6188822 0.1717777 0.7664706 -0.4804488 0.171778 0.8600357 -0.4804443 0.1717771 0.8600383 0.4804455 0.1717777 0.8600376 0.6188804 0.1717782 0.7664721 -0.4804419 0.1717769 0.8600397 -0.4804466 0.171778 0.8600369 0.4804456 0.1717779 0.8600375 0.4804489 0.1717775 0.8600357 -0.328187 0.1717771 0.9288627 -0.3281885 0.1717781 0.928862 0.3281885 0.171778 0.928862 0.4804441 0.1717767 0.8600385 -0.3281896 0.1717775 0.9288617 -0.3281877 0.1717774 0.9288624 0.3281881 0.1717778 0.9288623 0.328187 0.1717777 0.9288626 -0.1664869 0.1717779 0.9709658 -0.1664884 0.1717779 0.9709655 0.1664884 0.1717777 0.9709656 0.3281896 0.1717775 0.9288617 -0.1664921 0.1717778 0.9709649 -0.1664882 0.1717775 0.9709657 0.1664895 0.1717776 0.9709654 0.1664864 0.1717776 0.9709659 -0.04180508 0.1722295 0.9841694 -0.04180663 0.1722297 0.9841693 0.04180794 0.1722294 0.9841693 0.1664895 0.1717777 0.9709654 0.0418021 0.1722297 0.9841695 0 2.20557e-4 -1 -0.08480519 -2.20563e-4 -0.9963976 0.08480501 -2.20563e-4 -0.9963976 -0.08480501 -2.20563e-4 -0.9963976 0.08480501 -2.20563e-4 -0.9963976 -0.1690005 2.20559e-4 -0.985616 -0.2519798 -2.20562e-4 -0.9677325 0.1690007 2.20561e-4 -0.985616 0.2519798 -2.2056e-4 -0.9677325 -0.251977 -2.20562e-4 -0.9677332 0.251977 -2.2056e-4 -0.9677332 -0.3331399 2.20568e-4 -0.9428774 -0.4119006 -2.20555e-4 -0.9112288 0.3331395 2.2057e-4 -0.9428776 0.4119011 -2.20559e-4 -0.9112286 -0.4119032 -2.20555e-4 -0.9112277 0.4119024 -2.20559e-4 -0.911228 -0.4876954 2.20566e-4 -0.8730139 -0.559973 -2.2055e-4 -0.8285109 0.4876958 2.20565e-4 -0.8730137 0.5599728 -2.20542e-4 -0.8285109 -0.5599779 -2.20545e-4 -0.8285076 0.5599786 -2.20542e-4 -0.8285071 -0.6282201 2.20559e-4 -0.7780357 -0.6919374 -2.20557e-4 -0.7219575 0.6282192 2.20554e-4 -0.7780364 0.6919372 -2.20571e-4 -0.7219576 -0.6919397 -2.20556e-4 -0.7219553 0.6919385 -2.20571e-4 -0.7219564 -0.7506725 2.20566e-4 -0.6606745 -0.8039957 -2.20552e-4 -0.5946351 0.7506736 2.20566e-4 -0.6606734 0.8039966 -2.20552e-4 -0.5946339 -0.8039978 -2.20544e-4 -0.5946323 0.8039973 -2.20547e-4 -0.5946329 -0.8515287 2.20562e-4 -0.524308 -0.8929261 -2.20575e-4 -0.4502032 0.8515284 2.20562e-4 -0.5243085 0.8929258 -2.20566e-4 -0.450204 -0.8929258 -2.20562e-4 -0.4502038 0.8929255 -2.20556e-4 -0.4502044 -0.927889 2.20561e-4 -0.3728566 -0.9561667 -2.20566e-4 -0.2928232 0.9278888 2.20561e-4 -0.3728569 0.9561669 -2.20566e-4 -0.2928224 -0.9561667 -2.20561e-4 -0.2928232 0.9561669 -2.20557e-4 -0.2928224 -0.9775552 2.20557e-4 -0.2106794 -0.9919004 -2.20566e-4 -0.1270183 0.9775555 2.20557e-4 -0.2106785 0.9919006 -2.20566e-4 -0.1270166 -0.9919005 -2.20562e-4 -0.1270173 0.9919002 -2.20575e-4 -0.12702 -0.999099 2.20566e-4 -0.04244089 -0.999099 -2.20557e-4 0.04244095 0.9990989 2.20571e-4 -0.04244184 0.9990989 -2.20576e-4 0.04244375 -0.999099 -2.20566e-4 0.04244101 0.999099 -2.20567e-4 0.04244011 -0.9919004 2.20576e-4 0.1270179 -0.9775551 -2.20576e-4 0.2106801 0.9919003 2.20557e-4 0.1270183 0.9775555 -2.20557e-4 0.2106784 -0.9775556 -2.20559e-4 0.2106778 0.9775556 -2.20566e-4 0.2106778 -0.9561667 2.20561e-4 0.2928228 -0.9278885 -2.20566e-4 0.3728577 0.956167 2.20571e-4 0.2928221 0.9278879 -2.20576e-4 0.3728594 -0.9278892 -2.20558e-4 0.3728561 0.9278896 -2.20566e-4 0.3728551 -0.8929257 2.20571e-4 0.4502041 -0.8515293 -2.20547e-4 0.5243071 0.8929253 2.20561e-4 0.450205 0.8515288 -2.20556e-4 0.5243077 -0.8515279 -2.20562e-4 0.5243092 0.8515278 -2.20547e-4 0.5243094 -0.8039972 2.20571e-4 0.5946332 -0.7506725 -2.20566e-4 0.6606745 0.8039975 2.20557e-4 0.5946329 0.7506734 -2.20561e-4 0.6606734 -0.7506727 -2.20562e-4 0.6606743 -0.6919394 2.20568e-4 0.7219555 -0.62822 -2.20557e-4 0.7780358 0.691939 2.20576e-4 0.721956 0.6282182 -2.20561e-4 0.7780373 -0.6282188 -2.20556e-4 0.7780367 0.6282187 -2.20556e-4 0.7780369 -0.5599745 2.20557e-4 0.8285098 -0.487697 -2.20556e-4 0.8730131 0.5599752 2.20556e-4 0.8285093 0.4876974 -2.20557e-4 0.8730127 -0.487693 -2.20556e-4 0.8730152 0.4876929 -2.20554e-4 0.8730152 -0.4119018 2.20561e-4 0.9112283 -0.3331404 -2.20556e-4 0.9428773 0.4119018 2.20561e-4 0.9112283 0.3331396 -2.2056e-4 0.9428775 -0.3331395 -2.20556e-4 0.9428776 0.3331395 -2.20559e-4 0.9428776 -0.2519796 2.20566e-4 0.9677326 -0.1689983 -2.20571e-4 0.9856163 0.2519796 2.20563e-4 0.9677326 0.1689983 -2.20572e-4 0.9856163 -0.1690027 -2.20571e-4 0.9856156 0.169003 -2.20572e-4 0.9856156 -0.08480513 2.20567e-4 0.9963975 -0.04243898 0 0.9990991 0.04243892 0 0.9990991 0.08480507 2.20568e-4 0.9963976 0 0.845153 -0.5345244 0 0.8451772 -0.5344863 -0.09032982 0.8451694 -0.5268105 0.09032982 0.8451629 -0.526821 0.09032875 0.8451579 -0.5268292 -0.09033179 0.8451794 -0.5267941 -0.1780648 0.8451808 -0.5039469 0.1780631 0.845173 -0.5039608 0.178063 0.8451769 -0.5039538 -0.1780588 0.8451561 -0.5039904 -0.2606693 0.8451609 -0.466642 0.2606737 0.8451755 -0.466613 0.2606736 0.8451743 -0.4666153 -0.2606813 0.8452007 -0.4665632 -0.3357871 0.8451819 -0.4158303 0.3357867 0.8451822 -0.4158297 0.335783 0.8451731 -0.4158512 -0.3357848 0.8451772 -0.4158414 -0.4012313 0.8451674 -0.353137 0.4012373 0.845178 -0.3531047 0.4012317 0.845171 -0.3531276 -0.4012328 0.8451702 -0.3531282 -0.4551457 0.8451803 -0.2802016 0.4551449 0.8451808 -0.2802011 0.4551327 0.8451544 -0.2803006 -0.455138 0.8451665 -0.2802554 -0.4959586 0.8451773 -0.19925 0.4959524 0.8451682 -0.1993036 0.4959526 0.8451679 -0.1993049 -0.4959479 0.8451597 -0.1993514 -0.5225027 0.8451735 -0.1125735 0.522503 0.8451734 -0.1125736 0.5224981 0.8451668 -0.1126442 -0.522504 0.8451759 -0.1125487 -0.5340157 0.8451704 -0.0226792 0.5340148 0.8451693 -0.02274 0.5340164 0.845171 -0.02264505 -0.5340163 0.8451709 -0.02264505 -0.5301687 0.8451701 0.0678882 0.5301675 0.8451697 0.06790208 0.5301699 0.8451734 0.06783866 -0.5301699 0.8451732 0.06783866 -0.5110684 0.845171 0.1565094 0.5110671 0.8451684 0.1565277 0.5110708 0.8451743 0.1564838 -0.5110712 0.8451741 0.1564839 -0.4772659 0.8451685 0.2406399 0.4772702 0.8451761 0.2406045 0.4772614 0.8451613 0.2406741 -0.4772614 0.8451613 0.2406741 -0.4297323 0.8451656 0.3178451 0.4297294 0.8451608 0.3178617 0.4297374 0.8451769 0.317808 -0.429734 0.8451704 0.3178297 -0.3698394 0.8451699 0.3858843 0.3698447 0.8451821 0.3858525 0.3698325 0.8451538 0.3859262 -0.3698416 0.8451731 0.3858751 -0.299304 0.8451668 0.4428433 0.2992995 0.8451524 0.4428737 0.2993053 0.8451699 0.4428367 -0.2993051 0.8451672 0.4428418 -0.2201607 0.8451724 0.4870451 0.2201651 0.845188 0.487016 0.2201578 0.8451646 0.4870601 -0.2201609 0.8451745 0.4870412 -0.1346808 0.8451645 0.5172602 0.13468 0.8451563 0.5172739 0.134685 0.8451888 0.5172194 -0.1346806 0.8451572 0.5172722 -0.04532867 0.8451792 0.5325576 0.04532855 0.8451816 0.5325537 0.04532772 0.8451625 0.5325841 -0.04532742 0.8451595 0.532589 0 0.9199317 -0.3920788 0 0.9199079 -0.3921346 -0.0662679 0.9199314 -0.3864389 0.06626808 0.91994 -0.3864182 0.06626713 0.919911 -0.3864876 -0.06626558 0.9198985 -0.3865175 -0.1306287 0.919928 -0.3696873 0.1306272 0.9199197 -0.3697082 0.1306275 0.9199176 -0.3697136 -0.1306247 0.9199028 -0.3697515 -0.1912328 0.9199293 -0.342287 0.1912309 0.9199216 -0.3423085 0.1912297 0.919914 -0.3423293 -0.1912294 0.919914 -0.3423298 -0.2463274 0.9199035 -0.3051239 0.2463328 0.9199238 -0.3050583 0.2463326 0.9199213 -0.3050656 -0.2463294 0.9199116 -0.3050975 -0.2943436 0.9199104 -0.2590883 0.2943452 0.9199163 -0.2590656 0.2943412 0.9199012 -0.2591236 -0.2943464 0.9199182 -0.2590572 -0.3338925 0.9199162 -0.2055968 0.3338946 0.9199206 -0.2055737 0.3338953 0.9199243 -0.2055563 -0.3338906 0.9199108 -0.2056243 -0.3638349 0.9199185 -0.1461983 0.3638374 0.9199252 -0.1461509 0.3638337 0.9199147 -0.1462259 -0.3638334 0.9199149 -0.1462258 -0.383307 0.9199126 -0.08268386 0.3833112 0.9199228 -0.08255165 0.3833062 0.919911 -0.08270454 -0.3833109 0.9199219 -0.0825634 -0.3917569 0.9199181 -0.01665306 0.391757 0.9199184 -0.01663488 0.3917568 0.9199185 -0.01662629 -0.3917568 0.9199187 -0.01662629 -0.3889331 0.9199157 0.0498622 0.3889342 0.9199178 0.04981392 0.3889358 0.9199213 0.04973697 -0.3889356 0.9199214 0.04973697 -0.3749224 0.9199172 0.1148284 0.374923 0.9199185 0.1148165 0.3749229 0.919918 0.114821 -0.3749225 0.9199182 0.1148208 -0.3501267 0.9199227 0.1765039 0.3501241 0.9199146 0.176551 0.3501276 0.9199239 0.176496 -0.3501276 0.9199239 0.176496 -0.3152568 0.9199224 0.2331441 0.3152548 0.9199173 0.2331668 0.3152533 0.9199113 0.2331924 -0.315254 0.9199109 0.2331929 -0.2713194 0.9199267 0.2830563 0.2713192 0.9199267 0.2830561 0.2713173 0.9199215 0.2830749 -0.2713117 0.9199032 0.28314 -0.2195782 0.9199433 0.3247918 0.2195749 0.9199289 0.324835 0.219573 0.9199227 0.3248541 -0.2195678 0.9199016 0.324917 -0.1615119 0.9199303 0.3572706 0.1615121 0.9199301 0.357271 0.1615093 0.9199115 0.3573202 -0.1615093 0.9199107 0.3573222 -0.09880447 0.9199253 0.3794406 0.09880268 0.9199084 0.3794822 0.09880125 0.9199064 0.3794872 -0.09880197 0.9199126 0.3794721 -0.03325349 0.9199286 0.3906734 0.03325337 0.9199111 0.3907145 0.03325349 0.9199286 0.3906733 -0.03325343 0.919911 0.3907148 0 0.9708983 -0.2394922 0 0.9709057 -0.2394624 -0.04047113 0.9709051 -0.2360202 0.04047071 0.9708991 -0.2360453 0.04047209 0.9709122 -0.2359908 -0.04047149 0.9709042 -0.2360238 -0.0797767 0.9708993 -0.2258104 0.07977682 0.9708992 -0.2258108 0.07977682 0.97091 -0.2257643 -0.07977652 0.9709061 -0.225781 -0.1167879 0.970894 -0.2091064 0.1167886 0.9709013 -0.2090721 0.1167903 0.9709136 -0.2090139 -0.1167886 0.9708995 -0.2090809 -0.1504388 0.9708952 -0.1863619 0.1504401 0.9709015 -0.1863279 0.1504437 0.9709231 -0.186213 -0.1504394 0.9708979 -0.1863479 -0.1797664 0.9709137 -0.1581477 0.1797642 0.9709028 -0.1582169 0.1797659 0.9709141 -0.158146 -0.1797623 0.9708924 -0.1582832 -0.2039173 0.9709078 -0.1255223 0.2039169 0.9709056 -0.1255398 0.203916 0.9708994 -0.1255888 -0.2039193 0.9709166 -0.1254506 -0.222203 0.970905 -0.08927285 0.2222019 0.9709003 -0.08932572 0.2221977 0.970883 -0.0895245 -0.2222036 0.9709072 -0.08924621 -0.2340959 0.9709029 -0.05046457 0.234096 0.9709029 -0.05046457 0.2340954 0.9709004 -0.05051606 -0.2340954 0.9709004 -0.05051606 -0.2392551 0.9709028 -0.01023507 0.2392551 0.9709033 -0.0101884 0.2392554 0.9709042 -0.01010328 -0.2392555 0.9709041 -0.01010328 -0.2375305 0.9708992 0.03056293 0.2375307 0.9709007 0.03051412 0.2375321 0.9709067 0.03030991 -0.2375321 0.9709067 0.03030991 -0.228975 0.9709063 0.07008206 0.2289745 0.9709045 0.07010859 0.2289782 0.9709199 0.06988221 -0.2289735 0.970901 0.0701614 -0.2138279 0.9708948 0.1078939 0.2138288 0.9708985 0.1078588 0.2138308 0.970908 0.1077687 -0.2138308 0.970908 0.1077687 -0.192533 0.970898 0.1424372 0.1925339 0.9709029 0.1424022 0.1925293 0.9708799 0.1425651 -0.1925331 0.9708993 0.1424275 -0.1657 0.9709084 0.1728599 0.1657 0.9709084 0.17286 0.1656997 0.9709051 0.1728786 -0.1656954 0.9708815 0.1730148 -0.1340984 0.9709091 0.1983766 0.1340967 0.9708953 0.1984452 0.1340979 0.970901 0.1984165 -0.134096 0.9708875 0.1984838 -0.09864014 0.97092 0.2181387 0.09863781 0.9708974 0.2182402 0.09864157 0.9709354 0.2180698 -0.09863781 0.9708982 0.2182368 -0.06034106 0.9709029 0.2317467 0.06034046 0.9708951 0.2317799 0.06034189 0.9709194 0.2316774 -0.06034135 0.9709085 0.2317237 -0.02030891 0.9709001 0.2386221 0.02030932 0.9709172 0.238553 0.02030879 0.970896 0.2386388 -0.02030915 0.970909 0.2385861 -0.01361113 0.9967539 -0.07934999 0 0.9967526 -0.08052539 0.01361113 0.9967553 -0.07933259 -0.02682965 0.9967469 -0.07599872 0.02682983 0.9967522 -0.07592892 -0.03927809 0.9967612 -0.07017523 0.03927749 0.9967464 -0.07038468 -0.05059522 0.9967557 -0.06259578 0.05059558 0.9967601 -0.06252604 -0.06045663 0.9967451 -0.05333232 0.06045675 0.9967469 -0.05329734 -0.06857937 0.9967449 -0.04238504 0.06857955 0.9967479 -0.042315 -0.07472968 0.9967514 -0.03003478 0.07472997 0.9967567 -0.02985942 -0.07872974 0.9967537 -0.01684182 0.07872956 0.9967517 -0.01696461 -0.08046466 0.9967519 -0.003368377 0.08046466 0.9967519 -0.003344237 -0.079885 0.9967529 0.01010513 0.07988506 0.9967535 0.0100525 -0.07700699 0.9967518 0.02357858 0.07700675 0.9967476 0.02375394 -0.07191389 0.9967533 0.03621006 0.07191383 0.9967533 0.03621006 -0.06475222 0.9967598 0.04771906 0.06475204 0.9967564 0.04778909 -0.05572646 0.9967458 0.05824452 0.05572688 0.9967539 0.05810457 -0.04509907 0.9967556 0.06666594 0.04509896 0.9967533 0.06670081 -0.03317362 0.9967609 0.07326287 0.03317338 0.9967531 0.07336753 -0.02029341 0.9967496 0.07796382 0.02029329 0.9967498 0.07796359 -0.006830155 0.9967547 0.08020967 0.006830155 0.9967547 0.08020967</float_array>
          <technique_common>
            <accessor source="#Antenna-mesh-normals-array" count="639" stride="3">
              <param name="X" type="float"/>
              <param name="Y" type="float"/>
              <param name="Z" type="float"/>
            </accessor>
          </technique_common>
        </source>
        <vertices id="Antenna-mesh-vertices">
          <input semantic="POSITION" source="#Antenna-mesh-positions"/>
        </vertices>
        <triangles count="666">
          <input semantic="VERTEX" source="#Antenna-mesh-vertices" offset="0"/>
          <input semantic="NORMAL" source="#Antenna-mesh-normals" offset="1"/>
          <p>0 0 1 0 2 0 3 1 0 1 2 1 4 2 0 2 3 2 0 1 5 1 1 1 6 1 0 1 4 1 0 0 7 0 5 0 8 1 0 1 6 1 0 3 9 3 7 3 10 4 0 4 8 4 0 5 11 5 9 5 12 1 0 1 10 1 0 6 13 6 11 6 14 1 0 1 12 1 1 7 15 7 2 7 15 8 16 8 2 8 16 9 3 9 2 9 16 10 17 10 3 10 17 11 18 11 3 11 18 12 4 12 3 12 5 13 19 13 1 13 19 14 20 14 1 14 20 15 15 15 1 15 18 16 21 16 4 16 21 17 22 17 4 17 22 18 6 18 4 18 0 19 23 19 13 19 24 20 0 20 14 20 7 21 25 21 5 21 25 22 26 22 5 22 26 23 19 23 5 23 22 24 27 24 6 24 27 25 28 25 6 25 28 26 8 26 6 26 9 27 29 27 7 27 29 28 30 28 7 28 30 29 25 29 7 29 28 30 31 30 8 30 31 31 32 31 8 31 32 32 10 32 8 32 0 33 33 33 23 33 34 1 0 1 24 1 11 34 35 34 9 34 35 35 36 35 9 35 36 36 29 36 9 36 32 37 37 37 10 37 37 38 38 38 10 38 38 39 12 39 10 39 0 40 39 40 33 40 40 1 0 1 34 1 13 41 41 41 11 41 41 42 42 42 11 42 42 43 35 43 11 43 38 44 43 44 12 44 43 45 44 45 12 45 44 46 14 46 12 46 45 1 46 1 0 1 47 1 48 1 0 1 48 1 49 1 0 1 49 1 45 1 0 1 50 1 51 1 0 1 51 47 52 47 0 47 52 1 47 1 0 1 40 1 53 1 0 1 53 1 54 1 0 1 54 1 50 1 0 1 55 1 56 1 0 1 56 1 39 1 0 1 57 1 58 1 0 1 58 1 59 1 0 1 59 1 55 1 0 1 46 1 60 1 0 1 60 1 61 1 0 1 61 1 57 1 0 1 23 48 62 48 13 48 62 49 63 49 13 49 63 50 41 50 13 50 44 51 64 51 14 51 64 52 65 52 14 52 65 53 24 53 14 53 33 54 66 54 23 54 66 55 67 55 23 55 67 56 62 56 23 56 65 57 68 57 24 57 68 58 69 58 24 58 69 59 34 59 24 59 39 60 70 60 33 60 70 61 71 61 33 61 71 62 66 62 33 62 69 63 72 63 34 63 72 64 73 64 34 64 73 65 40 65 34 65 56 66 74 66 39 66 74 67 75 67 39 67 75 68 70 68 39 68 73 69 76 69 40 69 76 70 77 70 40 70 77 71 53 71 40 71 55 72 78 72 56 72 78 73 79 73 56 73 79 74 74 74 56 74 77 75 80 75 53 75 80 76 81 76 53 76 81 77 54 77 53 77 59 78 82 78 55 78 82 79 83 79 55 79 83 80 78 80 55 80 81 81 84 81 54 81 84 82 85 82 54 82 85 83 50 83 54 83 58 84 86 84 59 84 86 85 87 85 59 85 87 86 88 86 59 86 88 87 82 87 59 87 85 88 89 88 50 88 89 89 90 89 50 89 90 90 51 90 50 90 57 91 91 91 58 91 91 92 92 92 58 92 92 93 86 93 58 93 90 94 93 94 51 94 93 95 94 95 51 95 94 96 52 96 51 96 61 97 95 97 57 97 95 98 96 98 57 98 96 99 91 99 57 99 94 100 97 100 52 100 97 101 98 101 52 101 98 102 47 102 52 102 60 103 99 103 61 103 99 104 100 104 61 104 100 105 95 105 61 105 98 106 101 106 47 106 101 107 102 107 47 107 102 108 48 108 47 108 46 109 103 109 60 109 103 110 104 110 60 110 104 111 99 111 60 111 102 112 105 112 48 112 105 113 106 113 48 113 106 114 49 114 48 114 45 115 107 115 46 115 107 116 108 116 46 116 108 117 103 117 46 117 106 118 109 118 49 118 109 119 110 119 49 119 110 120 45 120 49 120 110 121 111 121 45 121 111 122 107 122 45 122 112 123 18 123 17 123 113 124 112 124 17 124 16 125 113 125 17 125 114 126 113 126 16 126 15 127 114 127 16 127 112 128 115 128 18 128 115 129 21 129 18 129 116 130 114 130 15 130 20 131 116 131 15 131 117 132 22 132 21 132 115 133 117 133 21 133 118 134 116 134 20 134 19 135 118 135 20 135 119 136 27 136 22 136 117 137 119 137 22 137 120 138 118 138 19 138 26 139 120 139 19 139 121 140 28 140 27 140 119 141 121 141 27 141 122 142 120 142 26 142 25 143 122 143 26 143 123 144 31 144 28 144 121 145 123 145 28 145 124 146 122 146 25 146 30 147 124 147 25 147 125 148 32 148 31 148 123 149 125 149 31 149 126 150 124 150 30 150 29 151 126 151 30 151 127 152 37 152 32 152 125 153 127 153 32 153 128 154 126 154 29 154 36 155 128 155 29 155 129 156 38 156 37 156 127 157 129 157 37 157 130 158 128 158 36 158 35 159 130 159 36 159 131 160 43 160 38 160 129 161 131 161 38 161 132 162 130 162 35 162 42 163 132 163 35 163 133 164 44 164 43 164 131 165 133 165 43 165 134 166 132 166 42 166 41 167 134 167 42 167 135 168 64 168 44 168 133 169 135 169 44 169 136 170 134 170 41 170 63 171 136 171 41 171 137 172 65 172 64 172 135 173 137 173 64 173 138 174 136 174 63 174 62 175 138 175 63 175 139 176 68 176 65 176 137 177 139 177 65 177 140 178 138 178 62 178 67 179 140 179 62 179 141 180 69 180 68 180 139 181 141 181 68 181 142 182 140 182 67 182 66 183 142 183 67 183 143 184 72 184 69 184 141 185 143 185 69 185 144 186 142 186 66 186 71 187 144 187 66 187 145 188 73 188 72 188 143 189 145 189 72 189 146 190 144 190 71 190 70 191 146 191 71 191 147 192 76 192 73 192 145 193 147 193 73 193 148 194 146 194 70 194 75 195 148 195 70 195 149 196 77 196 76 196 147 197 149 197 76 197 150 198 148 198 75 198 74 199 150 199 75 199 151 200 80 200 77 200 149 201 151 201 77 201 152 202 150 202 74 202 79 203 152 203 74 203 153 204 81 204 80 204 151 205 153 205 80 205 154 206 152 206 79 206 78 207 154 207 79 207 155 208 84 208 81 208 153 209 155 209 81 209 156 210 154 210 78 210 83 211 156 211 78 211 157 212 85 212 84 212 155 213 157 213 84 213 158 214 156 214 83 214 82 215 158 215 83 215 159 216 89 216 85 216 157 217 159 217 85 217 160 218 158 218 82 218 88 219 160 219 82 219 161 220 90 220 89 220 159 221 161 221 89 221 162 222 160 222 88 222 87 223 162 223 88 223 163 224 93 224 90 224 161 225 163 225 90 225 164 226 162 226 87 226 86 227 164 227 87 227 165 228 94 228 93 228 163 229 165 229 93 229 166 226 164 226 86 226 92 230 166 230 86 230 167 231 97 231 94 231 165 232 167 232 94 232 168 233 166 233 92 233 91 234 168 234 92 234 169 235 98 235 97 235 167 236 169 236 97 236 170 237 168 237 91 237 96 238 170 238 91 238 171 239 101 239 98 239 169 240 171 240 98 240 172 241 170 241 96 241 95 242 172 242 96 242 173 243 102 243 101 243 171 244 173 244 101 244 174 245 172 245 95 245 100 246 174 246 95 246 175 247 105 247 102 247 173 248 175 248 102 248 176 249 174 249 100 249 99 250 176 250 100 250 177 251 106 251 105 251 175 252 177 252 105 252 178 253 176 253 99 253 104 254 178 254 99 254 179 255 109 255 106 255 177 256 179 256 106 256 180 257 178 257 104 257 103 258 180 258 104 258 181 259 110 259 109 259 179 260 181 260 109 260 182 261 180 261 103 261 108 262 182 262 103 262 183 263 111 263 110 263 181 264 183 264 110 264 184 265 182 265 108 265 107 266 184 266 108 266 185 267 107 267 111 267 183 268 185 268 111 268 185 269 184 269 107 269 186 270 187 270 112 270 113 271 186 271 112 271 187 272 115 272 112 272 114 273 186 273 113 273 187 274 117 274 115 274 188 275 186 275 114 275 116 276 188 276 114 276 187 277 189 277 117 277 189 278 119 278 117 278 118 279 188 279 116 279 189 280 121 280 119 280 190 281 188 281 118 281 120 282 190 282 118 282 189 283 191 283 121 283 191 284 123 284 121 284 122 285 190 285 120 285 191 286 125 286 123 286 192 287 190 287 122 287 124 288 192 288 122 288 191 289 193 289 125 289 193 290 127 290 125 290 126 291 192 291 124 291 193 292 129 292 127 292 194 293 192 293 126 293 128 294 194 294 126 294 193 295 195 295 129 295 195 296 131 296 129 296 130 297 194 297 128 297 195 298 133 298 131 298 196 299 194 299 130 299 132 300 196 300 130 300 195 301 197 301 133 301 197 302 135 302 133 302 134 303 196 303 132 303 197 304 137 304 135 304 198 305 196 305 134 305 136 306 198 306 134 306 197 307 199 307 137 307 199 308 139 308 137 308 138 309 198 309 136 309 199 310 141 310 139 310 200 311 198 311 138 311 140 312 200 312 138 312 199 313 201 313 141 313 201 314 143 314 141 314 142 315 200 315 140 315 201 316 145 316 143 316 202 317 200 317 142 317 144 318 202 318 142 318 201 319 203 319 145 319 203 320 147 320 145 320 146 321 202 321 144 321 203 322 149 322 147 322 204 323 202 323 146 323 148 324 204 324 146 324 203 325 205 325 149 325 205 326 151 326 149 326 150 327 204 327 148 327 205 328 153 328 151 328 206 329 204 329 150 329 152 330 206 330 150 330 205 331 207 331 153 331 207 332 155 332 153 332 154 333 206 333 152 333 207 334 157 334 155 334 208 335 206 335 154 335 156 336 208 336 154 336 207 337 209 337 157 337 209 338 159 338 157 338 158 339 208 339 156 339 209 340 161 340 159 340 210 341 208 341 158 341 160 342 210 342 158 342 209 343 211 343 161 343 211 344 163 344 161 344 162 345 210 345 160 345 211 346 165 346 163 346 212 347 210 347 162 347 164 348 212 348 162 348 211 349 213 349 165 349 213 350 167 350 165 350 166 351 212 351 164 351 213 350 169 350 167 350 214 352 212 352 166 352 168 353 214 353 166 353 213 354 215 354 169 354 215 355 171 355 169 355 170 356 214 356 168 356 215 357 173 357 171 357 216 358 214 358 170 358 172 359 216 359 170 359 215 360 217 360 173 360 217 361 175 361 173 361 174 362 216 362 172 362 217 363 177 363 175 363 218 364 216 364 174 364 176 365 218 365 174 365 217 366 219 366 177 366 219 367 179 367 177 367 178 368 218 368 176 368 219 369 181 369 179 369 220 370 218 370 178 370 180 371 220 371 178 371 219 372 221 372 181 372 221 373 183 373 181 373 182 374 220 374 180 374 221 375 185 375 183 375 222 376 220 376 182 376 184 377 222 377 182 377 222 378 184 378 185 378 221 379 222 379 185 379 223 380 187 380 186 380 224 381 223 381 186 381 188 382 224 382 186 382 225 383 189 383 187 383 223 384 225 384 187 384 226 385 224 385 188 385 190 386 226 386 188 386 227 387 191 387 189 387 225 388 227 388 189 388 228 389 226 389 190 389 192 390 228 390 190 390 229 391 193 391 191 391 227 392 229 392 191 392 230 393 228 393 192 393 194 394 230 394 192 394 231 395 195 395 193 395 229 396 231 396 193 396 232 397 230 397 194 397 196 398 232 398 194 398 233 399 197 399 195 399 231 400 233 400 195 400 234 401 232 401 196 401 198 402 234 402 196 402 235 403 199 403 197 403 233 404 235 404 197 404 236 405 234 405 198 405 200 406 236 406 198 406 237 407 201 407 199 407 235 408 237 408 199 408 238 409 236 409 200 409 202 410 238 410 200 410 239 411 203 411 201 411 237 412 239 412 201 412 240 413 238 413 202 413 204 414 240 414 202 414 241 415 205 415 203 415 239 416 241 416 203 416 242 417 240 417 204 417 206 418 242 418 204 418 243 419 207 419 205 419 241 420 243 420 205 420 244 421 242 421 206 421 208 422 244 422 206 422 245 423 209 423 207 423 243 424 245 424 207 424 246 425 244 425 208 425 210 426 246 426 208 426 247 427 211 427 209 427 245 428 247 428 209 428 248 429 246 429 210 429 212 430 248 430 210 430 249 431 213 431 211 431 247 432 249 432 211 432 250 433 248 433 212 433 214 434 250 434 212 434 251 435 215 435 213 435 249 436 251 436 213 436 252 437 250 437 214 437 216 438 252 438 214 438 253 439 217 439 215 439 251 440 253 440 215 440 254 441 252 441 216 441 218 442 254 442 216 442 255 443 219 443 217 443 253 444 255 444 217 444 256 445 254 445 218 445 220 446 256 446 218 446 257 447 221 447 219 447 255 448 257 448 219 448 258 449 256 449 220 449 222 450 258 450 220 450 257 451 259 451 221 451 259 452 222 452 221 452 259 453 258 453 222 453 260 454 223 454 224 454 261 455 260 455 224 455 226 456 261 456 224 456 262 457 225 457 223 457 260 458 262 458 223 458 263 459 261 459 226 459 228 460 263 460 226 460 264 461 227 461 225 461 262 462 264 462 225 462 265 463 263 463 228 463 230 464 265 464 228 464 266 465 229 465 227 465 264 466 266 466 227 466 267 467 265 467 230 467 232 468 267 468 230 468 268 469 231 469 229 469 266 470 268 470 229 470 269 471 267 471 232 471 234 472 269 472 232 472 270 473 233 473 231 473 268 474 270 474 231 474 271 475 269 475 234 475 236 476 271 476 234 476 272 477 235 477 233 477 270 478 272 478 233 478 273 479 271 479 236 479 238 480 273 480 236 480 274 481 237 481 235 481 272 482 274 482 235 482 275 483 273 483 238 483 240 484 275 484 238 484 276 485 239 485 237 485 274 486 276 486 237 486 277 487 275 487 240 487 242 488 277 488 240 488 278 489 241 489 239 489 276 490 278 490 239 490 279 491 277 491 242 491 244 492 279 492 242 492 280 493 243 493 241 493 278 494 280 494 241 494 281 495 279 495 244 495 246 496 281 496 244 496 282 497 245 497 243 497 280 498 282 498 243 498 283 499 281 499 246 499 248 500 283 500 246 500 284 501 247 501 245 501 282 502 284 502 245 502 285 503 283 503 248 503 250 504 285 504 248 504 286 505 249 505 247 505 284 506 286 506 247 506 287 507 285 507 250 507 252 508 287 508 250 508 288 509 251 509 249 509 286 510 288 510 249 510 289 511 287 511 252 511 254 512 289 512 252 512 290 513 253 513 251 513 288 514 290 514 251 514 291 515 289 515 254 515 256 516 291 516 254 516 292 517 255 517 253 517 290 518 292 518 253 518 293 519 291 519 256 519 258 520 293 520 256 520 294 521 257 521 255 521 292 522 294 522 255 522 295 523 293 523 258 523 259 524 295 524 258 524 294 525 296 525 257 525 296 526 259 526 257 526 296 527 295 527 259 527 297 528 260 528 261 528 298 529 297 529 261 529 263 530 298 530 261 530 299 531 262 531 260 531 297 532 299 532 260 532 300 533 298 533 263 533 265 534 300 534 263 534 301 535 264 535 262 535 299 536 301 536 262 536 302 537 300 537 265 537 267 538 302 538 265 538 303 539 266 539 264 539 301 540 303 540 264 540 304 541 302 541 267 541 269 542 304 542 267 542 305 543 268 543 266 543 303 544 305 544 266 544 306 545 304 545 269 545 271 546 306 546 269 546 307 547 270 547 268 547 305 548 307 548 268 548 308 549 306 549 271 549 273 550 308 550 271 550 309 551 272 551 270 551 307 552 309 552 270 552 310 553 308 553 273 553 275 554 310 554 273 554 311 555 274 555 272 555 309 556 311 556 272 556 312 557 310 557 275 557 277 558 312 558 275 558 313 559 276 559 274 559 311 560 313 560 274 560 314 561 312 561 277 561 279 562 314 562 277 562 315 563 278 563 276 563 313 564 315 564 276 564 316 565 314 565 279 565 281 566 316 566 279 566 317 567 280 567 278 567 315 568 317 568 278 568 318 569 316 569 281 569 283 570 318 570 281 570 319 571 282 571 280 571 317 572 319 572 280 572 320 573 318 573 283 573 285 574 320 574 283 574 321 575 284 575 282 575 319 576 321 576 282 576 322 577 320 577 285 577 287 578 322 578 285 578 323 579 286 579 284 579 321 580 323 580 284 580 324 581 322 581 287 581 289 582 324 582 287 582 325 583 288 583 286 583 323 584 325 584 286 584 326 585 324 585 289 585 291 586 326 586 289 586 327 587 290 587 288 587 325 588 327 588 288 588 328 589 326 589 291 589 293 590 328 590 291 590 329 591 292 591 290 591 327 592 329 592 290 592 330 593 328 593 293 593 295 594 330 594 293 594 331 595 294 595 292 595 329 596 331 596 292 596 332 597 330 597 295 597 296 598 332 598 295 598 331 599 333 599 294 599 333 600 296 600 294 600 333 601 332 601 296 601 300 602 334 602 298 602 334 603 297 603 298 603 334 604 299 604 297 604 302 605 334 605 300 605 334 606 301 606 299 606 304 607 334 607 302 607 334 608 303 608 301 608 306 609 334 609 304 609 334 610 305 610 303 610 308 611 334 611 306 611 334 612 307 612 305 612 310 613 334 613 308 613 334 614 309 614 307 614 312 615 334 615 310 615 334 616 311 616 309 616 314 617 334 617 312 617 334 618 313 618 311 618 316 619 334 619 314 619 334 620 315 620 313 620 318 621 334 621 316 621 334 622 317 622 315 622 320 623 334 623 318 623 334 624 319 624 317 624 322 625 334 625 320 625 334 626 321 626 319 626 324 627 334 627 322 627 334 628 323 628 321 628 326 629 334 629 324 629 334 630 325 630 323 630 328 631 334 631 326 631 334 632 327 632 325 632 330 633 334 633 328 633 334 634 329 634 327 634 332 635 334 635 330 635 334 636 331 636 329 636 333 637 334 637 332 637 334 638 333 638 331 638</p>
        </triangles>
      </mesh>
    </geometry>
  </library_geometries>
  <library_controllers/>
  <library_visual_scenes>
    <visual_scene id="Scene" name="Scene">
      <node id="Camera" name="Camera" type="NODE">
        <matrix sid="transform">0.6859207 -0.3240135 0.6515582 7.481132 0.7276763 0.3054208 -0.6141704 -6.50764 0 0.8953956 0.4452714 5.343665 0 0 0 1</matrix>
        <instance_camera url="#Camera-camera"/>
      </node>
      <node id="Lamp" name="Lamp" type="NODE">
        <matrix sid="transform">-0.2908646 -0.7711008 0.5663932 4.076245 0.9551712 -0.1998834 0.2183912 1.005454 -0.05518906 0.6045247 0.7946723 5.903862 0 0 0 1</matrix>
        <instance_light url="#Lamp-light"/>
      </node>
      <node id="Antenna" name="Antenna" type="NODE">
        <matrix sid="transform">0.00999999 0 0 -3.11561e-4 0 -4.37113e-10 -0.00999999 -4.08866e-4 0 0.00999999 -4.37113e-10 -8.46172e-10 0 0 0 1</matrix>
        <instance_geometry url="#Antenna-mesh" name="Antenna"/>
      </node>
    </visual_scene>
  </library_visual_scenes>
  <scene>
    <instance_visual_scene url="#Scene"/>
  </scene>
</COLLADA>