<?xml version="1.0" encoding="utf-8"?>
<COLLADA xmlns="http://www.collada.org/2005/11/COLLADASchema" version="1.4.1">
  <asset>
    <contributor>
      <author>Blender User</author>
      <authoring_tool>Blender 2.79.0</authoring_tool>
    </contributor>
    <created>2021-01-16T22:44:38</created>
    <modified>2021-01-16T22:44:38</modified>
    <unit name="meter" meter="1"/>
    <up_axis>Z_UP</up_axis>
  </asset>
  <library_cameras>
    <camera id="Camera-camera" name="Camera">
      <optics>
        <technique_common>
          <perspective>
            <xfov sid="xfov">49.13434</xfov>
            <aspect_ratio>1.777778</aspect_ratio>
            <znear sid="znear">0.1</znear>
            <zfar sid="zfar">100</zfar>
          </perspective>
        </technique_common>
      </optics>
      <extra>
        <technique profile="blender">
          <shiftx sid="shiftx" type="float">0</shiftx>
          <shifty sid="shifty" type="float">0</shifty>
          <YF_dofdist sid="YF_dofdist" type="float">0</YF_dofdist>
        </technique>
      </extra>
    </camera>
  </library_cameras>
  <library_lights>
    <light id="Lamp-light" name="Lamp">
      <technique_common>
        <point>
          <color sid="color">1 1 1</color>
          <constant_attenuation>1</constant_attenuation>
          <linear_attenuation>0</linear_attenuation>
          <quadratic_attenuation>0.00111109</quadratic_attenuation>
        </point>
      </technique_common>
      <extra>
        <technique profile="blender">
          <type sid="type" type="int">0</type>
          <flag sid="flag" type="int">0</flag>
          <mode sid="mode" type="int">8192</mode>
          <gamma sid="blender_gamma" type="float">1</gamma>
          <red sid="red" type="float">1</red>
          <green sid="green" type="float">1</green>
          <blue sid="blue" type="float">1</blue>
          <shadow_r sid="blender_shadow_r" type="float">0</shadow_r>
          <shadow_g sid="blender_shadow_g" type="float">0</shadow_g>
          <shadow_b sid="blender_shadow_b" type="float">0</shadow_b>
          <energy sid="blender_energy" type="float">1</energy>
          <dist sid="blender_dist" type="float">29.99998</dist>
          <spotsize sid="spotsize" type="float">75</spotsize>
          <spotblend sid="spotblend" type="float">0.15</spotblend>
          <halo_intensity sid="blnder_halo_intensity" type="float">1</halo_intensity>
          <att1 sid="att1" type="float">0</att1>
          <att2 sid="att2" type="float">1</att2>
          <falloff_type sid="falloff_type" type="int">2</falloff_type>
          <clipsta sid="clipsta" type="float">1.000799</clipsta>
          <clipend sid="clipend" type="float">30.002</clipend>
          <bias sid="bias" type="float">1</bias>
          <soft sid="soft" type="float">3</soft>
          <compressthresh sid="compressthresh" type="float">0.04999995</compressthresh>
          <bufsize sid="bufsize" type="int">2880</bufsize>
          <samp sid="samp" type="int">3</samp>
          <buffers sid="buffers" type="int">1</buffers>
          <filtertype sid="filtertype" type="int">0</filtertype>
          <bufflag sid="bufflag" type="int">0</bufflag>
          <buftype sid="buftype" type="int">2</buftype>
          <ray_samp sid="ray_samp" type="int">1</ray_samp>
          <ray_sampy sid="ray_sampy" type="int">1</ray_sampy>
          <ray_sampz sid="ray_sampz" type="int">1</ray_sampz>
          <ray_samp_type sid="ray_samp_type" type="int">0</ray_samp_type>
          <area_shape sid="area_shape" type="int">1</area_shape>
          <area_size sid="area_size" type="float">0.1</area_size>
          <area_sizey sid="area_sizey" type="float">0.1</area_sizey>
          <area_sizez sid="area_sizez" type="float">1</area_sizez>
          <adapt_thresh sid="adapt_thresh" type="float">0.000999987</adapt_thresh>
          <ray_samp_method sid="ray_samp_method" type="int">1</ray_samp_method>
          <shadhalostep sid="shadhalostep" type="int">0</shadhalostep>
          <sun_effect_type sid="sun_effect_type" type="int">0</sun_effect_type>
          <skyblendtype sid="skyblendtype" type="int">1</skyblendtype>
          <horizon_brightness sid="horizon_brightness" type="float">1</horizon_brightness>
          <spread sid="spread" type="float">1</spread>
          <sun_brightness sid="sun_brightness" type="float">1</sun_brightness>
          <sun_size sid="sun_size" type="float">1</sun_size>
          <backscattered_light sid="backscattered_light" type="float">1</backscattered_light>
          <sun_intensity sid="sun_intensity" type="float">1</sun_intensity>
          <atm_turbidity sid="atm_turbidity" type="float">2</atm_turbidity>
          <atm_extinction_factor sid="atm_extinction_factor" type="float">1</atm_extinction_factor>
          <atm_distance_factor sid="atm_distance_factor" type="float">1</atm_distance_factor>
          <skyblendfac sid="skyblendfac" type="float">1</skyblendfac>
          <sky_exposure sid="sky_exposure" type="float">1</sky_exposure>
          <sky_colorspace sid="sky_colorspace" type="int">0</sky_colorspace>
        </technique>
      </extra>
    </light>
  </library_lights>
  <library_images/>
  <library_geometries>
    <geometry id="Battery-mesh" name="Battery">
      <mesh>
        <source id="Battery-mesh-positions">
          <float_array id="Battery-mesh-positions-array" count="216">-60.08612 1.52588e-5 59.96232 -62.95293 0.692194 59.96232 -60.08612 1.52588e-5 -65.03768 -62.95293 0.692194 -65.03768 59.91388 1.52588e-5 -65.03768 62.78076 0.692112 -65.03768 59.91388 1.52588e-5 59.96232 -73.56982 10.3304 -65.03768 -74.53516 13.11713 -65.03768 -73.56982 24.66963 -65.03768 -72.15537 27.25749 -65.03768 -74.53516 21.8829 -65.03768 -65.66511 1.850563 -65.03768 -68.14743 3.442991 -65.03768 -70.33103 5.425311 -65.03768 -72.15537 7.742539 -65.03768 -75.02462 16.02542 -65.03768 -75.02462 18.97461 -65.03768 -70.33103 29.57472 -65.03768 -68.14743 31.55704 -65.03768 -65.66511 33.14947 -65.03768 -60.08612 35.00001 -65.03768 -62.95293 34.30783 -65.03768 62.78076 0.692112 59.96232 -73.56982 24.66963 59.96232 -74.53516 21.8829 59.96232 -75.02462 18.97461 59.96232 -75.02462 16.02542 59.96232 -74.53516 13.11713 59.96232 -73.56982 10.3304 59.96232 -72.15537 7.742539 59.96232 -65.66511 33.14947 59.96232 -68.14743 31.55704 59.96232 -62.95293 34.30783 59.96232 -70.33103 29.57472 59.96232 -72.15537 27.25749 59.96232 -65.66511 1.850563 59.96232 -70.33103 5.425311 59.96232 -68.14743 3.442991 59.96232 59.91388 35.00001 59.96232 -60.08612 35.00001 59.96232 65.49303 1.850425 -65.03768 59.91388 35.00001 -65.03768 65.49303 1.850425 59.96232 67.97545 3.442821 -65.03768 67.97545 3.442821 59.96232 70.15914 5.425133 -65.03768 70.15914 5.425133 59.96232 71.98352 7.742376 -65.03768 71.98352 7.742376 59.96232 73.39806 10.33027 -65.03768 73.39806 10.33027 59.96232 74.36344 13.11705 -65.03768 74.36344 13.11705 59.96232 74.85291 16.02539 -65.03768 74.85291 16.02539 59.96232 74.85291 18.97464 -65.03768 74.85291 18.97464 59.96232 74.36344 21.88298 -65.03768 74.36344 21.88298 59.96232 73.39806 24.66976 -65.03768 73.39806 24.66976 59.96232 71.98352 27.25765 -65.03768 62.78076 34.30792 -65.03768 65.49303 33.1496 -65.03768 71.98352 27.25765 59.96232 70.15914 29.5749 -65.03768 70.15914 29.5749 59.96232 67.97545 31.55721 -65.03768 67.97545 31.55721 59.96232 65.49303 33.1496 59.96232 62.78076 34.30792 59.96232</float_array>
          <technique_common>
            <accessor source="#Battery-mesh-positions-array" count="72" stride="3">
              <param name="X" type="float"/>
              <param name="Y" type="float"/>
              <param name="Z" type="float"/>
            </accessor>
          </technique_common>
        </source>
        <source id="Battery-mesh-normals">
          <float_array id="Battery-mesh-normals-array" count="255">-0.2347012 -0.9720677 0 0 -1 0 0 0 -1 0.2346695 -0.9720753 0 3.37202e-7 0 -1 2.09089e-7 0 -1 6.86248e-7 0 -1 9.98436e-7 0 -1 0 0 1 0.2346695 -0.9720753 0 -1.03725e-6 0 1 7.56401e-7 0 1 0.3927493 -0.9196456 0 3.16662e-7 0 -1 0.3927483 -0.919646 0 -0.3927749 -0.9196347 0 -0.3927751 -0.9196347 0 0.5399316 -0.8417089 0 -1.00414e-6 0 -1 0.5399304 -0.8417098 0 -2.6777e-6 0 1 -0.539955 -0.8416939 0 -0.5399526 -0.8416955 0 0.672142 -0.7404223 0 -1.07847e-6 0 -1 0.672142 -0.7404223 0 -0.6721593 -0.7404066 0 -0.6721566 -0.740409 0 0.7857087 -0.6185968 0 0.7857087 -0.6185969 0 3.14222e-6 0 1 -0.785717 -0.6185863 0 -0.7857144 -0.6185895 0 0.8774748 -0.479623 0 8.7453e-7 0 -1 -0.8774833 -0.4796073 0 -0.8774833 -0.4796073 0 0.9449102 -0.3273295 0 -9.94174e-7 0 -1 0.9449086 -0.3273343 0 -0.9449119 -0.3273249 0 -0.9449135 -0.3273202 0 0.9861318 -0.1659641 0 1.15739e-6 0 -1 -0.9861314 -0.1659671 0 -0.9861322 -0.165962 0 1 0 0 -2.77062e-6 0 -1 -1 0 0 -0.9861322 0.165962 0 -0.9861314 0.1659671 0 0.9861318 0.1659641 0 1.71428e-6 0 -1 -3.42857e-6 0 1 -0.9449136 0.3273202 0 -0.9449119 0.3273249 0 0.9449086 0.3273343 0 2.21104e-6 0 -1 0.9449102 0.3273295 0 -0.8774834 0.4796072 0 -0.8774834 0.4796072 0 0.8774748 0.479623 0 -6.01826e-6 0 -1 -0.7857144 0.6185895 0 -0.785717 0.6185863 0 0.7857087 0.6185968 0 0.7857087 0.6185969 0 -4.40902e-6 0 1 -0.6721564 0.7404092 0 -0.6721591 0.7404068 0 0.6721422 0.7404221 0 2.11392e-5 0 -1 1.4225e-5 0 1 -0.5399526 0.8416955 0 -0.539955 0.8416939 0 0.5399299 0.8417101 0 0.5399311 0.8417093 0 -0.3927744 0.9196348 0 0.3927485 0.9196459 0 0.3927496 0.9196456 0 -0.2347018 0.9720675 0 -0.2347019 0.9720675 0 0.2346695 0.9720753 0 0.2346695 0.9720753 0 0 1 0</float_array>
          <technique_common>
            <accessor source="#Battery-mesh-normals-array" count="85" stride="3">
              <param name="X" type="float"/>
              <param name="Y" type="float"/>
              <param name="Z" type="float"/>
            </accessor>
          </technique_common>
        </source>
        <vertices id="Battery-mesh-vertices">
          <input semantic="POSITION" source="#Battery-mesh-positions"/>
        </vertices>
        <triangles count="140">
          <input semantic="VERTEX" source="#Battery-mesh-vertices" offset="0"/>
          <input semantic="NORMAL" source="#Battery-mesh-normals" offset="1"/>
          <p>0 0 1 0 2 0 1 0 3 0 2 0 4 1 0 1 2 1 3 2 4 2 2 2 5 3 6 3 4 3 6 1 0 1 4 1 7 4 8 4 4 4 9 2 10 2 4 2 11 2 9 2 4 2 3 2 12 2 4 2 12 2 13 2 4 2 13 2 14 2 4 2 14 5 15 5 4 5 15 2 7 2 4 2 8 2 16 2 4 2 16 2 17 2 4 2 17 2 11 2 4 2 10 6 18 6 4 6 18 2 19 2 4 2 19 2 20 2 4 2 21 7 5 7 4 7 22 2 21 2 4 2 20 2 22 2 4 2 6 8 1 8 0 8 5 9 23 9 6 9 24 8 25 8 6 8 25 8 26 8 6 8 26 8 27 8 6 8 27 8 28 8 6 8 28 8 29 8 6 8 29 8 30 8 6 8 31 8 32 8 6 8 33 10 31 10 6 10 32 11 34 11 6 11 34 8 35 8 6 8 35 8 24 8 6 8 36 8 1 8 6 8 30 8 37 8 6 8 37 8 38 8 6 8 38 8 36 8 6 8 23 8 39 8 6 8 39 8 40 8 6 8 40 8 33 8 6 8 41 12 23 12 5 12 42 13 41 13 5 13 21 2 42 2 5 2 41 14 43 14 23 14 43 8 39 8 23 8 1 15 36 15 3 15 36 16 12 16 3 16 44 17 43 17 41 17 42 18 44 18 41 18 44 19 45 19 43 19 45 20 39 20 43 20 36 21 38 21 12 21 38 22 13 22 12 22 46 23 45 23 44 23 42 24 46 24 44 24 46 25 47 25 45 25 47 8 39 8 45 8 38 26 37 26 13 26 37 27 14 27 13 27 48 28 47 28 46 28 42 2 48 2 46 2 48 29 49 29 47 29 49 30 39 30 47 30 37 31 30 31 14 31 30 32 15 32 14 32 50 33 49 33 48 33 42 34 50 34 48 34 50 33 51 33 49 33 51 8 39 8 49 8 30 35 29 35 15 35 29 36 7 36 15 36 52 37 51 37 50 37 42 38 52 38 50 38 52 39 53 39 51 39 53 8 39 8 51 8 29 40 28 40 7 40 28 41 8 41 7 41 54 42 53 42 52 42 42 43 54 43 52 43 54 42 55 42 53 42 55 8 39 8 53 8 28 44 27 44 8 44 27 45 16 45 8 45 56 46 55 46 54 46 42 47 56 47 54 47 56 46 57 46 55 46 57 8 39 8 55 8 27 48 26 48 16 48 26 48 17 48 16 48 26 49 25 49 17 49 25 50 11 50 17 50 58 51 57 51 56 51 42 52 58 52 56 52 58 51 59 51 57 51 59 53 39 53 57 53 25 54 24 54 11 54 24 55 9 55 11 55 60 56 59 56 58 56 42 57 60 57 58 57 60 58 61 58 59 58 61 8 39 8 59 8 24 59 35 59 9 59 35 60 10 60 9 60 62 61 61 61 60 61 42 62 63 62 60 62 63 2 64 2 60 2 64 2 62 2 60 2 62 61 65 61 61 61 65 8 39 8 61 8 35 63 34 63 10 63 34 64 18 64 10 64 66 65 65 65 62 65 64 2 66 2 62 2 66 66 67 66 65 66 67 67 39 67 65 67 34 68 32 68 18 68 32 69 19 69 18 69 68 70 67 70 66 70 64 71 68 71 66 71 68 70 69 70 67 70 69 8 70 8 67 8 71 8 39 8 67 8 70 72 71 72 67 72 32 73 31 73 19 73 31 74 20 74 19 74 64 75 69 75 68 75 64 76 70 76 69 76 31 77 33 77 20 77 33 77 22 77 20 77 63 78 70 78 64 78 63 79 71 79 70 79 33 80 40 80 22 80 40 81 21 81 22 81 42 82 71 82 63 82 42 83 39 83 71 83 39 84 42 84 21 84 40 84 39 84 21 84</p>
        </triangles>
      </mesh>
    </geometry>
  </library_geometries>
  <library_controllers/>
  <library_visual_scenes>
    <visual_scene id="Scene" name="Scene">
      <node id="Camera" name="Camera" type="NODE">
        <matrix sid="transform">0.6859207 -0.3240135 0.6515582 7.481132 0.7276763 0.3054208 -0.6141704 -6.50764 0 0.8953956 0.4452714 5.343665 0 0 0 1</matrix>
        <instance_camera url="#Camera-camera"/>
      </node>
      <node id="Lamp" name="Lamp" type="NODE">
        <matrix sid="transform">-0.2908646 -0.7711008 0.5663932 4.076245 0.9551712 -0.1998834 0.2183912 1.005454 -0.05518906 0.6045247 0.7946723 5.903862 0 0 0 1</matrix>
        <instance_light url="#Lamp-light"/>
      </node>
      <node id="Battery" name="Battery" type="NODE">
        <matrix sid="transform">0.00999999 0 0 8.60489e-4 0 -4.37113e-10 -0.00999999 -3.76295e-4 0 0.00999999 -4.37113e-10 -1.78814e-7 0 0 0 1</matrix>
        <instance_geometry url="#Battery-mesh" name="Battery"/>
      </node>
    </visual_scene>
  </library_visual_scenes>
  <scene>
    <instance_visual_scene url="#Scene"/>
  </scene>
</COLLADA>